<?xml version="1.0" standalone="no"?>
<!DOCTYPE svg PUBLIC "-//W3C//DTD SVG 20010904//EN"
 "http://www.w3.org/TR/2001/REC-SVG-20010904/DTD/svg10.dtd">
<svg version="1.0" xmlns="http://www.w3.org/2000/svg"
 width="320.000000pt" height="320.000000pt" viewBox="0 0 320.000000 320.000000"
 preserveAspectRatio="xMidYMid meet">
<g transform="translate(0.000000,320.000000) scale(0.100000,-0.100000)"
fill="#ffffff" stroke="none">
<path d="M1095 1952 c-162 -84 -190 -127 -125 -192 32 -32 61 -24 208 49 170
85 193 119 129 189 -33 35 -70 27 -212 -46z"/>
<path d="M490 1979 c-312 -51 -439 -450 -215 -674 179 -180 490 -140 618 78
169 288 -75 649 -403 596z m185 -56 c249 -86 322 -407 134 -591 -138 -136
-366 -136 -505 0 -75 72 -99 136 -99 258 0 96 3 110 28 158 85 161 271 235
442 175z"/>
<path d="M331 1793 l-33 -4 7 -57 c9 -71 47 -222 76 -302 l22 -60 62 0 62 0
12 63 c26 130 54 246 61 242 5 -3 47 -179 66 -282 4 -21 10 -23 64 -23 70 0
74 4 115 147 30 100 28 138 -10 213 -31 62 -43 68 -49 28 -3 -18 -10 -67 -16
-108 -7 -41 -16 -93 -22 -115 l-11 -40 -14 65 c-7 36 -25 104 -40 153 l-26 87
-58 0 -58 0 -25 -82 c-14 -46 -31 -111 -37 -145 -7 -35 -16 -63 -19 -63 -7 0
-33 139 -46 238 -7 56 -3 54 -83 45z"/>
<path d="M1598 1773 c-16 -4 -18 -20 -18 -169 l0 -164 25 0 c25 0 25 2 25 78
0 86 4 96 41 111 52 19 69 -7 69 -105 0 -84 0 -84 26 -84 l26 0 -4 96 c-3 86
-5 98 -27 115 -28 23 -78 25 -109 3 l-22 -15 0 65 c0 68 -4 75 -32 69z"/>
<path d="M3007 1772 c-26 -5 -19 -47 8 -47 11 0 21 8 23 19 5 23 -7 34 -31 28z"/>
<path d="M2920 1710 c0 -57 -1 -60 -19 -50 -67 35 -149 -12 -158 -91 -11 -95
59 -157 141 -125 25 10 42 12 44 6 2 -5 12 -10 23 -10 18 0 19 9 19 165 l0
165 -25 0 c-24 0 -25 -3 -25 -60z m-12 -97 c20 -27 15 -100 -8 -123 -43 -43
-110 -3 -110 65 0 71 78 109 118 58z"/>
<path d="M1910 1738 c-59 -31 -82 -66 -87 -130 -8 -106 53 -168 166 -168 112
0 111 0 111 92 l0 79 -57 -3 c-66 -3 -85 -30 -25 -36 31 -3 32 -5 32 -48 0
-37 -3 -44 -20 -45 -70 -5 -88 0 -121 29 -23 21 -32 39 -36 73 -10 91 48 144
155 137 46 -2 57 0 60 13 7 36 -113 40 -178 7z"/>
<path d="M1248 1713 c-10 -2 -18 -13 -18 -24 0 -10 -6 -19 -14 -19 -23 0 -29
-31 -6 -37 17 -5 20 -14 20 -69 0 -100 29 -144 86 -130 28 7 33 36 6 36 -32 0
-42 22 -42 92 l0 68 30 0 c23 0 30 4 30 20 0 16 -7 20 -30 20 -25 0 -30 4 -30
25 0 25 -1 26 -32 18z"/>
<path d="M1018 1663 c-44 -11 -18 -34 31 -27 43 5 50 4 64 -17 21 -30 16 -35
-40 -42 -75 -8 -113 -64 -78 -114 20 -29 58 -36 100 -19 19 8 35 11 35 5 0 -5
12 -9 26 -9 20 0 25 4 20 16 -3 9 -6 49 -6 90 0 109 -46 145 -152 117z m112
-134 c0 -53 -91 -81 -98 -30 -5 29 7 41 50 50 40 9 48 6 48 -20z"/>
<path d="M1408 1652 c-131 -81 1 -283 134 -206 20 12 -6 35 -34 29 -83 -19
-139 68 -84 132 20 23 31 27 67 26 41 -2 64 11 53 29 -9 15 -108 8 -136 -10z"/>
<path d="M2140 1581 c0 -126 41 -172 125 -137 20 9 37 11 40 5 4 -5 15 -9 26
-9 18 0 19 8 19 115 l0 115 -25 0 c-25 0 -25 -1 -25 -80 0 -86 -17 -120 -59
-120 -40 0 -51 26 -51 116 0 83 0 84 -25 84 -25 0 -25 -1 -25 -89z"/>
<path d="M2411 1661 c-26 -16 -5 -43 23 -30 31 15 72 5 86 -20 9 -18 5 -21
-45 -31 -81 -17 -115 -67 -80 -117 21 -30 66 -38 104 -18 18 9 31 11 31 5 0
-5 12 -10 26 -10 22 0 25 3 20 23 -3 12 -6 54 -6 94 0 92 -18 113 -94 113 -28
0 -57 -4 -65 -9z m117 -138 c-4 -35 -49 -63 -75 -47 -45 28 -17 74 45 74 30 0
33 -2 30 -27z"/>
<path d="M2620 1555 l0 -115 25 0 c25 0 25 1 25 78 0 83 14 112 53 112 10 0
17 8 17 20 0 24 -26 26 -58 4 -20 -14 -22 -14 -22 0 0 9 -9 16 -20 16 -19 0
-20 -7 -20 -115z"/>
</g>
</svg>
