<?xml version="1.0" standalone="no"?>
<!DOCTYPE svg PUBLIC "-//W3C//DTD SVG 20010904//EN"
 "http://www.w3.org/TR/2001/REC-SVG-20010904/DTD/svg10.dtd">
<svg version="1.0" xmlns="http://www.w3.org/2000/svg"
 width="320.000000pt" height="320.000000pt" viewBox="0 0 320.000000 320.000000"
 preserveAspectRatio="xMidYMid meet">
<g transform="translate(0.000000,320.000000) scale(0.100000,-0.100000)"
fill="#000000" stroke="none">
<path d="M1100 1955 c-132 -69 -160 -92 -160 -132 0 -30 51 -83 79 -83 31 0
297 136 305 155 3 9 6 32 6 50 0 40 -38 75 -79 75 -14 0 -82 -30 -151 -65z"/>
<path d="M465 1971 c-100 -25 -211 -110 -254 -196 -50 -99 -61 -190 -37 -281
33 -123 108 -212 224 -267 60 -28 77 -32 157 -32 80 0 97 4 157 32 88 41 151
101 189 178 110 225 -3 490 -240 559 -56 17 -143 19 -196 7z m239 -54 c77 -35
140 -98 179 -176 29 -59 32 -74 32 -156 0 -78 -4 -98 -27 -145 -43 -87 -90
-135 -173 -176 -64 -32 -85 -37 -147 -38 -91 -1 -148 15 -217 62 -102 69 -170
211 -158 327 16 153 122 281 266 322 68 19 179 10 245 -20z"/>
<path d="M343 1793 c-35 -3 -43 -8 -43 -25 0 -66 76 -353 102 -385 6 -8 34
-13 68 -13 l57 0 13 63 c25 128 52 237 59 237 7 0 30 -93 62 -247 l11 -53 59
0 60 0 19 43 c11 24 29 80 41 124 20 76 21 82 5 134 -15 52 -53 125 -61 117
-2 -2 -11 -48 -20 -103 -9 -55 -21 -118 -27 -140 l-11 -40 -27 110 c-15 61
-34 127 -43 148 -16 36 -17 37 -70 37 l-55 0 -26 -82 c-14 -46 -32 -112 -40
-148 -16 -80 -21 -71 -50 97 -11 69 -25 127 -31 128 -5 1 -29 0 -52 -2z"/>
<path d="M1580 1605 l0 -165 25 0 c25 0 25 1 25 78 0 92 12 115 59 115 37 0
50 -15 52 -58 3 -132 3 -130 27 -133 21 -3 22 -1 22 78 0 81 -9 114 -39 137
-22 17 -72 16 -99 -3 l-22 -15 0 65 c0 64 -1 66 -25 66 l-25 0 0 -165z"/>
<path d="M2920 1710 c0 -57 -1 -60 -19 -50 -11 5 -35 10 -54 10 -95 0 -141
-134 -70 -204 30 -31 95 -36 131 -10 20 14 22 14 22 0 0 -9 9 -16 20 -16 19 0
20 7 20 165 l0 165 -25 0 c-24 0 -25 -3 -25 -60z m-22 -86 c18 -12 22 -25 22
-69 0 -44 -4 -57 -22 -69 -54 -38 -108 -4 -108 68 0 36 5 48 26 65 32 25 52
26 82 5z"/>
<path d="M2997 1764 c-14 -14 -7 -36 9 -30 9 4 13 2 8 -5 -4 -7 -1 -10 7 -7
19 6 18 42 -1 46 -9 1 -19 0 -23 -4z"/>
<path d="M1940 1749 c-19 -6 -46 -19 -61 -30 -29 -20 -59 -84 -59 -124 0 -42
31 -104 62 -127 35 -25 147 -36 191 -19 27 11 28 12 25 83 l-3 73 -52 3 c-48
3 -53 1 -53 -17 0 -17 6 -21 30 -21 29 0 30 -2 30 -45 0 -39 -3 -45 -25 -51
-14 -4 -46 -1 -72 6 -53 16 -83 55 -83 112 0 90 48 131 147 126 44 -3 64 0 67
9 3 7 1 15 -4 18 -19 12 -106 14 -140 4z"/>
<path d="M1240 1689 c0 -12 -8 -23 -20 -26 -26 -7 -26 -19 0 -26 19 -5 20 -13
19 -86 -2 -95 7 -111 62 -111 46 0 56 27 12 32 -28 3 -28 4 -31 86 l-3 82 31
0 c16 0 30 5 30 10 0 6 -13 10 -30 10 -25 0 -30 4 -30 25 0 18 -5 25 -20 25
-14 0 -20 -7 -20 -21z"/>
<path d="M1033 1663 c-13 -2 -23 -10 -23 -17 0 -10 12 -12 47 -8 37 4 49 1 60
-13 22 -31 15 -42 -32 -47 -64 -8 -95 -31 -95 -72 0 -19 8 -40 18 -49 23 -21
71 -22 99 -2 19 13 22 13 27 0 3 -8 12 -15 21 -15 12 0 15 15 15 80 0 43 -5
90 -11 103 -18 40 -60 53 -126 40z m97 -130 c0 -53 -69 -86 -101 -47 -23 28
25 74 79 74 17 0 22 -6 22 -27z"/>
<path d="M1413 1651 c-41 -26 -53 -49 -53 -106 0 -40 5 -52 32 -76 28 -27 37
-30 87 -27 42 2 57 7 59 19 3 14 -4 16 -42 12 -38 -5 -48 -2 -70 20 -32 32
-35 84 -7 118 16 20 28 24 71 23 41 0 50 3 48 15 -5 25 -86 26 -125 2z"/>
<path d="M2144 1656 c-3 -9 -5 -52 -3 -95 5 -98 21 -121 84 -121 26 0 48 6 55
15 16 19 30 19 30 -1 0 -9 7 -14 16 -12 14 3 16 18 15 113 -1 60 -4 111 -6
113 -2 3 -11 2 -20 -1 -12 -5 -15 -23 -15 -82 0 -83 -18 -115 -64 -115 -37 0
-45 19 -48 110 -3 71 -6 85 -21 88 -9 2 -20 -4 -23 -12z"/>
<path d="M2417 1659 c-29 -17 -9 -29 37 -23 32 5 46 2 60 -11 24 -25 15 -39
-30 -46 -73 -10 -110 -45 -98 -94 3 -14 14 -30 24 -35 24 -13 76 -13 100 0 13
7 21 7 25 0 3 -5 13 -10 21 -10 11 0 14 18 14 90 0 83 -2 93 -25 115 -18 19
-35 25 -67 25 -24 0 -51 -5 -61 -11z m111 -130 c4 -33 -28 -61 -65 -57 -24 3
-28 7 -28 33 0 25 5 32 35 42 45 15 54 12 58 -18z"/>
<path d="M2627 1663 c-4 -3 -7 -55 -7 -115 l0 -108 25 0 c25 0 25 1 25 78 0
83 14 112 53 112 10 0 17 8 17 20 0 27 -28 26 -57 -2 l-23 -21 0 21 c0 21 -19
30 -33 15z"/>
</g>
</svg>
