<?xml version="1.0" standalone="no"?>
<!DOCTYPE svg PUBLIC "-//W3C//DTD SVG 20010904//EN"
 "http://www.w3.org/TR/2001/REC-SVG-20010904/DTD/svg10.dtd">
<svg version="1.0" xmlns="http://www.w3.org/2000/svg"
 width="551.000000pt" height="556.000000pt" viewBox="0 0 551.000000 556.000000"
 preserveAspectRatio="xMidYMid meet">
<g transform="translate(0.000000,556.000000) scale(0.100000,-0.100000)"
fill="#000000" stroke="none">
<path d="M1664 4256 c-29 -13 -70 -41 -93 -61 -78 -71 -151 -214 -166 -326 -3
-24 -8 -56 -10 -71 l-4 -28 392 0 392 0 0 255 0 255 -230 0 c-222 0 -232 -1
-281 -24z m281 2 l205 3 0 -231 0 -230 -355 0 c-195 0 -358 1 -362 3 -9 2 -9
22 0 87 8 63 18 91 28 84 5 -3 9 11 9 31 0 25 4 34 12 29 7 -5 9 -2 5 9 -6 17
15 41 27 30 4 -4 4 -1 1 8 -8 21 105 145 116 127 7 -10 9 -9 9 4 0 10 11 19
30 23 17 4 30 11 30 16 0 5 5 9 11 9 5 0 7 -4 4 -10 -3 -5 -1 -10 4 -10 6 0
11 8 12 18 0 9 2 13 5 7 2 -6 79 -9 209 -7z"/>
<path d="M1731 4226 c-9 -11 -9 -16 1 -22 7 -4 10 -4 6 1 -4 4 -3 14 3 22 6 7
9 13 6 13 -2 0 -10 -6 -16 -14z"/>
<path d="M1660 4220 c-8 -5 -10 -10 -5 -10 6 0 17 5 25 10 8 5 11 10 5 10 -5
0 -17 -5 -25 -10z"/>
<path d="M1576 4147 c3 -10 9 -15 12 -12 3 3 0 11 -7 18 -10 9 -11 8 -5 -6z"/>
<path d="M2390 4023 l0 -258 385 3 385 2 0 255 0 255 -385 0 -385 0 0 -257z
m737 223 c-3 -8 -3 -16 1 -18 4 -2 6 -100 4 -218 l-3 -215 -360 3 -359 2 0
230 0 229 361 1 c313 0 361 -1 356 -14z"/>
<path d="M3368 4025 l-3 -255 396 0 396 0 -9 62 c-12 89 -25 134 -63 213 -34
72 -127 185 -151 185 -8 0 -14 4 -14 9 0 5 -21 16 -47 25 -37 13 -92 16 -274
16 l-228 0 -3 -255z m448 215 c5 0 2 5 -6 10 -9 6 -10 10 -3 10 15 0 66 -22
73 -31 3 -4 14 -9 25 -11 23 -4 54 -30 48 -40 -2 -4 4 -5 13 -1 14 5 16 3 11
-11 -4 -11 -3 -15 4 -10 8 4 9 -1 4 -17 -4 -17 -3 -20 3 -10 5 7 15 10 21 6 9
-5 9 -11 -1 -23 -9 -11 -9 -14 -1 -9 15 10 48 -38 37 -54 -4 -8 -3 -9 4 -5 7
4 16 -4 23 -21 6 -15 18 -42 26 -60 8 -17 12 -36 9 -42 -4 -6 0 -21 8 -33 8
-13 14 -38 12 -56 l-1 -33 -368 -2 -368 -2 1 220 c1 122 5 227 9 233 6 10 52
12 189 10 104 -2 182 1 182 6 0 5 8 2 18 -7 10 -10 23 -17 28 -17z"/>
<path d="M4101 3854 c0 -11 3 -14 6 -6 3 7 2 16 -1 19 -3 4 -6 -2 -5 -13z"/>
<path d="M2351 3764 c0 -11 3 -14 6 -6 3 7 2 16 -1 19 -3 4 -6 -2 -5 -13z"/>
<path d="M1400 3553 c0 -2 0 -117 -1 -255 l0 -253 388 -3 388 -2 0 257 0 258
-387 0 c-214 0 -388 -1 -388 -2z m400 -33 l-355 -5 353 -3 352 -2 0 -220 0
-220 -192 0 c-106 0 -269 -3 -363 -7 l-170 -6 3 213 c2 166 0 215 -10 222 -10
6 -10 8 -1 8 7 0 10 7 7 15 -5 13 38 15 362 13 l369 -3 -355 -5z m-383 -182
c-2 -29 -3 -8 -3 47 0 55 1 79 3 53 2 -26 2 -71 0 -100z m0 -210 c-2 -29 -3
-6 -3 52 0 58 1 81 3 53 2 -29 2 -77 0 -105z"/>
<path d="M3368 3297 l-3 -257 395 0 395 0 0 255 0 255 -392 2 -392 3 -3 -258z
m745 219 c16 -12 18 -34 17 -235 -1 -129 -5 -221 -11 -221 -5 0 -9 5 -9 10 0
6 -5 10 -11 10 -5 0 -8 -4 -5 -8 3 -5 -154 -9 -350 -8 l-355 1 1 219 c1 193 3
221 18 233 25 19 680 18 705 -1z"/>
<path d="M3708 3513 c34 -2 88 -2 120 0 31 2 3 3 -63 3 -66 0 -92 -1 -57 -3z"/>
<path d="M1397 2773 c4 -61 40 -179 75 -251 25 -51 124 -162 144 -162 8 0 14
-4 14 -8 0 -25 61 -31 295 -32 l245 -1 3 255 2 256 -391 0 -391 0 4 -57z m753
-203 l-1 -230 -187 -1 c-103 0 -202 -2 -220 -4 -18 -1 -38 3 -45 9 -7 7 -18
11 -25 8 -6 -2 -12 5 -12 15 0 13 -2 15 -9 5 -6 -10 -10 -10 -20 2 -6 8 -8 16
-4 18 4 3 2 3 -5 1 -8 -2 -25 6 -39 17 -16 12 -20 20 -12 21 12 0 12 1 0 6
-22 9 -53 43 -38 43 7 1 5 6 -5 14 -10 7 -18 19 -18 25 0 7 -4 9 -10 6 -5 -3
-10 1 -10 9 0 8 5 18 10 21 6 3 10 12 10 18 0 7 -5 4 -11 -5 -15 -26 -32 -23
-19 3 7 11 9 23 6 27 -3 3 -6 -1 -6 -8 0 -25 -17 3 -33 55 -9 28 -17 70 -19
95 -2 25 -7 48 -13 52 -5 4 158 8 363 8 l373 0 -1 -230z"/>
<path d="M1556 2467 c3 -10 9 -15 12 -12 3 3 0 11 -7 18 -10 9 -11 8 -5 -6z"/>
<path d="M2392 2575 l3 -256 380 0 380 0 3 256 2 255 -385 0 -385 0 2 -255z
m748 214 c0 -5 -3 -8 -7 -6 -5 3 -7 -97 -6 -221 l2 -227 -330 5 c-182 3 -333
2 -336 -2 -2 -5 -13 -8 -24 -8 -11 0 -17 5 -14 10 3 6 1 10 -4 10 -8 0 -11 73
-11 225 l0 225 365 0 c250 0 365 -3 365 -11z"/>
<path d="M3369 2826 c-2 -2 -3 -118 -1 -258 l3 -253 244 2 c266 3 268 3 348
65 49 39 142 179 152 228 2 8 10 40 18 70 9 30 17 76 20 103 l5 47 -393 0
c-215 0 -394 -2 -396 -4z m758 -53 c1 -18 -3 -36 -8 -39 -5 -3 -9 -11 -9 -17
0 -7 4 -6 11 3 8 11 9 9 4 -10 -4 -14 -12 -29 -18 -35 -7 -7 -7 -6 -2 4 5 9 4
12 -3 7 -6 -4 -9 -13 -5 -21 9 -24 -6 -64 -32 -87 -14 -12 -25 -26 -25 -32 0
-5 7 -1 15 10 21 27 18 10 -4 -34 -26 -49 -96 -122 -146 -153 -38 -23 -49 -24
-258 -29 -140 -3 -219 -1 -221 5 -3 6 -9 4 -14 -4 -6 -7 -12 -9 -15 -4 -4 6
-6 112 -6 236 l0 226 347 1 c190 0 347 2 348 3 2 2 11 3 22 3 14 0 18 -8 19
-33z"/>
<path d="M4005 2519 c-3 -4 2 -6 10 -5 21 3 28 13 10 13 -9 0 -18 -4 -20 -8z"/>
<path d="M1070 1809 l0 -189 48 0 47 0 -3 75 -4 75 141 0 141 0 0 40 0 40
-140 0 -140 0 0 30 0 30 165 0 165 0 0 45 0 46 -210 -1 -210 -1 0 -190z m384
146 c-19 -15 -19 -15 1 -9 12 4 15 3 9 -3 -18 -13 -306 -4 -298 9 4 7 3 8 -4
4 -6 -4 -9 -13 -6 -20 3 -8 0 -17 -5 -21 -6 -3 -8 -11 -5 -17 5 -7 2 -9 -7 -6
-10 4 -15 -1 -15 -12 0 -11 5 -16 15 -12 8 3 12 1 8 -5 -4 -6 1 -17 11 -26 13
-12 44 -16 125 -19 59 -2 107 1 107 5 0 4 9 3 20 -3 11 -6 18 -16 14 -22 -4
-7 -9 -6 -15 3 -7 11 -9 11 -9 1 0 -10 -27 -13 -117 -11 -107 1 -118 0 -134
-19 -9 -12 -19 -19 -23 -17 -3 3 -2 -1 4 -7 5 -7 10 -34 10 -60 0 -41 -3 -48
-20 -48 -19 0 -20 7 -20 165 l0 165 187 0 c168 0 185 -2 167 -15z"/>
<path d="M1125 1920 c-3 -6 1 -7 9 -4 18 7 21 14 7 14 -6 0 -13 -4 -16 -10z"/>
<path d="M1123 1785 c0 -8 4 -15 9 -15 4 0 8 4 8 9 0 6 -4 12 -8 15 -5 3 -9
-1 -9 -9z"/>
<path d="M1562 1978 c-11 -13 -24 -35 -27 -50 l-7 -28 76 0 76 0 0 50 0 50
-48 0 c-37 0 -53 -5 -70 -22z m98 -23 c0 -19 -5 -25 -22 -26 -13 0 -33 -2 -45
-5 -13 -2 -23 1 -23 7 0 5 -6 7 -12 3 -8 -5 -8 -1 2 12 22 29 24 30 17 11 -4
-11 -3 -16 3 -12 6 3 10 13 10 21 0 9 11 14 35 14 31 0 35 -3 35 -25z"/>
<path d="M1725 1950 l0 -50 78 0 77 0 0 50 0 50 -77 0 -78 0 0 -50z m128 10
c3 -11 1 -20 -5 -20 -5 0 -6 -4 -3 -10 10 -17 -81 -12 -95 5 -8 10 -9 15 -2
15 6 0 9 7 6 15 -5 12 4 15 44 15 41 0 51 -3 55 -20z"/>
<path d="M1920 1950 l0 -50 75 0 c83 0 88 5 60 59 -17 34 -33 41 -91 41 l-44
0 0 -50z m102 6 c-2 -12 1 -16 9 -11 7 5 10 3 7 -6 -3 -9 -23 -15 -51 -17 -46
-3 -47 -2 -47 26 0 29 2 30 43 28 35 -1 41 -4 39 -20z"/>
<path d="M2140 1808 l0 -188 45 0 45 0 0 75 0 76 118 -3 117 -3 3 -72 3 -73
44 0 45 0 0 69 c0 48 -4 72 -15 81 -13 11 -13 15 0 33 23 33 20 128 -5 155
-29 30 -43 33 -233 35 l-167 2 0 -187z m333 158 c21 1 27 -3 22 -14 -5 -13 -3
-13 12 -1 11 9 14 10 9 1 -4 -7 -1 -15 8 -18 9 -3 13 -10 10 -15 -3 -5 -1 -9
4 -9 6 0 7 -14 2 -34 -4 -19 -6 -37 -3 -40 4 -4 0 -15 -27 -66 -12 -22 -11
-24 2 -13 15 13 28 8 28 -9 0 -5 -6 -6 -12 -2 -9 5 -10 4 -3 -4 6 -6 9 -32 7
-57 -3 -37 -8 -45 -24 -45 -17 0 -19 6 -17 53 1 30 -2 60 -7 68 -5 8 -9 18 -9
23 0 5 -8 10 -17 12 -10 1 -18 -2 -18 -7 0 -6 -5 -7 -10 -4 -6 4 -8 10 -5 15
3 5 1 12 -5 15 -6 4 -9 1 -8 -7 4 -19 -167 -28 -186 -10 -11 12 -13 10 -12
-10 0 -13 -4 -22 -11 -21 -7 2 -10 -4 -7 -12 4 -8 9 -13 13 -11 3 2 4 -19 1
-47 -4 -39 -9 -53 -22 -55 -20 -4 -20 -8 -22 203 l-1 120 120 5 c66 3 129 3
140 0 11 -3 33 -5 48 -4z"/>
<path d="M2219 1944 c10 -21 6 -34 -11 -34 -5 0 -6 5 -3 10 3 6 1 10 -5 10 -6
0 -8 5 -4 12 4 7 3 8 -4 4 -14 -8 0 -41 20 -49 10 -4 10 -6 -1 -6 -11 -1 -11
-4 -1 -16 10 -12 10 -15 0 -15 -7 0 -1 -9 14 -21 24 -19 37 -20 121 -17 52 1
95 -1 95 -6 0 -5 12 3 26 17 15 15 31 24 36 21 7 -4 7 0 0 12 -10 20 -5 47 7
40 4 -3 8 2 8 10 0 10 -4 11 -11 4 -5 -5 -14 -10 -20 -10 -5 0 -6 3 -3 7 4 3
2 12 -4 19 -8 10 -16 11 -30 3 -13 -6 -19 -6 -19 0 0 6 -7 8 -15 5 -8 -3 -51
-7 -97 -7 -63 -2 -86 2 -96 13 -11 13 -12 12 -3 -6z m251 -64 l0 -30 -120 0
-120 0 0 30 0 30 120 0 120 0 0 -30z"/>
<path d="M2500 1886 c0 -2 7 -7 16 -10 8 -3 12 -2 9 4 -6 10 -25 14 -25 6z"/>
<path d="M2200 1830 c20 -13 33 -13 25 0 -3 6 -14 10 -23 10 -15 0 -15 -2 -2
-10z"/>
<path d="M2180 1790 c-9 -6 -10 -10 -3 -10 6 0 15 5 18 10 8 12 4 12 -15 0z"/>
<path d="M2610 1953 l0 -43 45 0 45 0 0 -145 0 -145 45 0 45 0 0 145 0 145 85
0 85 0 0 43 0 42 -175 0 -175 0 0 -42z m310 6 c0 -6 5 -7 10 -4 6 3 10 2 10
-4 0 -14 -13 -16 -85 -13 -43 3 -63 7 -59 14 4 7 2 8 -4 4 -6 -4 -9 -13 -6
-20 3 -8 0 -17 -7 -22 -7 -4 -10 -3 -6 3 4 6 -1 17 -11 24 -15 13 -16 12 -3
-3 7 -10 10 -18 7 -18 -4 0 -4 -5 0 -11 8 -13 5 -189 -4 -241 -6 -30 -10 -36
-22 -28 -12 7 -15 35 -17 135 -2 138 -13 169 -60 163 -12 -2 -22 0 -23 5 0 4
0 12 0 17 0 7 50 10 140 9 83 0 140 -5 140 -10z"/>
<path d="M2711 1934 c6 -7 16 -11 21 -8 11 7 3 17 -18 20 -12 2 -13 -1 -3 -12z"/>
<path d="M3010 1995 c0 0 -2 -84 -5 -187 l-4 -188 49 0 50 0 0 188 0 188 -45
0 c-25 0 -45 0 -45 -1z m60 -196 c0 -152 -1 -159 -20 -159 -19 0 -20 7 -20
158 0 87 3 161 6 165 3 3 12 3 20 0 11 -4 14 -37 14 -164z"/>
<path d="M3168 1809 l-3 -189 48 0 47 0 0 145 0 145 114 0 c95 0 115 -3 120
-16 3 -9 6 -74 6 -145 l0 -129 45 0 45 0 0 135 c0 228 -6 234 -248 239 l-171
4 -3 -189z m329 156 c32 -8 52 -32 53 -62 0 -13 4 -23 8 -23 7 0 8 -29 2 -50
-1 -3 -1 -46 0 -95 1 -85 0 -91 -19 -92 -20 -2 -21 4 -22 120 -1 67 -2 130 -2
139 0 10 -4 15 -10 11 -7 -4 -8 1 -3 13 6 15 4 16 -5 7 -9 -9 -15 -8 -26 3
-15 14 -38 20 -30 7 3 -5 -35 -7 -85 -5 -59 2 -94 -1 -104 -8 -17 -15 -19 1
-1 20 10 12 9 12 -5 1 -12 -9 -16 -21 -12 -37 3 -13 2 -24 -2 -24 -5 0 -8 -56
-6 -125 3 -120 2 -125 -17 -125 -19 0 -20 7 -23 166 -2 91 -2 166 -1 167 5 5
288 -2 310 -8z"/>
<path d="M3460 1960 c0 -5 5 -10 11 -10 5 0 7 5 4 10 -3 6 -8 10 -11 10 -2 0
-4 -4 -4 -10z"/>
<path d="M3532 1820 c0 -14 2 -19 5 -12 2 6 2 18 0 25 -3 6 -5 1 -5 -13z"/>
<path d="M3660 1995 c0 0 -1 -84 -3 -188 l-2 -187 188 0 187 0 0 40 0 40 -145
0 -145 0 0 35 0 35 100 0 100 0 0 40 0 40 -100 0 -100 0 0 30 0 30 145 0 145
0 0 43 0 42 -185 0 c-102 0 -185 0 -185 0z m343 -39 c5 -11 -16 -14 -114 -15
-154 -2 -169 -8 -169 -61 1 -50 19 -60 112 -60 69 0 85 -3 85 -15 0 -12 -17
-15 -86 -16 -47 -1 -95 -1 -106 0 -11 1 -16 -2 -10 -6 13 -11 14 -63 0 -63 -5
0 -2 -5 8 -11 15 -9 16 -13 5 -27 -11 -13 -11 -14 0 -8 15 9 260 8 274 0 5 -3
3 -12 -3 -20 -10 -12 -41 -15 -164 -13 l-151 2 -1 33 c0 21 3 31 10 27 6 -4 7
-1 1 8 -5 8 -9 69 -10 137 l0 122 157 0 c125 0 158 -3 162 -14z"/>
<path d="M4070 1953 l0 -43 45 0 45 0 0 -145 0 -145 45 0 45 0 0 145 0 145 85
0 85 0 0 43 0 42 -175 0 -175 0 0 -42z m206 17 c91 0 114 -3 114 -14 0 -9 -15
-15 -44 -17 -31 -3 -42 -1 -35 7 5 7 3 11 -6 11 -8 0 -16 -6 -19 -13 -3 -8
-12 -11 -21 -8 -8 3 -12 11 -8 18 3 6 2 7 -2 3 -15 -13 -18 -39 -22 -179 -4
-125 -6 -138 -22 -138 -22 0 -31 56 -31 191 0 93 -8 109 -52 109 -19 0 -28 5
-28 16 0 10 6 14 15 10 8 -3 15 -1 15 5 0 6 7 8 16 5 9 -3 67 -6 130 -6z"/>
<path d="M1530 1810 l0 -50 75 0 75 0 0 50 0 50 -75 0 -75 0 0 -50z m64 -10
c3 0 3 7 0 15 -4 9 0 15 7 16 8 0 24 2 37 3 18 2 22 -2 22 -27 0 -27 -2 -29
-34 -25 -20 2 -32 0 -29 -5 3 -5 0 -8 -8 -5 -8 3 -14 10 -14 16 0 5 -4 14 -9
19 -5 5 -6 3 -2 -4 4 -7 2 -13 -3 -13 -15 0 -14 23 1 38 10 10 14 8 20 -8 4
-11 10 -20 12 -20z"/>
<path d="M1920 1810 l0 -50 75 0 75 0 0 50 0 50 -75 0 -75 0 0 -50z m123 21
c17 -1 17 -2 1 -30 -10 -16 -24 -27 -33 -26 -9 2 -28 4 -43 4 -23 1 -28 6 -28
25 0 32 7 33 103 27z"/>
<path d="M1530 1707 c0 -22 31 -77 48 -86 12 -6 39 -11 61 -11 l41 0 0 49 0
49 -75 4 c-41 2 -75 -1 -75 -5z m63 -21 c-4 -6 1 -5 10 3 12 9 17 10 17 2 0
-7 5 -9 10 -6 20 12 39 -3 33 -25 -5 -18 -12 -20 -49 -19 -23 2 -42 5 -41 8 1
3 -4 15 -10 26 -10 17 -8 20 13 21 15 1 21 -2 17 -10z"/>
<path d="M1730 1663 l0 -53 75 0 75 0 0 49 0 49 -75 4 -75 3 0 -52z m120 27
c13 -9 13 -10 0 -10 -12 0 -12 -2 -1 -9 19 -12 3 -19 -54 -22 -44 -3 -50 -1
-50 16 0 11 5 23 10 27 14 11 77 9 95 -2z"/>
<path d="M1993 1713 l-73 -4 0 -49 0 -50 48 0 c56 0 88 25 98 78 4 18 5 31 3
30 -2 -1 -37 -4 -76 -5z m18 -35 c0 -10 2 -10 6 0 6 15 23 16 23 1 0 -21 -29
-39 -64 -39 -29 0 -36 4 -36 19 0 11 6 22 13 24 24 10 57 7 58 -5z"/>
<path d="M4360 1691 c-15 -29 -12 -48 11 -64 26 -19 58 -10 71 19 22 47 -57
90 -82 45z m73 -13 c8 -12 7 -21 -2 -32 -19 -23 -58 -20 -66 4 -14 43 44 67
68 28z"/>
<path d="M4380 1663 c0 -22 2 -25 10 -13 9 13 11 13 20 0 8 -12 10 -9 10 13 0
20 -5 27 -20 27 -15 0 -20 -7 -20 -27z"/>
</g>
</svg>
