<?xml version="1.0" standalone="no"?> <!DOCTYPE svg PUBLIC "-//W3C//DTD SVG 20010904//EN" "http://www.w3.org/TR/2001/REC-SVG-20010904/DTD/svg10.dtd"> <svg version="1.0" xmlns="http://www.w3.org/2000/svg" width="500.000000pt" height="220.000000pt" viewBox="0 0 500.000000 220.000000" preserveAspectRatio="xMidYMid meet"> <g transform="translate(0.000000,220.000000) scale(0.100000,-0.100000)" fill="#ffffff" stroke="none"> <path d="M680 1935 c-546 -110 -831 -688 -590 -1194 42 -87 59 -102 41 -34 -25 91 -4 215 60 338 l38 75 -50 0 c-54 0 -53 -1 -38 34 7 15 23 26 43 30 57 12 212 94 263 140 43 39 57 46 92 46 50 0 50 9 -4 -91 -56 -105 -58 -99 25 -99 39 0 70 -2 70 -5 0 -41 -25 -55 -97 -55 l-74 0 -28 -62 c-122 -273 -78 -394 139 -385 310 12 724 355 805 668 66 250 -126 396 -423 321 -78 -20 -212 -75 -212 -87 0 -4 4 -4 9 0 5 3 12 1 16 -4 3 -6 -4 -8 -15 -6 -12 2 -27 2 -35 -2 -21 -7 63 -73 94 -73 55 0 219 -33 259 -51 39 -19 42 -23 42 -62 0 -88 -107 -230 -233 -310 -86 -55 -119 -48 -96 20 15 48 13 109 -6 163 -8 23 -15 56 -15 72 0 38 -56 124 -125 193 -63 64 -68 86 -24 108 44 21 81 11 49 -13 -15 -11 -21 -23 -17 -34 9 -22 15 -21 67 14 25 16 40 30 35 30 -6 0 -27 -11 -47 -25 -41 -27 -48 -30 -48 -15 0 15 59 42 99 45 20 2 70 17 111 34 192 81 395 101 518 50 75 -32 77 -27 14 27 -198 171 -472 247 -712 199z m200 -310 c0 -3 -2 -5 -5 -5 -3 0 -5 2 -5 5 0 3 2 5 5 5 3 0 5 -2 5 -5z m-30 -20 c0 -3 -2 -5 -5 -5 -3 0 -5 2 -5 5 0 3 2 5 5 5 3 0 5 -2 5 -5z m-50 -10 c0 -3 -2 -5 -5 -5 -3 0 -5 2 -5 5 0 3 2 5 5 5 3 0 5 -2 5 -5z m14 -24 c3 -4 -4 -7 -14 -7 -11 0 -22 6 -24 12 -5 12 31 8 38 -5z m26 4 c0 -3 -2 -5 -5 -5 -3 0 -5 2 -5 5 0 3 2 5 5 5 3 0 5 -2 5 -5z"/> <path d="M640 1625 c0 -3 2 -5 5 -5 3 0 5 2 5 5 0 3 -2 5 -5 5 -3 0 -5 -2 -5 -5z"/> <path d="M1541 1528 c35 -123 -17 -301 -140 -475 -285 -404 -863 -669 -1129 -518 -71 40 -57 10 25 -54 432 -338 1039 -208 1281 274 110 220 108 525 -4 747 -29 58 -46 71 -33 26z"/> <path d="M1910 1509 l0 -52 85 6 85 6 0 -234 0 -235 60 0 60 0 0 236 0 235 85 -7 85 -7 0 52 0 51 -230 0 -230 0 0 -51z"/> <path d="M2480 1280 l0 -280 65 0 65 0 -7 110 -6 111 68 -3 69 -3 38 -94 c21 -52 38 -101 38 -108 0 -10 20 -13 81 -13 l81 0 -61 115 -61 115 31 15 c43 23 69 84 69 164 0 120 -64 151 -314 151 l-156 0 0 -280z m307 179 c34 -13 43 -25 43 -65 0 -59 -17 -69 -129 -72 l-101 -4 0 69 c0 38 3 73 7 76 10 11 149 8 180 -4z"/> <path d="M3110 1280 l0 -280 211 0 210 0 -3 48 -3 47 -145 1 -145 1 -3 71 -3 71 133 3 133 3 0 45 0 45 -133 3 -133 3 3 62 3 62 140 0 140 0 3 48 3 47 -205 0 -206 0 0 -280z"/> <path d="M3685 1280 l0 -280 57 0 58 0 2 185 3 185 100 -185 100 -185 75 0 75 0 1 280 1 280 -59 0 -59 0 1 -176 c1 -96 0 -177 -2 -179 -2 -3 -48 77 -102 175 l-98 180 -76 0 -77 0 0 -280z"/> <path d="M4330 1556 c0 -3 -1 -129 -1 -278 l0 -273 122 -3 c251 -6 349 73 349 281 0 123 -41 201 -133 249 -41 22 -336 42 -337 24z m269 -114 c51 -28 71 -73 71 -162 0 -128 -40 -174 -157 -182 l-63 -4 0 183 0 183 58 0 c36 0 70 -7 91 -18z"/> <path d="M4752 967 c9 -8 18 -31 20 -53 4 -52 22 -50 26 4 2 28 8 42 18 42 8 0 14 5 14 10 0 6 -21 10 -47 10 -41 -1 -46 -2 -31 -13z"/> <path d="M4836 964 c-10 -25 -7 -82 4 -89 6 -3 14 4 18 16 l9 23 5 -22 c8 -30 24 -28 36 6 l10 27 1 -27 c2 -53 21 -28 21 27 0 64 -20 75 -40 23 l-13 -33 -10 33 c-11 34 -31 42 -41 16z"/> <path d="M1990 855 c-1 -3 -1 -74 -1 -157 l-1 -153 31 -3 30 -3 3 108 3 108 25 -105 c26 -104 26 -105 57 -108 29 -3 33 0 42 35 5 21 19 72 30 113 l19 75 1 -112 1 -113 30 0 30 0 0 160 0 159 -47 -2 -48 -2 -26 -98 c-14 -53 -28 -100 -31 -102 -2 -3 -15 40 -28 94 l-23 99 -36 6 c-44 7 -61 7 -61 1z"/> <path d="M2697 854 c-4 -4 -7 -76 -7 -161 l0 -153 40 0 41 0 -3 158 -3 157 -30 3 c-17 2 -34 0 -38 -4z"/> <path d="M3224 842 c-117 -74 -73 -292 63 -308 62 -8 164 67 150 110 -8 24 -56 15 -77 -15 -49 -67 -130 -27 -130 65 0 96 69 141 124 81 32 -34 91 -36 81 -2 -23 74 -140 113 -211 69z"/> <path d="M3810 698 l0 -159 33 3 32 3 -3 56 c-3 54 -2 57 23 61 32 7 43 -4 74 -70 24 -51 25 -52 69 -52 44 0 44 0 30 23 -8 12 -25 40 -38 61 l-23 39 26 19 c49 35 45 131 -6 156 -12 6 -66 13 -119 15 l-98 4 0 -159z m180 87 c16 -20 3 -54 -24 -61 -69 -17 -111 12 -92 62 7 19 99 19 116 -1z"/> <path d="M4490 842 c-103 -52 -110 -227 -11 -286 97 -57 215 -1 231 108 20 143 -98 239 -220 178z m127 -64 c33 -36 35 -126 3 -158 -31 -31 -93 -27 -119 6 -72 92 39 235 116 152z"/> </g> </svg>