<?xml version="1.0" standalone="no"?>
<!DOCTYPE svg PUBLIC "-//W3C//DTD SVG 20010904//EN"
 "http://www.w3.org/TR/2001/REC-SVG-20010904/DTD/svg10.dtd">
<svg version="1.0" xmlns="http://www.w3.org/2000/svg"
 width="514.000000pt" height="244.000000pt" viewBox="0 0 514.000000 244.000000"
 preserveAspectRatio="xMidYMid meet">
<g transform="translate(0.000000,244.000000) scale(0.100000,-0.100000)"
fill="#ffffff" stroke="none">
<path d="M3096 2295 c-114 -41 -170 -179 -115 -287 75 -147 278 -155 363 -16
100 164 -66 368 -248 303z"/>
<path d="M2378 2055 c-418 -91 -571 -618 -268 -926 353 -360 967 -96 948 408
-4 109 -2 106 -64 92 -39 -9 -57 -8 -91 4 l-42 14 -72 -96 c-40 -53 -77 -99
-82 -103 -6 -4 -4 -19 6 -41 68 -143 -109 -271 -217 -158 -32 34 -48 90 -36
131 8 27 5 32 -43 67 -80 59 -77 58 -101 29 l-21 -25 -72 55 c-86 65 -85 60
-28 131 25 30 49 62 54 71 8 14 11 14 29 1 11 -8 45 -32 75 -54 60 -42 66 -55
42 -75 -24 -20 -15 -34 50 -83 56 -42 61 -44 82 -30 15 10 41 14 77 11 l54 -3
76 100 c86 112 84 106 55 147 -41 56 -38 158 6 222 l24 36 -72 34 c-115 55
-242 69 -369 41z"/>
<path d="M415 601 c-149 -37 -226 -198 -161 -338 59 -127 225 -171 348 -92 56
36 56 35 20 78 l-28 33 -38 -26 c-99 -67 -216 -5 -216 114 0 115 106 174 207
116 l42 -24 31 35 c36 41 32 51 -33 81 -48 23 -128 33 -172 23z"/>
<path d="M1845 601 c-213 -52 -252 -342 -60 -444 83 -44 201 -29 273 36 l22
21 -31 32 -31 32 -35 -24 c-91 -62 -202 -10 -211 98 -10 127 95 197 204 133
l43 -25 30 37 c35 42 31 52 -32 81 -48 23 -128 33 -172 23z"/>
<path d="M3398 596 c-180 -49 -236 -275 -98 -399 102 -92 244 -87 341 12 169
175 -4 451 -243 387z m126 -100 c85 -35 104 -168 33 -233 -66 -60 -180 -37
-213 42 -53 128 55 243 180 191z"/>
<path d="M730 371 l0 -231 56 0 55 0 -3 91 -3 90 93 2 92 2 0 -92 0 -93 50 0
50 0 0 230 0 230 -50 0 -50 0 0 -90 0 -90 -95 0 -96 0 3 88 3 87 -52 3 -53 3
0 -230z"/>
<path d="M1240 370 l0 -230 175 0 175 0 0 45 0 45 -125 0 -125 0 0 50 0 50
110 0 110 0 0 44 0 44 -110 -6 -110 -5 0 52 0 51 125 0 125 0 0 45 0 45 -175
0 -175 0 0 -230z"/>
<path d="M2160 598 c0 -2 -2 -105 -3 -231 l-2 -227 53 0 52 0 0 73 c0 65 3 76
25 97 14 13 26 22 28 19 2 -2 34 -46 71 -96 l68 -93 59 0 c32 0 59 2 59 5 0 3
-43 62 -96 131 l-97 126 92 92 c50 50 91 95 91 99 0 4 -27 7 -59 7 l-59 0 -88
-99 -89 -100 -3 100 -3 99 -49 0 c-28 0 -50 -1 -50 -2z"/>
<path d="M2790 370 l0 -230 55 0 55 0 0 70 0 70 63 0 c153 1 235 107 176 227
-37 74 -79 90 -228 92 l-121 2 0 -231z m245 119 c52 -53 17 -110 -74 -119
l-61 -6 0 74 0 74 60 -4 c34 -2 67 -11 75 -19z"/>
<path d="M3809 596 c-2 -2 -3 -106 -1 -230 l3 -226 49 0 50 0 0 230 0 230 -48
0 c-27 0 -51 -2 -53 -4z"/>
<path d="M4030 370 l0 -230 53 0 52 0 -3 147 c-2 94 0 144 6 138 5 -5 55 -72
112 -147 l102 -138 44 0 44 0 0 230 0 230 -50 0 -49 0 -3 -139 -3 -138 -104
138 -105 139 -48 0 -48 0 0 -230z"/>
<path d="M4530 550 l0 -50 70 0 70 0 0 -180 0 -180 50 0 50 0 0 180 0 180 70
0 70 0 0 50 0 50 -190 0 -190 0 0 -50z"/>
<path d="M4958 588 c7 -7 12 -22 12 -35 0 -13 5 -23 10 -23 6 0 10 11 10 25 0
14 5 25 10 25 6 0 10 5 10 10 0 6 -14 10 -32 10 -25 0 -29 -3 -20 -12z"/>
<path d="M5020 565 c0 -19 5 -35 10 -35 6 0 10 6 10 13 0 8 7 14 15 14 8 0 15
-6 15 -14 0 -7 5 -13 10 -13 6 0 10 16 10 35 0 36 -8 43 -27 24 -8 -8 -13 -8
-17 0 -14 22 -26 10 -26 -24z"/>
</g>
</svg>
