<?xml version="1.0" standalone="no"?>
<!DOCTYPE svg PUBLIC "-//W3C//DTD SVG 20010904//EN"
 "http://www.w3.org/TR/2001/REC-SVG-20010904/DTD/svg10.dtd">
<svg version="1.0" xmlns="http://www.w3.org/2000/svg"
 width="554.000000pt" height="554.000000pt" viewBox="0 0 554.000000 554.000000"
 preserveAspectRatio="xMidYMid meet">
<g transform="translate(0.000000,554.000000) scale(0.100000,-0.100000)"
fill="#ffffff" stroke="none">
<path d="M1470 4608 c-178 -88 -340 -362 -340 -578 l0 -45 497 2 c274 1 497 5
496 8 -2 3 -3 149 -3 325 l0 320 -292 0 -293 0 -65 -32z m370 -303 l0 -55 -92
1 c-102 0 -224 11 -234 21 -12 13 7 45 34 58 34 16 116 27 215 29 l77 1 0 -55z"/>
<path d="M2399 4638 c-4 -13 -3 -648 1 -648 3 0 222 -1 488 -3 l482 -2 0 328
0 327 -485 0 c-267 0 -485 -1 -486 -2z m652 -268 l39 -11 0 -54 0 -55 -215 0
-215 0 0 55 0 55 40 0 c22 0 40 3 40 8 0 12 267 14 311 2z"/>
<path d="M3650 4633 c-1 -4 -1 -151 -1 -326 l0 -318 498 0 498 0 -3 48 c-12
188 -132 433 -256 521 -111 79 -98 77 -433 80 -167 2 -303 -1 -303 -5z m489
-283 c66 -9 113 -34 119 -62 5 -24 -22 -29 -190 -35 l-158 -6 0 56 0 57 83 0
c45 0 111 -5 146 -10z"/>
<path d="M1130 3385 c0 -179 3 -325 8 -325 4 0 225 -1 492 -1 l485 0 3 325 2
326 -495 0 -495 0 0 -325z m710 -10 l0 -55 -225 0 -225 0 0 49 c0 63 -13 59
238 60 l212 1 0 -55z"/>
<path d="M3650 3705 c-1 -3 -1 -149 -1 -326 l-1 -320 496 -2 c325 -1 496 1
496 8 0 6 1 152 0 325 l0 315 -495 3 c-272 1 -495 0 -495 -3z m407 -242 c-4
-3 -10 -3 -14 0 -3 4 0 7 7 7 7 0 10 -3 7 -7z m303 -88 l0 -55 -225 0 -225 0
0 49 c0 63 -13 59 238 60 l212 1 0 -55z"/>
<path d="M1133 2707 c18 -221 165 -469 326 -550 l55 -27 303 0 303 0 -2 325
-3 325 -494 3 -494 2 6 -78z m707 -257 l0 -50 -118 0 c-121 0 -165 11 -206 53
-41 41 -24 45 167 46 l157 1 0 -50z"/>
<path d="M2397 2783 c-2 -1 1 -627 2 -645 1 -5 219 -8 486 -8 l485 0 0 328 0
327 -486 0 c-267 0 -486 -1 -487 -2z m403 -254 c0 -19 5 -21 98 -20 53 1 118
-2 145 -5 l47 -6 0 -49 0 -49 -197 0 c-240 0 -263 6 -262 65 l1 40 9 -34 c14
-46 19 -35 28 61 1 4 8 5 17 1 12 -4 13 -7 3 -14 -19 -11 -3 -23 18 -14 10 4
30 7 45 6 22 -2 26 1 21 18 -4 15 -1 21 11 21 10 0 16 -8 16 -21z m115 11
c-33 -5 -63 -5 -67 -1 -5 4 22 7 60 8 l67 1 -60 -8z m125 -5 c0 -3 -2 -5 -5
-5 -3 0 -5 2 -5 5 0 3 2 5 5 5 3 0 5 -2 5 -5z"/>
<path d="M2800 2460 c0 -7 3 -10 7 -7 3 4 3 10 0 14 -4 3 -7 0 -7 -7z"/>
<path d="M3649 2780 c0 -3 0 -149 0 -325 l0 -320 302 -3 303 -2 55 27 c88 45
251 219 251 268 0 4 6 21 14 38 37 82 87 299 73 313 -5 6 -997 9 -998 4z m595
-286 c21 -8 20 -21 -1 -43 -35 -35 -84 -46 -208 -46 l-120 0 -3 48 -3 47 160
0 c87 0 166 -3 175 -6z"/>
<path d="M720 1483 l0 -243 58 0 58 0 -4 95 -4 95 181 0 181 0 0 50 0 50 -181
0 -180 0 3 43 3 42 205 2 205 2 0 51 0 51 -263 2 -262 2 0 -242z"/>
<path d="M1353 1712 c-21 -16 -53 -78 -53 -102 0 -6 38 -10 100 -10 l100 0 0
65 0 65 -62 0 c-44 0 -70 -6 -85 -18z"/>
<path d="M1550 1665 l0 -65 95 0 95 0 0 65 0 65 -95 0 -95 0 0 -65z"/>
<path d="M1800 1665 l0 -65 95 0 c105 0 107 2 81 64 -20 49 -51 66 -118 66
l-58 0 0 -65z"/>
<path d="M2084 1721 c-2 -2 -4 -112 -4 -243 l0 -238 61 0 60 0 -2 93 -2 92
149 0 149 0 3 -92 3 -93 54 0 55 0 0 88 c0 61 -4 94 -14 108 -13 16 -13 22 0
42 39 60 23 177 -29 216 -26 19 -45 21 -254 26 -123 3 -227 3 -229 1z m414
-143 c4 -48 -3 -50 -173 -46 l-130 3 -3 28 c-7 57 -6 58 155 55 l148 -3 3 -37z"/>
<path d="M3390 1725 c0 0 -1 -109 -3 -243 l-2 -242 60 0 60 0 -3 190 -3 190
140 0 c183 0 171 15 171 -206 l0 -174 58 0 57 0 -3 183 c-5 294 0 290 -315
297 -119 3 -217 5 -217 5z"/>
<path d="M4737 1723 l-198 -3 3 -53 3 -52 53 3 52 4 0 -191 0 -191 60 0 60 0
0 190 0 191 108 -3 107 -3 0 55 c0 52 -1 55 -25 55 -14 1 -114 -1 -223 -2z"/>
<path d="M2680 1670 l0 -50 55 0 55 0 0 -190 0 -190 60 0 60 0 0 191 0 191
103 -4 102 -3 3 53 3 52 -220 0 -221 0 0 -50z"/>
<path d="M3180 1480 l0 -240 58 0 58 0 0 240 -1 240 -57 0 -58 0 0 -240z"/>
<path d="M4010 1480 l0 -240 234 0 c129 0 237 3 239 8 3 4 3 28 0 55 l-6 47
-178 0 -179 0 0 40 0 40 125 0 125 0 0 50 0 50 -126 0 -125 0 3 43 3 42 178
-2 177 -2 0 54 0 55 -235 0 -235 0 0 -240z"/>
<path d="M1304 1541 c-2 -2 -4 -31 -4 -63 l0 -58 100 0 101 0 -3 61 -3 62 -93
1 c-52 1 -96 -1 -98 -3z"/>
<path d="M1800 1480 l0 -60 95 0 95 0 0 60 0 60 -95 0 -95 0 0 -60z"/>
<path d="M1300 1342 c0 -10 12 -37 27 -60 l27 -42 73 0 73 0 0 60 0 60 -100 0
c-90 0 -100 -2 -100 -18z"/>
<path d="M1550 1300 l0 -60 95 0 95 0 0 60 0 60 -95 0 -95 0 0 -60z"/>
<path d="M1800 1300 l0 -61 72 3 72 3 23 40 c40 71 36 75 -72 75 l-95 0 0 -60z"/>
</g>
</svg>
