<?xml version="1.0" standalone="no"?>
<!DOCTYPE svg PUBLIC "-//W3C//DTD SVG 20010904//EN"
 "http://www.w3.org/TR/2001/REC-SVG-20010904/DTD/svg10.dtd">
<svg version="1.0" xmlns="http://www.w3.org/2000/svg"
 width="588.000000pt" height="306.000000pt" viewBox="0 0 588.000000 306.000000"
 preserveAspectRatio="xMidYMid meet">
<g transform="translate(0.000000,306.000000) scale(0.100000,-0.100000)"
fill="#ffffff" stroke="none">
<path d="M2360 1973 c-58 -10 -119 -35 -143 -61 -58 -60 -61 -81 -65 -404 l-4
-298 41 0 41 0 0 294 c0 330 1 334 80 380 52 31 247 31 305 0 78 -41 80 -50
83 -381 l3 -293 37 0 38 0 -3 203 c-7 462 -8 470 -95 521 -67 38 -214 56 -318
39z"/>
<path d="M4000 1967 c-155 -44 -213 -148 -214 -382 -1 -169 16 -228 89 -300
103 -104 342 -121 493 -35 58 34 60 38 33 71 l-18 22 -30 -21 c-60 -42 -113
-57 -213 -57 -187 0 -268 70 -286 246 l-6 64 293 0 294 0 -4 88 c-9 229 -82
309 -286 314 -59 2 -119 -3 -145 -10z m235 -68 c78 -22 125 -103 125 -213 l0
-46 -255 0 c-202 0 -255 3 -255 13 0 30 32 133 51 163 49 80 205 119 334 83z"/>
<path d="M4709 1966 c-159 -34 -179 -87 -179 -493 l0 -263 40 0 39 0 3 304 3
304 25 27 c44 47 77 58 177 59 l93 1 0 38 0 37 -72 -1 c-40 0 -98 -6 -129 -13z"/>
<path d="M1230 1618 c0 -472 -3 -480 -189 -497 l-75 -6 -2 -32 -2 -33 67 0
c86 0 162 23 206 61 60 53 64 84 65 493 l1 361 -35 3 -36 3 0 -353z"/>
<path d="M1420 1683 c0 -298 4 -336 43 -394 72 -109 399 -129 511 -30 57 50
61 72 64 404 l4 308 -38 -3 -38 -3 3 -260 c3 -286 -4 -343 -47 -388 -54 -56
-247 -71 -339 -26 -86 43 -88 49 -91 387 l-3 292 -35 0 -34 0 0 -287z"/>
<path d="M2912 1962 c-9 -3 -12 -94 -12 -378 l0 -374 35 0 35 0 0 374 0 374
-23 4 c-12 2 -28 3 -35 0z"/>
<path d="M3093 1585 l1 -375 40 0 39 0 -7 129 -7 129 193 4 c209 4 241 11 295
70 86 92 71 310 -26 375 -55 37 -96 43 -318 43 l-212 0 2 -375z m454 286 c105
-48 114 -241 14 -303 -33 -21 -49 -23 -217 -26 l-181 -4 0 176 1 176 171 0
c145 0 176 -3 212 -19z"/>
<path d="M4722 1294 c-44 -31 -22 -84 35 -84 50 0 69 44 33 80 -24 24 -38 25
-68 4z m5 -51 c-3 -10 -5 -4 -5 12 0 17 2 24 5 18 2 -7 2 -21 0 -30z m33 22
c0 -3 -2 -5 -5 -5 -3 0 -5 2 -5 5 0 3 2 5 5 5 3 0 5 -2 5 -5z m27 -17 c-3 -8
-6 -5 -6 6 -1 11 2 17 5 13 3 -3 4 -12 1 -19z m-22 -18 c3 -5 1 -10 -4 -10 -6
0 -11 5 -11 10 0 6 2 10 4 10 3 0 8 -4 11 -10z"/>
<path d="M2900 1020 c0 -90 3 -110 15 -110 11 0 15 18 17 81 l3 80 55 -78 c76
-107 85 -104 84 26 0 133 -22 156 -26 29 l-3 -83 -59 83 c-80 110 -86 108 -86
-28z"/>
<path d="M3127 1124 c-4 -4 -7 -54 -7 -111 l0 -103 75 0 c60 0 75 3 75 15 0
12 -13 15 -60 15 l-60 0 0 35 0 35 55 0 c42 0 55 3 55 15 0 12 -13 15 -55 15
-54 0 -55 0 -55 30 l0 30 61 0 c44 0 60 3 57 13 -5 13 -129 23 -141 11z"/>
<path d="M3297 1123 c-16 -15 -5 -23 33 -23 l40 0 0 -95 c0 -78 3 -95 15 -95
12 0 15 17 15 95 l0 95 40 0 c29 0 40 4 40 15 0 16 -168 23 -183 8z"/>
<path d="M3500 1123 c0 -5 15 -53 33 -108 40 -125 53 -128 86 -20 13 44 27 73
30 65 3 -8 15 -44 26 -80 30 -89 42 -84 81 35 38 114 39 115 21 115 -8 0 -23
-31 -37 -75 -13 -41 -26 -75 -29 -75 -4 0 -17 32 -31 72 -32 93 -42 94 -70 3
-13 -41 -26 -75 -30 -75 -4 0 -17 34 -30 75 -14 44 -29 75 -37 75 -7 0 -13 -3
-13 -7z"/>
<path d="M3848 1114 c-36 -19 -53 -78 -38 -134 30 -110 194 -93 207 21 12 103
-78 163 -169 113z m122 -34 c51 -51 13 -140 -59 -140 -46 0 -81 35 -81 80 0
69 91 109 140 60z"/>
<path d="M4060 1018 c0 -89 3 -108 15 -108 11 0 15 12 15 45 0 41 2 45 25 45
19 0 32 -11 53 -45 15 -25 33 -45 39 -45 18 0 16 10 -8 50 l-21 34 21 14 c25
17 30 82 8 101 -8 6 -44 12 -80 13 l-67 3 0 -107z m128 70 c33 -33 1 -68 -62
-68 -35 0 -36 1 -36 40 l0 40 43 0 c24 0 48 -5 55 -12z"/>
<path d="M4270 1030 c0 -55 0 -103 0 -107 0 -5 6 -8 13 -8 7 0 11 11 9 30 -2
22 4 37 20 52 l23 22 35 -54 c19 -30 41 -55 48 -55 19 0 15 11 -23 67 -43 64
-43 72 -5 108 17 16 30 32 30 37 0 20 -24 4 -75 -49 l-55 -58 0 58 c0 31 -4
57 -10 57 -6 0 -10 -40 -10 -100z"/>
<path d="M4482 1114 c-25 -17 -30 -65 -9 -82 7 -7 37 -16 66 -23 48 -10 52
-13 49 -37 -3 -25 -6 -27 -53 -27 -27 1 -56 3 -64 5 -26 9 -23 -20 4 -30 81
-31 149 -1 143 61 -3 34 -23 47 -101 64 -22 4 -28 11 -25 28 3 20 8 22 61 21
39 -1 57 2 57 11 0 27 -93 34 -128 9z"/>
</g>
</svg>
