<?xml version="1.0" standalone="no"?>
<!DOCTYPE svg PUBLIC "-//W3C//DTD SVG 20010904//EN"
 "http://www.w3.org/TR/2001/REC-SVG-20010904/DTD/svg10.dtd">
<svg version="1.0" xmlns="http://www.w3.org/2000/svg"
 width="320.000000pt" height="320.000000pt" viewBox="0 0 320.000000 320.000000"
 preserveAspectRatio="xMidYMid meet">
<g transform="translate(0.000000,320.000000) scale(0.100000,-0.100000)"
fill="#000000" stroke="none">
<path d="M1095 1952 c-138 -72 -164 -96 -151 -145 9 -37 41 -67 71 -67 34 0
301 134 309 155 22 58 -17 126 -71 124 -15 0 -86 -31 -158 -67z m208 -7 c7
-21 7 -30 -2 -33 -6 -2 -9 -7 -6 -11 2 -5 -15 -16 -38 -27 -23 -10 -54 -26
-69 -36 -29 -20 -42 -23 -33 -8 3 6 -1 7 -9 4 -9 -3 -14 -10 -11 -14 3 -5 -10
-14 -29 -21 -19 -7 -32 -17 -29 -22 3 -6 1 -7 -5 -3 -7 4 -20 3 -29 -3 -13 -7
-21 -5 -30 7 -8 11 -12 12 -13 5 0 -7 -5 -13 -11 -13 -6 0 -9 7 -6 14 4 10 1
13 -8 10 -18 -7 -14 27 5 43 11 9 12 12 2 13 -7 0 -10 5 -7 11 4 6 14 8 22 5
8 -3 12 -2 9 3 -3 4 19 19 49 33 30 14 52 28 49 31 -3 3 9 4 27 2 25 -3 30 -2
19 5 -12 8 -10 10 10 10 20 0 22 2 10 11 -13 9 -13 10 0 8 8 -1 31 5 50 14 42
19 68 7 83 -38z"/>
<path d="M1023 1865 c0 -8 4 -12 9 -9 5 3 6 10 3 15 -9 13 -12 11 -12 -6z"/>
<path d="M1090 1826 c0 -2 7 -7 16 -10 8 -3 12 -2 9 4 -6 10 -25 14 -25 6z"/>
<path d="M432 1961 c-75 -28 -114 -55 -171 -116 -154 -169 -126 -433 62 -575
72 -54 137 -75 237 -75 75 0 93 4 156 34 212 98 295 357 179 556 -36 60 -116
132 -182 162 -77 36 -205 42 -281 14z m229 -31 c158 -50 255 -184 253 -351 -3
-265 -286 -435 -523 -315 -217 110 -263 405 -90 577 99 100 226 131 360 89z"/>
<path d="M352 1792 c-37 -2 -52 -7 -52 -17 0 -41 44 -232 71 -312 l32 -93 62
0 61 0 34 157 c20 89 40 158 48 161 7 2 10 -2 6 -12 -3 -8 6 -66 20 -128 14
-62 28 -128 31 -145 7 -33 7 -33 66 -33 l60 0 19 44 c10 24 28 79 40 121 19
67 20 84 10 124 -12 48 -62 142 -66 126 -2 -6 -12 -64 -24 -130 -30 -180 -31
-181 -46 -100 -8 39 -26 109 -40 158 l-27 87 -57 0 -56 0 -28 -85 c-16 -47
-34 -118 -41 -158 -7 -40 -15 -65 -18 -57 -4 8 -17 78 -29 155 l-23 140 -53
-3z m33 -71 c3 -20 10 -55 16 -79 5 -24 7 -47 4 -53 -4 -5 -2 -9 4 -9 6 0 8
-6 5 -14 -3 -8 -1 -17 5 -21 6 -3 9 -18 6 -33 -3 -15 -2 -21 1 -14 5 10 9 9
19 -5 10 -14 16 -15 27 -5 8 6 18 9 21 5 4 -3 7 4 7 18 0 28 6 83 10 87 1 1 4
7 5 12 1 6 3 11 5 13 1 1 3 11 4 22 4 30 27 98 39 113 5 6 22 12 37 12 15 0
32 -6 37 -12 14 -19 37 -100 34 -122 -2 -10 2 -15 8 -12 6 4 9 -6 9 -26 -2
-58 2 -79 12 -73 6 3 10 -3 10 -14 0 -12 2 -21 4 -21 2 0 12 -3 20 -6 24 -9
54 70 57 148 0 10 4 20 9 23 5 3 7 12 4 19 -3 8 -1 17 5 20 30 19 29 -142 -1
-198 -7 -11 -12 -29 -13 -38 -3 -31 -34 -56 -68 -55 -24 2 -32 7 -31 20 1 9
-2 17 -7 17 -5 0 -9 12 -9 28 0 15 -4 34 -10 42 -6 9 -5 20 3 29 8 10 8 13 1
8 -11 -6 -15 4 -28 80 -7 37 -31 78 -45 78 -20 0 -49 -54 -50 -91 -1 -17 -4
-34 -8 -38 -4 -4 -9 -24 -10 -44 -1 -20 -7 -38 -13 -40 -5 -2 -7 -14 -4 -28 8
-32 -20 -59 -62 -59 -30 -1 -34 3 -50 44 -9 25 -18 54 -19 66 -2 11 -8 38 -14
60 -26 97 -42 176 -36 184 13 22 45 -2 50 -38z"/>
<path d="M1580 1605 l0 -165 25 0 c25 0 25 1 25 85 0 80 1 85 26 101 61 41
102 -18 90 -133 -4 -51 -4 -53 20 -53 23 0 24 2 24 80 0 43 -5 90 -11 103 -21
47 -89 61 -130 28 l-25 -19 4 69 c4 69 4 69 -22 69 l-26 0 0 -165z"/>
<path d="M2921 1713 c1 -33 8 -65 16 -75 12 -13 12 -17 1 -24 -7 -4 -10 -4 -6
0 4 5 -5 19 -20 33 -23 21 -34 24 -70 20 -51 -6 -77 -27 -93 -74 -25 -78 21
-153 94 -153 28 0 48 7 64 22 l23 21 0 -21 c0 -15 6 -22 20 -22 19 0 20 7 20
165 l0 165 -26 0 c-25 0 -25 -2 -23 -57z m-23 -89 c18 -12 22 -25 22 -66 0
-60 -19 -88 -62 -88 -43 0 -68 32 -68 85 0 73 53 108 108 69z m49 -129 c0 -8
-4 -12 -9 -9 -5 3 -6 10 -3 15 9 13 12 11 12 -6z"/>
<path d="M2993 1754 c-3 -8 -1 -20 5 -26 16 -16 42 -2 42 22 0 24 -38 28 -47
4z m29 -3 c8 11 9 11 6 1 -4 -16 -22 -18 -24 -2 -2 7 -1 6 3 -1 4 -8 8 -7 15
2z"/>
<path d="M1945 1749 c-68 -16 -125 -86 -125 -153 0 -41 30 -105 60 -126 35
-25 95 -34 165 -25 l55 6 0 80 0 79 -54 0 c-38 0 -56 -4 -59 -15 -8 -19 7 -27
40 -23 26 3 28 1 29 -42 1 -51 -7 -60 -54 -60 -83 0 -132 50 -132 134 0 36 6
52 29 78 28 32 32 33 105 33 50 0 77 4 80 12 3 7 2 14 -2 17 -17 10 -101 14
-137 5z"/>
<path d="M1246 1707 c-9 -7 -16 -19 -14 -27 2 -10 -3 -14 -14 -12 -10 2 -18
-2 -18 -8 0 -5 0 -13 0 -17 0 -5 8 -8 17 -8 14 0 17 -13 18 -81 1 -97 11 -114
66 -114 46 0 56 27 12 32 -28 3 -28 4 -31 85 l-3 83 31 -6 c26 -6 30 -4 30 16
0 20 -4 22 -30 17 -28 -6 -30 -4 -30 23 0 33 -7 37 -34 17z m11 -69 c-3 -8 -6
-5 -6 6 -1 11 2 17 5 13 3 -3 4 -12 1 -19z"/>
<path d="M1018 1663 c-10 -2 -18 -11 -18 -18 0 -11 11 -13 48 -8 37 4 52 2 65
-12 30 -29 20 -42 -35 -47 -40 -4 -57 -11 -75 -32 -27 -32 -29 -53 -7 -84 12
-17 25 -22 58 -22 26 0 48 6 56 15 13 15 35 11 25 -6 -4 -5 4 -9 17 -9 23 0
23 1 18 96 -4 85 -8 98 -29 115 -22 18 -79 24 -123 12z m112 -130 c0 -35 -27
-63 -61 -63 -57 0 -53 72 4 83 51 10 57 8 57 -20z"/>
<path d="M1412 1650 c-69 -43 -76 -145 -12 -190 37 -27 133 -26 138 1 3 14 -4
16 -42 12 -38 -5 -48 -2 -70 20 -32 32 -35 84 -7 118 15 19 29 23 67 24 49 0
73 13 51 27 -23 15 -92 8 -125 -12z"/>
<path d="M2142 1577 c2 -76 7 -99 22 -116 25 -28 84 -28 120 0 l26 20 0 -20
c0 -13 6 -21 18 -21 15 0 17 11 15 112 -2 106 -3 113 -22 116 -20 3 -21 -1
-21 -82 0 -76 -2 -86 -22 -100 -12 -9 -32 -16 -44 -16 -37 0 -49 27 -50 114
-1 76 -3 81 -24 84 -22 4 -22 2 -18 -91z"/>
<path d="M2417 1659 c-28 -17 -11 -27 38 -21 49 5 75 -8 75 -39 0 -15 -7 -19
-37 -19 -44 0 -98 -30 -108 -59 -6 -21 9 -60 29 -73 20 -13 83 -9 96 7 7 8 17
15 22 15 6 0 8 -7 4 -15 -4 -11 2 -15 20 -15 20 0 25 4 20 16 -3 9 -6 49 -6
90 0 66 -3 78 -25 99 -18 19 -35 25 -67 25 -24 0 -51 -5 -61 -11z m113 -134
c0 -39 -24 -58 -68 -53 -49 5 -40 71 11 81 53 10 57 8 57 -28z"/>
<path d="M2620 1555 l0 -115 25 0 c25 0 25 1 25 78 0 83 14 112 53 112 10 0
17 8 17 20 0 28 -34 26 -57 -3 -10 -13 -25 -27 -33 -31 -12 -7 -13 -6 -2 5 19
21 15 49 -8 49 -19 0 -20 -7 -20 -115z"/>
</g>
</svg>
