<?xml version="1.0" standalone="no"?>
<!DOCTYPE svg PUBLIC "-//W3C//DTD SVG 20010904//EN"
 "http://www.w3.org/TR/2001/REC-SVG-20010904/DTD/svg10.dtd">
<svg version="1.0" xmlns="http://www.w3.org/2000/svg"
 width="1800.000000pt" height="1179.000000pt" viewBox="0 0 1800.000000 1179.000000"
 preserveAspectRatio="xMidYMid meet">
<g transform="translate(0.000000,1179.000000) scale(0.100000,-0.100000)"
fill="#000000" stroke="none">
<path d="M6240 10903 c-105 -10 -219 -39 -295 -73 -11 -5 -46 -21 -79 -35 -92
-41 -224 -133 -301 -210 -69 -69 -157 -177 -183 -223 -40 -71 -70 -134 -91
-187 -12 -33 -27 -69 -31 -80 -19 -43 -32 -147 -39 -305 -4 -91 -7 -1324 -6
-2740 2 -2409 3 -2580 20 -2660 9 -47 26 -112 37 -145 30 -94 112 -255 166
-326 107 -141 267 -272 422 -346 145 -68 163 -74 338 -104 110 -19 180 -19
2775 -16 2407 3 2669 5 2737 19 135 29 175 40 185 49 5 5 16 9 25 9 31 0 222
107 300 168 125 98 252 256 327 407 34 68 73 176 73 203 0 10 4 22 9 28 28 30
34 215 35 1037 1 460 -2 837 -5 837 -3 0 -27 -7 -53 -16 -64 -22 -176 -14
-237 16 -118 59 -175 201 -138 345 5 22 16 85 24 140 14 100 35 208 53 275 32
122 170 251 306 285 30 8 41 16 46 35 3 14 5 590 5 1280 -1 1241 -5 1392 -35
1465 -4 11 -18 54 -31 95 -92 300 -362 586 -654 694 -27 10 -63 24 -80 31 -16
8 -66 22 -110 32 -76 17 -208 18 -2780 19 -1485 0 -2716 -1 -2735 -3z m4631
-1996 c49 -17 112 -74 138 -124 32 -64 29 -172 -13 -398 -34 -185 -48 -263
-56 -315 -8 -55 -33 -202 -50 -295 -5 -27 -18 -106 -30 -175 -12 -69 -26 -145
-31 -170 -25 -129 -30 -162 -39 -236 -5 -45 -14 -94 -20 -110 -6 -15 -15 -59
-21 -96 -5 -37 -14 -101 -20 -140 -5 -40 -11 -87 -13 -104 -2 -17 -6 -36 -10
-42 -3 -5 -10 -36 -15 -69 -6 -32 -14 -80 -19 -108 -6 -27 -17 -95 -26 -150
-21 -141 -23 -151 -41 -240 -9 -44 -20 -114 -26 -155 -11 -90 -34 -172 -60
-221 -10 -20 -19 -44 -19 -53 0 -9 -11 -21 -25 -26 -14 -5 -25 -16 -25 -24 0
-16 -64 -70 -115 -97 -17 -9 -65 -23 -106 -30 -65 -10 -81 -10 -133 5 -80 23
-144 89 -173 175 -18 56 -19 67 -7 142 7 45 18 96 23 113 5 17 12 58 16 91 3
33 10 76 15 95 5 19 14 69 20 110 5 41 16 111 24 155 8 44 19 112 26 150 6 39
17 102 25 140 14 68 40 225 49 295 2 19 12 69 20 110 9 41 23 118 31 170 8 52
17 101 20 110 2 8 9 44 14 80 6 36 17 106 26 155 9 50 20 119 25 154 5 36 14
78 19 95 6 17 15 69 20 116 6 47 18 121 27 165 8 44 19 107 24 140 6 33 14 78
20 100 6 22 14 74 20 115 5 41 15 98 22 125 14 52 65 147 83 154 5 2 25 19 44
38 89 89 225 121 342 80z m-1193 -328 c53 -14 126 -62 159 -108 57 -76 63
-145 28 -336 -37 -204 -45 -253 -55 -320 -5 -38 -14 -86 -19 -105 -10 -40 -38
-192 -47 -265 -4 -27 -15 -93 -26 -145 -11 -52 -23 -122 -28 -155 -5 -33 -18
-114 -30 -180 -28 -159 -48 -271 -65 -380 -8 -49 -22 -124 -30 -165 -8 -41
-22 -118 -30 -170 -7 -52 -21 -131 -30 -175 -8 -44 -22 -120 -30 -170 -8 -49
-21 -128 -30 -175 -9 -47 -22 -123 -30 -170 -14 -83 -31 -182 -60 -345 -7 -44
-21 -123 -29 -175 -9 -52 -23 -131 -31 -175 -9 -44 -20 -109 -26 -145 -35
-239 -63 -313 -149 -401 -63 -64 -131 -100 -226 -120 -57 -12 -67 -11 -135 11
-114 36 -180 113 -195 228 -5 42 15 198 45 357 28 143 34 177 47 255 28 180
39 239 47 246 4 4 7 24 7 45 0 36 12 110 40 249 6 30 17 96 25 145 8 50 21
128 30 175 28 149 46 253 60 345 7 50 21 124 30 165 9 41 20 107 25 145 12 93
29 187 45 260 8 33 17 83 21 110 6 51 34 216 60 360 8 44 21 118 29 165 8 47
21 123 30 170 9 47 22 126 30 175 7 50 21 126 29 170 9 44 21 112 26 150 25
171 56 250 127 326 72 77 153 121 238 129 39 4 71 8 73 9 2 0 24 -4 50 -10z
m2202 -327 c49 -22 95 -61 124 -106 21 -32 48 -138 41 -158 -3 -7 -12 -62 -20
-123 -9 -60 -22 -144 -31 -185 -8 -41 -21 -115 -29 -165 -7 -49 -21 -128 -30
-175 -9 -47 -21 -114 -26 -150 -4 -36 -11 -76 -15 -90 -3 -14 -12 -63 -20
-110 -8 -47 -21 -121 -29 -165 -8 -44 -19 -113 -25 -154 -5 -40 -14 -88 -19
-105 -5 -17 -12 -51 -16 -76 -8 -60 -63 -154 -122 -212 -26 -25 -79 -61 -118
-79 -60 -28 -81 -33 -145 -32 -44 0 -87 6 -105 14 -99 48 -140 93 -171 187
-15 47 -15 63 -5 130 28 178 41 251 56 327 8 44 22 121 30 170 9 50 22 126 29
170 8 44 22 123 31 175 16 94 32 190 60 345 8 44 19 116 25 160 19 139 56 226
125 296 66 68 78 77 121 94 21 9 48 20 59 25 56 25 159 22 225 -8z m-3547
-986 c98 -26 154 -69 196 -153 23 -47 28 -160 10 -243 -14 -67 -38 -205 -49
-290 -6 -41 -13 -82 -16 -90 -8 -22 -34 -164 -44 -245 -5 -38 -13 -92 -19
-120 -18 -84 -31 -156 -46 -250 -7 -49 -21 -128 -30 -175 -9 -47 -23 -123 -30
-170 -8 -47 -21 -125 -30 -175 -31 -171 -45 -250 -55 -325 -6 -41 -13 -82 -16
-90 -8 -21 -33 -161 -44 -243 -5 -38 -14 -92 -20 -120 -20 -100 -31 -162 -40
-224 -32 -221 -63 -301 -150 -390 -30 -30 -78 -65 -118 -84 -60 -29 -76 -33
-152 -33 -73 0 -92 4 -136 26 -55 29 -94 69 -123 127 -32 63 -33 115 -6 271
14 80 30 177 36 215 5 39 14 84 19 100 5 17 11 55 15 85 3 30 10 75 15 100 19
94 32 168 46 255 7 50 20 124 29 165 8 41 20 107 25 145 5 39 14 93 20 120 14
72 29 157 45 260 8 50 21 126 30 170 16 84 35 194 59 343 8 48 22 125 31 172
9 47 21 114 26 150 5 36 13 88 19 115 19 92 31 159 40 220 12 76 30 135 47
156 7 8 13 20 13 25 0 20 102 123 151 154 30 18 76 35 107 40 30 5 57 12 60
15 8 8 27 6 85 -9z m-2324 -657 c74 -24 121 -51 156 -92 45 -52 69 -132 62
-201 -9 -80 -36 -257 -42 -266 -2 -4 -9 -36 -15 -71 -23 -145 -31 -173 -64
-232 -45 -81 -95 -127 -186 -173 -67 -35 -81 -38 -155 -38 -69 0 -87 4 -131
28 -71 38 -98 66 -129 132 -25 53 -27 65 -22 143 3 47 13 122 21 166 9 44 20
109 25 145 26 172 61 259 140 343 45 48 89 76 166 103 68 25 123 29 174 13z
m1130 -6 c42 -13 70 -31 112 -73 48 -48 58 -64 72 -123 14 -55 16 -79 7 -125
-5 -31 -15 -86 -21 -122 -6 -36 -17 -101 -25 -145 -8 -44 -19 -107 -24 -140
-5 -33 -19 -109 -30 -170 -12 -60 -25 -137 -30 -170 -5 -33 -18 -109 -29 -170
-11 -60 -29 -164 -40 -230 -43 -245 -63 -350 -71 -360 -4 -5 -11 -21 -15 -35
-10 -33 -68 -108 -110 -142 -72 -60 -133 -82 -233 -86 -84 -4 -98 -1 -145 22
-101 50 -165 167 -152 281 3 33 10 74 15 90 8 27 33 170 75 435 8 47 21 126
30 175 39 214 46 255 60 340 8 50 22 126 30 170 8 44 20 116 26 160 23 181 83
286 206 365 34 22 81 44 103 49 23 5 44 12 47 15 12 12 87 6 142 -11z"/>
<path d="M7625 3071 c-47 -20 -46 0 -43 -718 3 -656 4 -679 23 -714 62 -112
132 -149 302 -157 l112 -5 6 25 c3 13 5 49 3 79 l-3 54 -70 6 c-89 8 -122 23
-146 71 -18 36 -19 66 -19 682 l0 646 -24 15 c-28 19 -113 28 -141 16z"/>
<path d="M5705 2583 c-61 -12 -121 -39 -164 -73 -49 -39 -71 -39 -71 0 0 44
-82 77 -147 59 -77 -21 -73 31 -70 -801 l2 -743 105 0 105 0 5 275 c3 151 7
276 8 278 8 9 32 -2 52 -23 27 -29 64 -49 130 -72 89 -31 299 -11 351 33 8 8
20 14 26 14 16 0 79 74 101 117 52 104 57 135 57 378 0 214 -2 235 -23 300
-29 85 -38 103 -78 147 -45 51 -111 86 -191 103 -64 13 -152 17 -198 8z m99
-179 c50 -13 69 -24 107 -63 64 -67 79 -126 79 -312 0 -149 -13 -222 -48 -278
-84 -134 -294 -151 -394 -32 -50 60 -68 122 -75 256 -7 144 6 238 43 312 42
82 90 111 218 132 4 0 36 -6 70 -15z"/>
<path d="M6665 2571 c-87 -21 -153 -52 -194 -91 -29 -28 -41 -60 -23 -60 4 0
29 -20 57 -45 27 -25 54 -45 58 -45 5 0 28 14 53 30 68 47 115 60 223 60 85 0
102 -4 151 -28 60 -30 94 -72 111 -136 12 -43 7 -122 -7 -136 -5 -4 -99 -10
-209 -13 -221 -6 -275 -14 -353 -53 -96 -48 -143 -127 -150 -251 -4 -76 -2
-87 26 -145 37 -76 55 -98 107 -130 66 -41 142 -58 262 -58 131 0 207 22 277
78 34 27 53 17 58 -31 l3 -32 89 -3 c49 -2 93 1 98 6 5 5 9 192 8 422 0 345
-3 419 -15 443 -8 17 -15 35 -15 42 0 25 -85 107 -139 134 -113 58 -332 77
-476 42z m425 -601 c12 -7 14 -27 12 -95 -4 -121 -26 -162 -117 -221 -42 -27
-251 -28 -307 -1 -60 29 -91 77 -92 146 -1 49 4 64 28 95 29 39 73 63 136 76
52 11 323 11 340 0z"/>
<path d="M8530 2583 c-50 -8 -156 -46 -185 -67 -147 -101 -194 -203 -202 -436
-8 -217 15 -336 83 -430 90 -124 214 -180 396 -180 255 0 413 123 463 359 20
98 20 307 -1 402 -42 185 -149 296 -332 343 -59 15 -162 19 -222 9z m177 -185
c52 -13 114 -65 142 -118 51 -98 55 -393 6 -486 -8 -16 -15 -33 -15 -39 -1
-18 -81 -77 -131 -96 -133 -51 -265 6 -327 139 -25 55 -26 64 -27 237 l0 180
37 65 c67 118 168 156 315 118z"/>
<path d="M9276 1203 c-3 -3 -6 -80 -6 -170 0 -156 1 -163 20 -163 23 0 22 -5
25 125 3 123 2 115 20 115 17 0 38 -20 100 -93 102 -122 128 -147 151 -147 22
0 23 3 26 95 5 147 -1 235 -17 235 -20 0 -25 -24 -25 -135 0 -116 -11 -133
-51 -83 -27 34 -21 27 -114 133 -38 44 -69 80 -70 81 -2 6 -54 12 -59 7z"/>
<path d="M9780 1202 c-19 -2 -38 -9 -42 -15 -8 -13 -10 -274 -2 -299 5 -16 20
-18 141 -18 103 0 134 3 131 13 -3 8 -38 14 -109 17 -57 3 -110 9 -116 13 -7
5 -13 28 -13 52 0 24 6 47 13 52 6 4 57 8 112 8 86 1 100 4 103 18 3 16 -7 17
-97 16 -114 -2 -131 5 -131 57 0 46 20 54 139 54 83 0 101 3 101 15 0 8 -3 15
-7 15 -56 3 -196 4 -223 2z"/>
<path d="M10110 1189 c0 -13 13 -18 60 -21 33 -2 63 -8 67 -12 4 -4 8 -64 9
-134 1 -153 0 -152 18 -152 22 0 26 24 26 160 0 144 -3 140 81 140 40 0 49 3
49 18 0 15 -14 17 -155 17 -137 0 -155 -2 -155 -16z"/>
<path d="M11017 1188 c-8 -13 -29 -69 -47 -125 -45 -136 -64 -138 -106 -8 -35
108 -55 145 -79 145 -16 0 -28 -10 -39 -34 -9 -19 -16 -38 -16 -44 0 -5 -7
-23 -15 -38 -8 -16 -15 -37 -15 -48 0 -10 -10 -34 -22 -54 l-21 -35 -19 23
c-10 12 -23 41 -29 63 -6 23 -14 49 -17 57 -3 8 -10 33 -16 54 -11 39 -38 67
-53 53 -8 -8 0 -38 45 -167 49 -141 59 -160 82 -160 15 0 25 11 36 38 8 20 19
46 24 57 5 11 19 50 31 88 15 48 27 67 39 67 21 0 33 -24 64 -120 33 -104 46
-130 67 -130 10 0 24 10 31 23 19 35 58 131 58 144 0 7 7 29 16 50 9 21 22 52
29 68 20 50 -2 76 -28 33z"/>
<path d="M11200 1188 c-58 -30 -84 -75 -85 -148 0 -110 56 -165 178 -177 123
-11 207 58 207 171 0 112 -58 166 -185 173 -59 4 -77 1 -115 -19z m165 -19
c77 -19 117 -110 85 -193 -15 -39 -86 -86 -131 -86 -61 0 -117 28 -145 71 -52
82 -15 181 76 207 47 14 64 14 115 1z"/>
<path d="M11643 1202 l-33 -3 0 -165 c0 -157 1 -164 20 -164 18 0 20 7 20 64
0 39 5 67 13 73 6 6 47 9 91 8 93 -4 107 -13 121 -88 7 -35 15 -52 25 -52 20
0 21 66 1 123 -14 39 -14 45 3 76 23 43 18 84 -14 108 -20 15 -46 19 -120 21
-52 1 -110 1 -127 -1z m207 -45 c20 -10 25 -20 23 -47 -2 -52 -23 -61 -128
-58 l-90 3 -3 49 c-2 32 1 52 10 57 21 14 160 10 188 -4z"/>
<path d="M12051 1196 c-11 -13 -15 -243 -4 -298 8 -49 33 -34 33 20 0 50 18
81 59 102 22 11 28 7 100 -69 61 -65 82 -81 105 -81 l28 0 -50 53 c-85 89
-122 132 -122 140 0 5 14 21 32 35 17 15 50 44 72 64 37 34 39 38 18 38 -20 0
-146 -89 -177 -125 -17 -20 -48 -27 -57 -13 -4 7 -8 41 -8 75 0 64 -9 83 -29
59z"/>
<path d="M12510 1188 c-68 -47 -61 -115 16 -148 25 -11 61 -20 80 -20 38 0 98
-22 109 -40 13 -21 -5 -59 -35 -75 -60 -31 -152 -8 -180 44 -13 25 -50 28 -50
5 0 -26 67 -83 106 -90 132 -25 245 55 196 139 -18 30 -18 30 -123 51 -97 20
-107 24 -114 47 -11 33 4 58 41 68 49 14 104 3 136 -27 33 -30 65 -25 48 8
-33 61 -164 82 -230 38z"/>
</g>
</svg>
