<?xml version="1.0" standalone="no"?>
<!DOCTYPE svg PUBLIC "-//W3C//DTD SVG 20010904//EN"
 "http://www.w3.org/TR/2001/REC-SVG-20010904/DTD/svg10.dtd">
<svg version="1.0" xmlns="http://www.w3.org/2000/svg"
 width="514.000000pt" height="244.000000pt" viewBox="0 0 514.000000 244.000000"
 preserveAspectRatio="xMidYMid meet">
<g transform="translate(0.000000,244.000000) scale(0.100000,-0.100000)"
fill="#ffffff" stroke="none">
<path d="M3096 2295 c-177 -63 -180 -316 -4 -389 55 -23 107 -20 169 12 130
66 152 231 45 330 -64 59 -133 75 -210 47z"/>
<path d="M2380 2055 c-195 -45 -365 -209 -415 -400 -18 -69 -20 -182 -4 -257
38 -186 200 -357 388 -412 88 -26 241 -22 332 9 161 55 295 185 349 340 24 68
36 189 26 259 -7 43 -9 46 -29 39 -27 -10 -102 -10 -142 0 -29 7 -33 3 -107
-95 -74 -99 -76 -103 -62 -130 20 -38 17 -97 -6 -135 -80 -131 -272 -62 -255
92 l5 50 -61 44 -61 44 -21 -26 -22 -27 -72 55 c-40 31 -73 60 -73 66 0 18
105 149 116 145 28 -11 144 -101 144 -112 0 -6 -7 -17 -15 -24 -8 -7 -15 -16
-15 -20 0 -5 27 -28 61 -53 l61 -45 36 15 c24 10 51 13 79 9 l43 -6 75 101 76
100 -22 36 c-43 69 -42 165 1 225 11 15 20 29 20 32 0 9 -69 44 -129 65 -82
28 -215 35 -301 16z"/>
<path d="M415 600 c-77 -18 -152 -86 -173 -159 -42 -138 46 -286 182 -306 64
-10 146 10 190 47 l37 31 -31 32 -32 33 -35 -24 c-96 -65 -213 -1 -213 116 0
115 106 174 207 116 l43 -25 30 37 31 37 -28 22 c-46 37 -146 58 -208 43z"/>
<path d="M1850 600 c-154 -27 -236 -210 -158 -353 29 -52 103 -104 162 -112
64 -10 146 10 190 47 l37 31 -31 32 -32 33 -35 -24 c-26 -17 -50 -24 -85 -24
-41 0 -54 5 -85 33 -31 29 -37 41 -41 89 -10 127 96 196 205 134 l41 -24 31
38 30 38 -37 26 c-41 28 -134 46 -192 36z"/>
<path d="M730 371 l0 -231 53 0 53 0 -4 90 -4 90 96 0 96 0 0 -90 0 -90 50 0
50 0 0 230 0 230 -50 0 -50 0 0 -90 0 -90 -96 0 -96 0 3 88 4 87 -52 3 -53 3
0 -230z"/>
<path d="M1240 370 l0 -230 175 0 175 0 0 45 0 45 -125 0 -125 0 0 50 0 50
110 0 110 0 0 40 0 39 -107 3 -108 3 -3 48 -3 47 125 0 126 0 0 45 0 45 -175
0 -175 0 0 -230z"/>
<path d="M2160 370 l0 -230 50 0 50 0 0 73 c0 65 3 76 25 97 14 13 26 22 28
19 2 -2 34 -46 71 -96 l68 -93 59 0 c46 0 58 3 53 12 -5 7 -48 67 -97 132
l-88 119 90 91 c50 50 91 95 91 99 0 4 -26 7 -58 7 l-57 0 -93 -100 -92 -100
0 100 0 100 -50 0 -50 0 0 -230z"/>
<path d="M2800 368 l0 -228 50 0 50 0 0 69 0 68 74 5 c48 3 85 12 107 24 112
66 88 255 -36 279 -16 3 -78 7 -137 8 l-108 2 0 -227z m235 121 c27 -27 28
-64 3 -93 -19 -22 -33 -28 -80 -31 l-58 -4 0 76 0 75 60 -4 c34 -2 67 -11 75
-19z"/>
<path d="M3353 575 c-172 -86 -171 -332 2 -418 142 -70 324 22 350 176 9 52
-11 129 -47 178 -62 86 -201 115 -305 64z m178 -80 c45 -24 69 -71 69 -134 0
-49 -3 -57 -39 -92 -38 -38 -59 -45 -121 -40 -85 8 -134 114 -96 206 28 66
119 95 187 60z"/>
<path d="M3810 370 l0 -230 50 0 50 0 0 230 0 230 -50 0 -50 0 0 -230z"/>
<path d="M4039 590 c-1 -3 -2 -105 -2 -227 l-2 -223 47 0 47 0 3 146 3 146
110 -146 110 -146 42 0 43 0 0 229 0 230 -39 -1 c-21 0 -43 -3 -49 -7 -7 -4
-12 -57 -14 -138 l-3 -131 -105 138 -105 138 -42 -1 c-24 -1 -43 -4 -44 -7z"/>
<path d="M4530 550 l0 -50 70 0 70 0 0 -180 0 -180 50 0 50 0 0 180 0 180 70
0 70 0 0 50 0 50 -190 0 -190 0 0 -50z"/>
<path d="M4968 583 c5 -10 7 -23 5 -30 -2 -6 1 -14 6 -18 7 -4 11 5 11 24 0
16 6 32 13 34 6 3 -1 6 -16 6 -23 1 -26 -2 -19 -16z"/>
<path d="M5027 593 c-11 -10 -8 -53 3 -53 6 0 10 5 10 10 0 14 23 8 37 -10 10
-13 12 -10 13 17 0 36 -15 52 -25 25 -6 -16 -7 -16 -19 0 -7 10 -16 15 -19 11z"/>
</g>
</svg>
