<?xml version="1.0" standalone="no"?>
<!DOCTYPE svg PUBLIC "-//W3C//DTD SVG 20010904//EN"
 "http://www.w3.org/TR/2001/REC-SVG-20010904/DTD/svg10.dtd">
<svg version="1.0" xmlns="http://www.w3.org/2000/svg"
 width="512.000000pt" height="512.000000pt" viewBox="0 0 512.000000 512.000000"
 preserveAspectRatio="xMidYMid meet">
<g transform="translate(0.000000,512.000000) scale(0.100000,-0.100000)"
fill="#ffffff" stroke="none">
<path d="M2113 4505 c-70 -19 -222 -97 -252 -128 -34 -37 -24 -62 63 -156 87
-95 116 -150 151 -286 31 -124 74 -213 129 -271 55 -57 64 -56 126 19 143 172
270 225 515 215 l80 -3 13 40 c75 223 -188 494 -550 569 -94 19 -205 20 -275
1z m287 -329 c49 -16 51 -42 4 -83 -22 -20 -46 -33 -58 -31 -39 6 -85 106 -60
131 7 7 66 -2 114 -17z"/>
<path d="M1372 4176 c-219 -107 -300 -132 -397 -122 -148 15 -204 -57 -235
-307 -18 -144 -36 -208 -90 -327 -80 -175 -63 -241 66 -254 226 -23 266 -39
393 -159 184 -174 349 -275 402 -246 25 13 24 26 -12 138 -78 239 -34 367 163
482 167 99 304 225 337 312 54 143 -115 463 -291 551 -90 45 -117 39 -336 -68z
m255 -257 c57 -21 73 -47 73 -114 0 -78 -8 -89 -130 -175 -96 -68 -241 -212
-297 -296 -54 -80 -70 -81 -177 -10 -44 29 -93 61 -108 70 -37 22 -37 73 -3
215 31 126 32 127 103 142 96 19 182 49 297 102 165 75 196 84 242 66z"/>
<path d="M3155 3997 c-73 -25 -176 -101 -175 -132 0 -5 47 -37 103 -70 180
-106 252 -198 323 -415 53 -162 35 -354 -55 -587 -17 -42 -29 -79 -27 -81 7
-6 186 68 246 101 148 82 286 200 367 315 85 119 100 197 83 427 -9 116 -9
171 1 241 21 159 1 171 -321 191 -368 22 -500 25 -545 10z m538 -327 l27 0 0
-170 c0 -104 -4 -170 -10 -170 -10 0 -43 60 -55 100 -4 14 -22 67 -41 119 -42
113 -39 136 15 127 20 -3 48 -6 64 -6z"/>
<path d="M2715 3770 c-110 -15 -215 -60 -302 -128 -44 -35 -178 -216 -223
-302 l-13 -24 29 19 c184 122 406 237 519 271 160 47 365 4 528 -112 64 -46
65 -43 12 26 -146 190 -341 279 -550 250z"/>
<path d="M1943 3507 c-146 -139 -198 -182 -249 -203 -56 -23 -91 -60 -110
-117 -27 -82 -18 -121 65 -268 17 -31 49 -105 72 -165 124 -331 185 -401 373
-430 50 -8 140 -33 201 -56 155 -58 351 -65 421 -14 17 13 15 15 -26 25 -350
87 -624 259 -713 448 -95 204 -10 517 208 766 50 57 50 58 -13 98 -80 51 -95
45 -229 -84z"/>
<path d="M4105 3520 c25 -411 20 -426 -228 -592 -67 -45 -149 -109 -182 -143
-104 -108 -162 -134 -347 -160 -174 -24 -233 -64 -369 -247 -64 -86 -66 -92
-45 -142 22 -54 55 -61 167 -35 52 11 145 25 208 29 191 14 287 80 373 257 63
132 78 141 408 250 255 85 325 118 381 181 96 110 74 198 -94 365 -57 56 -138
152 -182 212 -43 61 -83 115 -88 120 -5 6 -6 -31 -2 -95z"/>
<path d="M2632 3444 c-179 -89 -210 -353 -51 -435 133 -67 276 -33 452 108
169 136 210 281 80 285 -53 2 -72 -13 -127 -96 -87 -131 -193 -202 -316 -213
-136 -13 -172 57 -92 175 87 130 203 112 152 -24 -14 -36 -7 -40 32 -17 68 39
96 122 66 188 -26 58 -112 71 -196 29z"/>
<path d="M3310 3315 c-109 -328 -284 -448 -649 -443 -104 1 -144 -2 -172 -14
-48 -21 -155 -123 -207 -197 l-42 -59 29 -21 c155 -111 402 -159 552 -108 230
78 476 341 530 567 17 70 15 241 -3 300 l-14 45 -24 -70z"/>
<path d="M2342 3320 c-155 -75 -252 -198 -252 -320 0 -80 61 -341 79 -339 3 0
23 26 43 57 90 139 180 208 296 227 l44 7 -31 19 c-56 34 -111 140 -111 214 0
29 20 118 35 158 11 26 -12 21 -103 -23z"/>
<path d="M4829 3090 c-164 -49 -340 -219 -379 -365 -20 -75 -50 -136 -130
-263 -29 -45 -32 -56 -22 -73 16 -25 -1 -66 -68 -163 -59 -85 -58 -75 -24
-305 36 -246 23 -384 -55 -556 -17 -37 -29 -70 -27 -72 2 -2 33 28 69 67 115
124 175 270 216 527 27 169 40 197 111 233 87 45 173 147 229 274 34 79 36
116 10 198 -58 184 -10 378 99 404 53 13 70 55 36 88 -17 17 -26 18 -65 6z"/>
<path d="M565 3047 c-62 -21 -199 -103 -255 -154 -89 -80 -114 -164 -86 -286
21 -89 34 -112 112 -202 74 -85 94 -125 94 -192 0 -115 35 -164 126 -183 140
-28 139 -27 175 -145 54 -181 103 -207 449 -245 290 -31 271 -26 522 -151 224
-112 251 -115 190 -18 -44 69 -88 115 -174 181 -95 74 -138 136 -243 349 -127
259 -149 365 -100 471 53 114 25 219 -88 325 -178 166 -239 205 -363 233 -114
26 -304 35 -359 17z m309 -312 c93 -16 178 -55 206 -95 18 -26 20 -43 20 -210
l0 -182 36 -107 c77 -225 66 -253 -75 -195 -66 27 -320 303 -422 458 -145 220
-157 262 -84 300 90 46 182 56 319 31z"/>
<path d="M4319 2727 c-19 -13 -70 -48 -114 -79 -106 -74 -151 -96 -238 -114
l-72 -16 -130 -133 c-149 -153 -160 -160 -238 -169 -60 -7 -119 -32 -210 -90
-29 -19 -71 -39 -92 -45 -93 -26 -313 -6 -440 40 -50 17 -94 23 -255 29 -143
5 -207 12 -240 24 -25 10 -99 21 -167 26 -140 10 -206 33 -302 107 -107 83
-207 233 -241 361 -14 53 -14 52 -43 -5 -97 -193 -50 -526 95 -679 59 -63 62
-64 263 -114 217 -53 289 -90 368 -188 75 -92 117 -120 201 -135 93 -16 136 0
193 73 115 145 147 165 273 165 82 0 88 -1 155 -42 88 -52 154 -74 227 -76 74
-2 89 13 158 150 80 161 173 240 345 294 254 79 398 193 381 300 -5 34 -2 43
34 84 76 88 139 195 140 238 0 23 -10 22 -51 -6z"/>
<path d="M3972 2065 c-179 -94 -248 -156 -321 -290 -58 -105 -148 -195 -238
-238 -81 -38 -203 -43 -358 -12 -167 32 -237 21 -347 -52 -183 -123 -355 -101
-518 66 -126 129 -222 195 -395 269 -128 56 -149 60 -89 19 161 -111 442 -434
719 -827 197 -278 260 -325 440 -324 178 0 258 56 372 259 108 193 434 547
470 511 25 -25 -192 -325 -496 -685 -53 -62 -105 -124 -115 -138 l-19 -25 24
6 c223 64 641 370 816 598 162 211 233 529 184 818 -19 108 -13 106 -129 45z
m-927 -855 c36 -14 28 -45 -33 -129 -58 -80 -102 -105 -166 -96 -82 13 -179
97 -162 141 6 16 70 46 156 75 61 20 164 24 205 9z"/>
<path d="M1079 1559 c-18 -18 -20 -28 -14 -67 11 -74 32 -99 132 -157 176
-101 461 -316 663 -500 105 -97 177 -133 280 -141 78 -6 193 12 248 38 82 41
-24 307 -188 469 -117 115 -539 282 -894 354 -154 31 -199 32 -227 4z"/>
</g>
</svg>
