<?xml version="1.0" standalone="no"?>
<!DOCTYPE svg PUBLIC "-//W3C//DTD SVG 20010904//EN"
 "http://www.w3.org/TR/2001/REC-SVG-20010904/DTD/svg10.dtd">
<svg version="1.0" xmlns="http://www.w3.org/2000/svg"
 width="600.000000pt" height="300.000000pt" viewBox="0 0 600.000000 300.000000"
 preserveAspectRatio="xMidYMid meet">
<g transform="translate(0.000000,300.000000) scale(0.066667,-0.066667)"
fill="#ffffff" stroke="none">
<path d="M6826 4451 c-61 -169 -27 -461 74 -654 131 -247 355 -398 262 -176
-8 19 -7 26 4 19 9 -6 5 27 -10 76 -37 119 -63 170 -80 159 -8 -5 -12 0 -8 12
4 11 2 36 -5 55 -8 22 -8 31 2 25 8 -5 15 6 15 24 0 21 -7 30 -21 24 -32 -12
-39 35 -39 271 l0 214 -89 0 c-86 0 -88 -1 -105 -49z"/>
<path d="M7245 4452 c29 -26 189 -179 357 -341 167 -161 314 -296 326 -298 12
-3 22 -17 22 -32 0 -26 34 -61 174 -177 74 -61 103 -69 86 -25 -5 12 -19 21
-33 21 -22 1 -22 2 1 16 19 11 22 24 12 59 -9 32 -6 58 10 91 31 61 28 62
-104 39 -118 -20 -183 3 -152 53 7 10 15 7 24 -9 7 -13 20 -24 28 -24 7 0 0
22 -16 49 -17 27 -30 60 -30 74 0 14 -8 34 -19 45 -56 59 -32 138 55 175 45
19 96 50 113 68 l31 33 -101 32 c-56 18 -166 49 -244 70 -78 20 -222 57 -319
83 -96 25 -198 46 -225 46 l-48 -1 52 -47z"/>
<path d="M8175 4492 c0 -12 86 -337 152 -577 33 -120 84 -309 113 -420 28
-111 68 -256 88 -322 20 -66 50 -171 66 -233 16 -62 53 -200 83 -307 97 -355
231 -854 291 -1088 l29 -112 2 492 c1 352 -4 489 -15 482 -24 -15 -135 42
-127 64 4 11 -3 19 -15 19 -12 0 -22 7 -22 15 0 8 7 15 15 15 8 0 15 8 15 19
1 10 28 49 60 85 65 73 75 105 34 108 -15 1 -33 3 -41 5 -9 2 -30 4 -48 6 -31
2 -135 87 -123 99 50 50 119 51 170 4 29 -26 53 -56 53 -65 0 -10 10 -26 23
-36 19 -16 22 -8 22 64 0 76 -3 82 -30 75 -16 -4 -30 -1 -30 8 0 8 14 18 30
22 25 7 30 21 30 90 l0 83 -69 10 c-148 22 -244 192 -257 454 -12 226 36 284
255 314 l71 9 0 96 0 95 -49 1 -48 2 48 14 c48 14 49 16 49 99 l0 84 -61 -81
c-87 -117 -148 -125 -257 -32 -49 41 -76 -9 -94 -171 -5 -49 -19 -60 -85 -70
-63 -10 -76 -3 -59 32 7 13 23 50 36 81 14 31 31 56 38 56 7 0 17 14 22 32 4
17 15 27 24 21 9 -5 16 -3 16 5 0 8 -42 29 -94 46 -115 39 -181 75 -141 75 17
1 26 11 23 27 -2 15 5 54 14 87 36 122 33 127 -94 127 -62 0 -113 -3 -113 -8z
m625 -437 c-5 -5 -14 -5 -20 0 -6 6 -1 10 10 10 11 0 16 -4 10 -10z m-40 -27
c0 -13 -7 -23 -15 -23 -8 0 -15 -11 -15 -23 0 -31 -92 -24 -102 7 -5 14 1 18
16 12 13 -5 35 4 49 20 32 35 67 38 67 7z"/>
<path d="M8686 4367 c-40 -172 -40 -180 7 -171 20 4 37 17 37 28 0 12 7 21 16
21 9 0 12 5 8 12 -9 15 123 11 161 -4 97 -41 39 64 -109 198 -77 70 -85 64
-120 -84z"/>
<path d="M420 4243 c0 -17 8 -28 18 -25 28 10 31 37 5 47 -16 6 -23 0 -23 -22z"/>
<path d="M7868 3740 c-390 -90 -713 -205 -713 -255 0 -11 -7 -20 -16 -20 -25
0 -173 -156 -214 -227 -299 -511 -48 -1171 515 -1350 181 -58 469 -53 591 10
56 29 63 22 75 -71 45 -344 466 -702 825 -702 l69 0 0 95 0 96 -79 8 c-209 23
-401 155 -562 385 -31 45 -61 79 -67 75 -6 -4 -22 9 -35 27 -13 19 -32 34 -43
34 -11 0 -27 15 -36 34 -9 18 -16 25 -17 15 -1 -26 -26 -24 -36 3 -5 14 14 34
55 58 117 69 409 338 432 398 16 42 3 64 -18 32 -9 -15 -14 -16 -14 -4 0 22
-71 24 -154 5 -44 -10 -56 -8 -56 8 0 12 -6 21 -14 21 -8 0 -19 39 -24 86 -25
203 -84 236 -133 75 -60 -200 -97 -355 -114 -491 -14 -105 -45 -202 -45 -140
0 19 -138 81 -195 88 -20 3 -81 9 -135 15 -207 20 -351 81 -506 213 -85 73
-93 88 -53 99 18 4 13 7 -12 8 -84 4 -111 96 -111 370 l0 240 54 105 c85 163
117 325 71 353 -56 35 31 21 117 -17 206 -94 646 -207 660 -170 10 27 -48 107
-87 119 -21 7 -26 14 -15 21 11 7 4 18 -21 31 -79 42 -75 66 26 164 51 50 83
91 72 91 -14 0 -11 7 8 23 29 22 29 22 0 12 -27 -9 -28 -8 -10 15 21 25 18 27
-35 15z m52 -470 c0 -8 -3 -15 -7 -15 -3 0 -10 7 -15 15 -6 8 -3 15 6 15 9 0
16 -7 16 -15z m-920 -671 c-3 -15 -7 -6 -7 19 0 24 3 36 7 26 4 -10 4 -30 0
-45z"/>
<path d="M1500 3605 c-129 -43 -183 -70 -162 -82 36 -20 276 65 259 92 -11 18
-13 18 -97 -10z"/>
<path d="M8268 3524 c-43 -40 -42 -47 13 -80 55 -32 71 -22 45 28 -11 20 -16
47 -11 59 13 33 -8 30 -47 -7z"/>
<path d="M1205 3455 c6 -5 15 -5 20 0 6 6 1 10 -10 10 -11 0 -15 -4 -10 -10z"/>
<path d="M8135 3384 c-80 -72 -117 -103 -154 -129 -17 -12 -31 -33 -31 -47 0
-13 -15 -35 -34 -48 -46 -32 -147 -126 -386 -360 -111 -109 -242 -233 -290
-277 -109 -97 -116 -98 314 20 520 143 517 142 595 168 77 27 97 55 30 42 -23
-5 -33 -4 -23 1 35 16 19 36 -30 37 -42 1 -44 3 -18 15 23 12 19 13 -20 7 -27
-4 -46 -2 -42 5 5 7 -25 18 -66 23 -76 10 -102 51 -60 93 27 27 57 151 42 176
-17 31 17 87 48 79 12 -4 87 -18 165 -33 78 -15 151 -33 162 -41 23 -18 108
-22 108 -6 0 6 -7 11 -15 11 -9 0 -23 17 -33 37 -9 20 -22 33 -29 29 -8 -4
-10 -14 -5 -21 13 -23 -19 -31 -60 -15 -22 8 -36 22 -31 30 6 8 -1 15 -15 15
-16 0 -22 8 -17 23 5 12 2 22 -7 22 -9 0 -12 10 -8 22 5 11 1 24 -8 27 -10 3
-16 35 -14 76 3 84 4 83 -68 19z m-215 -429 c0 -8 -7 -15 -16 -15 -9 0 -12 7
-6 15 5 8 12 15 15 15 4 0 7 -7 7 -15z"/>
<path d="M8331 3019 c-87 -217 -111 -304 -86 -304 53 0 258 97 243 115 -9 11
-25 20 -36 20 -10 0 -31 19 -46 41 -30 45 -30 47 -34 120 -3 60 -19 63 -41 8z
m19 -74 c-5 -5 -10 -1 -10 10 0 11 5 16 10 10 6 -5 6 -14 0 -20z"/>
<path d="M3876 2581 c-84 -38 -96 -80 -96 -341 0 -205 1 -215 30 -215 29 0 30
10 30 209 0 285 36 338 212 308 118 -20 125 -35 129 -287 3 -214 4 -223 35
-227 52 -9 39 456 -15 513 -66 71 -217 90 -325 40z"/>
<path d="M5103 2580 c-160 -73 -175 -441 -22 -530 95 -54 364 -24 364 41 0 37
-23 39 -83 9 -151 -77 -297 -12 -327 146 l-9 49 217 0 217 0 0 79 c0 195 -167
292 -357 206z m254 -71 c17 -16 34 -58 39 -92 l8 -62 -184 0 -184 0 9 54 c20
127 221 192 312 100z"/>
<path d="M5630 2588 c-89 -39 -102 -78 -108 -335 l-5 -230 35 5 c35 4 36 5 36
225 0 264 8 282 139 285 71 2 78 5 78 37 0 42 -93 49 -175 13z"/>
<path d="M7035 2595 c0 -11 5 -15 10 -10 6 6 6 15 0 20 -5 6 -10 1 -10 -10z"/>
<path d="M3102 2318 c-5 -318 -12 -335 -135 -352 -87 -11 -90 -52 -4 -58 85
-5 160 36 182 102 34 99 26 585 -9 585 -28 0 -29 -15 -34 -277z"/>
<path d="M3240 2389 c0 -329 26 -369 233 -370 204 -1 232 43 232 370 0 196 -1
206 -30 206 -29 0 -30 -10 -30 -215 0 -254 -13 -286 -125 -303 -185 -28 -220
21 -220 309 0 199 -1 209 -30 209 -29 0 -30 -10 -30 -206z"/>
<path d="M4335 2589 c-11 -253 2 -556 23 -556 36 0 36 552 0 559 -13 3 -23 1
-23 -3z"/>
<path d="M4470 2311 c0 -276 1 -286 30 -286 27 0 30 10 30 96 l0 96 151 5
c149 5 152 6 195 54 64 71 64 192 0 263 l-43 49 -182 5 -181 5 0 -287z m358
188 c44 -40 44 -137 -1 -184 -29 -31 -46 -35 -165 -35 l-132 0 0 129 0 129
133 -5 c106 -4 141 -12 165 -34z"/>
<path d="M5674 2104 c-42 -14 -22 -79 25 -79 33 0 42 6 38 26 -2 15 -5 31 -6
36 -2 14 -36 25 -57 17z"/>
<path d="M4627 1964 c-4 -7 6 -20 22 -28 18 -10 26 -26 21 -39 -12 -31 8 -100
25 -89 8 5 15 35 15 66 0 50 18 76 52 76 3 0 17 -34 32 -75 30 -85 46 -94 60
-34 17 69 26 72 44 18 22 -67 40 -62 63 18 24 81 14 113 -13 46 l-20 -50 -25
57 -24 58 -26 -60 -27 -60 -14 53 c-14 53 -14 53 -96 54 -45 1 -85 -4 -89 -11z"/>
<path d="M5501 1968 c-53 -11 -20 -93 38 -93 16 0 26 -8 22 -19 -4 -10 -27
-17 -55 -16 -41 3 -45 0 -30 -18 24 -29 95 -28 120 2 25 30 3 70 -46 81 -20 5
-38 18 -42 29 -5 15 3 18 33 10 21 -5 39 -3 39 4 0 17 -43 28 -79 20z"/>
<path d="M4326 1944 c-13 -33 0 -137 16 -133 9 2 15 25 15 50 l-1 46 47 -56
c54 -64 70 -54 65 40 -5 74 -28 96 -29 26 l0 -49 -42 48 c-46 54 -59 59 -71
28z"/>
<path d="M4488 1886 l5 -78 56 -5 c63 -5 78 22 16 30 -53 6 -65 42 -15 42 21
0 42 7 48 15 5 9 -11 15 -38 15 -31 0 -45 6 -41 19 3 10 20 19 38 19 17 0 36
5 42 11 6 6 -17 11 -52 11 l-64 0 5 -79z"/>
<path d="M5004 1941 c-30 -77 1 -141 67 -141 71 0 109 70 73 136 -20 37 -126
41 -140 5z m117 -25 c23 -36 -6 -78 -53 -78 -28 0 -37 9 -40 43 -8 67 57 92
93 35z"/>
<path d="M5175 1891 c0 -41 7 -78 15 -83 8 -6 15 4 15 20 0 48 25 50 60 6 32
-41 32 -41 24 -5 -4 20 -1 48 7 62 24 46 1 74 -63 74 l-58 0 0 -74z m98 29 c0
-12 -16 -25 -34 -27 -26 -4 -34 2 -34 27 0 25 8 31 34 27 18 -2 34 -15 34 -27z"/>
<path d="M5339 1958 c-16 -28 -16 -140 0 -150 9 -6 16 3 16 20 0 33 33 62 41
37 11 -34 47 -72 58 -61 6 6 -4 32 -22 57 -31 41 -31 47 -9 69 38 38 11 44
-29 6 l-37 -34 -5 35 c-2 20 -8 29 -13 21z"/>
<path d="M7481 788 c-36 -26 -32 -38 10 -38 38 0 64 38 34 50 -10 3 -30 -2
-44 -12z"/>
<path d="M7381 753 c-1 -11 -21 -27 -46 -35 -51 -18 -45 -50 8 -37 21 6 37 2
42 -10 4 -12 10 -10 18 9 6 14 4 41 -5 60 -9 18 -16 24 -17 13z"/>
<path d="M7425 750 c0 -11 5 -16 10 -10 6 6 6 15 0 20 -5 6 -10 1 -10 -10z"/>
</g>
</svg>
