<?xml version="1.0" standalone="no"?>
<!DOCTYPE svg PUBLIC "-//W3C//DTD SVG 20010904//EN"
 "http://www.w3.org/TR/2001/REC-SVG-20010904/DTD/svg10.dtd">
<svg version="1.0" xmlns="http://www.w3.org/2000/svg"
 width="592.000000pt" height="518.000000pt" viewBox="0 0 592.000000 518.000000"
 preserveAspectRatio="xMidYMid meet">
<g transform="translate(0.000000,518.000000) scale(0.100000,-0.100000)"
fill="#ffffff" stroke="none">
<path d="M2873 5165 c-71 -15 -37 3 -838 -455 -631 -360 -651 -374 -708 -490
l-32 -65 0 -825 0 -825 32 -68 c57 -119 66 -126 809 -549 715 -406 718 -408
830 -408 102 0 104 1 620 295 258 147 561 320 674 384 270 153 329 212 360
359 7 30 10 332 8 842 l-3 795 -32 65 c-58 117 -72 126 -788 536 -772 442
-777 444 -932 409z m707 -487 c305 -174 573 -326 595 -338 189 -105 228 -134
256 -195 23 -49 28 -1562 6 -1621 -28 -71 -54 -88 -732 -476 l-670 -383 -75 0
-75 0 -180 104 c-99 57 -193 112 -210 121 -569 321 -955 547 -976 571 -49 56
-49 57 -49 875 0 855 -2 816 68 875 26 22 1283 744 1352 777 14 6 50 10 80 9
52 -3 87 -21 610 -319z"/>
<path d="M2490 3420 l0 -800 130 0 130 0 0 800 0 800 -130 0 -130 0 0 -800z"/>
<path d="M3413 3803 l-132 -4 -196 -261 -195 -262 0 -66 0 -65 197 -262 197
-263 163 0 c90 0 163 2 163 5 0 3 -37 51 -83 108 -130 159 -377 475 -377 481
0 3 46 63 103 133 178 222 357 451 357 457 0 3 -15 5 -32 4 -18 -1 -92 -4
-165 -5z"/>
<path d="M0 680 l0 -450 70 0 70 0 2 450 3 450 -72 0 -73 0 0 -450z"/>
<path d="M4590 680 l0 -450 73 0 72 0 -2 447 -3 448 -70 3 -70 3 0 -451z"/>
<path d="M847 886 c-79 -29 -146 -94 -163 -160 l-6 -26 80 0 c72 0 81 2 87 20
21 66 178 75 236 14 23 -24 24 -34 28 -161 l3 -135 -28 -30 c-104 -110 -294
-94 -294 25 0 59 46 87 144 87 l86 0 0 57 0 56 -97 -6 c-194 -13 -276 -72
-275 -201 2 -182 196 -270 382 -173 72 37 93 35 76 -8 -4 -13 7 -15 70 -15
l75 0 -3 258 c-3 285 -9 309 -80 362 -67 49 -231 68 -321 36z"/>
<path d="M1513 879 c-94 -36 -142 -114 -131 -214 11 -95 81 -141 237 -156 152
-15 187 -41 157 -113 -18 -43 -66 -61 -149 -53 -60 5 -117 41 -117 74 0 9 -18
13 -60 14 -33 1 -68 2 -77 3 -40 2 11 -114 66 -154 127 -89 337 -82 434 15 68
69 68 205 0 265 -47 42 -69 49 -196 65 -123 15 -157 31 -157 75 0 92 198 114
238 26 11 -24 16 -26 81 -26 52 0 69 3 67 13 -3 6 -7 24 -10 39 -26 118 -230
186 -383 127z"/>
<path d="M2275 883 c-16 -8 -44 -29 -62 -45 -36 -35 -55 -29 -51 15 l3 32 -72
3 -73 3 0 -446 0 -445 73 0 73 0 0 318 -1 317 25 45 c35 63 95 93 172 87 107
-9 157 -74 158 -203 0 -140 -53 -196 -188 -198 l-77 -1 -3 -67 -3 -68 79 0
c239 0 360 146 330 398 -15 128 -76 216 -176 255 -54 22 -166 22 -207 0z"/>
<path d="M2953 882 c-137 -49 -203 -154 -203 -323 0 -156 59 -259 182 -314
168 -76 374 4 423 163 13 42 -118 33 -162 -13 -145 -149 -361 25 -298 241 45
156 247 195 316 62 37 -72 35 -73 -106 -70 l-125 4 0 -56 0 -56 196 0 197 0
-5 83 c-9 133 -56 215 -152 264 -68 35 -187 42 -263 15z"/>
<path d="M3735 886 c-16 -8 -43 -28 -59 -45 -39 -41 -46 -39 -46 9 l0 40 -72
0 -73 0 0 -330 0 -330 73 0 72 0 0 205 c0 188 2 209 21 246 26 53 81 78 167
79 l62 0 0 70 0 70 -57 0 c-32 -1 -71 -7 -88 -14z"/>
<path d="M4097 886 c-119 -43 -181 -155 -141 -256 31 -78 102 -112 259 -126
112 -9 135 -23 135 -80 0 -54 -38 -79 -124 -79 -85 0 -117 14 -142 61 -18 34
-19 34 -92 34 l-74 0 7 -27 c32 -130 132 -193 304 -193 174 0 271 89 259 237
-9 105 -65 144 -242 167 -65 9 -125 21 -133 28 -43 35 -35 86 18 114 67 34
199 0 199 -53 0 -9 19 -13 70 -13 78 0 81 4 55 68 -47 111 -218 167 -358 118z"/>
<path d="M323 751 c-138 -185 -138 -174 3 -372 l106 -149 90 0 90 0 -19 24
c-138 180 -233 318 -227 328 8 14 132 171 196 250 49 61 52 58 -49 58 l-88 -1
-102 -138z"/>
<path d="M4913 752 c-139 -185 -139 -176 3 -374 l105 -148 91 0 c71 0 88 3 81
12 -90 117 -235 311 -239 321 -4 10 97 149 229 315 7 9 -10 12 -79 12 l-89 -1
-102 -137z"/>
<path d="M5244 838 c13 -29 74 -160 135 -290 61 -131 111 -244 111 -251 0 -8
-21 -59 -46 -113 -26 -55 -55 -118 -65 -141 l-18 -43 75 0 74 0 60 126 c33 70
60 128 60 129 0 2 59 131 131 287 72 155 138 298 145 316 l15 33 -81 -3 -81
-3 -70 -160 c-39 -88 -79 -182 -88 -209 -21 -61 -36 -67 -50 -24 -6 18 -47
114 -90 213 l-79 180 -81 3 -81 3 24 -53z"/>
</g>
</svg>
