<?xml version="1.0" standalone="no"?>
<!DOCTYPE svg PUBLIC "-//W3C//DTD SVG 20010904//EN"
 "http://www.w3.org/TR/2001/REC-SVG-20010904/DTD/svg10.dtd">
<svg version="1.0" xmlns="http://www.w3.org/2000/svg"
 width="447.000000pt" height="447.000000pt" viewBox="0 0 447.000000 447.000000"
 preserveAspectRatio="xMidYMid meet">
<g transform="translate(0.000000,447.000000) scale(0.066667,-0.066667)"
fill="#ffffff" stroke="none">
<path d="M2948 6654 c-72 -47 -835 -495 -1240 -727 l-189 -109 -10 -235 c-24
-554 -54 -1336 -54 -1405 l-1 -75 -344 -218 c-190 -120 -517 -328 -727 -462
l-383 -245 0 -879 c0 -484 3 -876 6 -873 4 4 25 81 47 171 22 91 87 337 145
548 58 210 123 449 145 531 24 92 47 151 62 156 37 13 581 249 962 417 l355
157 163 -123 c89 -68 302 -230 473 -361 171 -130 314 -237 318 -237 10 0 279
153 279 158 0 5 -190 327 -295 502 -38 62 -59 104 -49 94 15 -14 106 -19 347
-19 l328 0 -4 167 -4 167 -75 29 c-41 16 -210 87 -375 157 -165 70 -375 158
-465 197 -91 38 -168 71 -170 72 -3 2 -18 117 -33 256 -48 428 -88 768 -114
991 l-26 214 509 511 c280 281 511 514 515 517 20 22 -32 -2 -96 -44z m-997
-2569 c39 -56 237 -260 251 -260 8 0 19 -11 24 -25 5 -13 14 -20 19 -15 17 17
65 -21 67 -54 1 -26 3 -27 8 -7 4 14 13 26 20 26 25 0 90 -35 90 -47 0 -7 8
-11 19 -9 10 2 18 -7 18 -19 0 -15 -12 -21 -37 -18 -70 9 -150 1 -150 -14 0
-21 44 -25 61 -5 10 12 24 22 32 22 8 0 3 -11 -10 -24 -24 -25 -19 -51 12 -51
12 0 11 4 -3 13 -16 10 -15 15 5 22 14 6 21 3 15 -5 -12 -21 69 -93 94 -83 11
4 17 1 12 -6 -5 -8 12 -26 37 -41 80 -47 48 -52 -37 -5 -115 63 -169 84 -143
53 10 -13 30 -24 43 -24 16 -1 18 -4 5 -9 -29 -12 -93 36 -83 63 4 12 1 22 -7
22 -32 0 -33 -49 -1 -77 18 -15 25 -28 15 -28 -9 0 -17 -13 -17 -29 0 -72 -56
-52 -217 78 -207 166 -307 203 -486 179 -108 -15 -126 -3 -75 52 27 29 194
125 217 125 2 0 0 -15 -4 -34 -6 -27 -4 -29 8 -11 14 19 17 18 17 -7 0 -25 3
-26 14 -9 8 12 10 28 5 36 -5 8 -1 10 9 4 9 -6 17 -8 17 -4 0 4 -24 21 -53 39
-30 17 -50 25 -46 18 5 -8 -1 -22 -13 -32 -18 -14 -21 -10 -18 24 2 39 -50 85
-132 116 -9 3 -12 10 -7 15 5 5 33 -4 64 -20 30 -17 57 -30 59 -29 2 0 17 -4
33 -10 18 -7 31 -5 35 6 3 10 15 18 27 18 11 0 21 7 21 15 0 8 -10 10 -22 5
-13 -4 -23 -1 -23 8 0 10 9 17 21 17 15 0 22 32 27 124 9 177 20 184 86 53 30
-61 65 -125 77 -142z m-291 -135 c-5 -5 -14 -5 -20 0 -5 6 -1 10 10 10 11 0
16 -4 10 -10z m780 -375 c-5 -5 -14 -5 -20 0 -5 6 -1 10 10 10 11 0 16 -4 10
-10z"/>
<path d="M1755 3963 c0 -22 88 -78 98 -63 5 8 16 15 25 15 9 0 7 -10 -5 -25
-14 -18 -14 -22 -2 -14 11 6 19 4 19 -5 0 -9 11 -16 24 -16 13 0 50 -20 81
-45 35 -27 62 -40 67 -30 5 8 17 15 26 15 10 0 10 -7 -2 -21 -24 -29 8 -48 38
-22 21 16 19 22 -11 44 -32 24 -36 25 -54 1 -17 -22 -19 -20 -14 13 3 21 3 29
-1 19 -10 -29 -36 -23 -45 11 -4 16 -13 26 -20 22 -7 -5 -32 2 -55 15 -40 23
-40 24 -4 15 21 -5 1 12 -44 37 -80 46 -121 57 -121 34z m88 -46 c-9 -3 -27 6
-40 19 -23 23 -22 23 16 5 22 -10 33 -21 24 -24z m287 -143 c0 -3 -10 -10 -23
-15 -14 -5 -20 -2 -14 6 8 14 37 21 37 9z"/>
<path d="M1826 3843 c-29 -6 -35 -41 -9 -57 11 -6 14 -4 8 6 -6 9 -4 20 4 25
7 4 18 -5 23 -22 6 -16 20 -30 32 -30 11 0 21 -7 21 -15 0 -8 5 -14 11 -13 42
6 62 -4 55 -28 -7 -21 -6 -22 6 -5 13 17 24 15 70 -12 30 -17 73 -32 95 -33
35 -1 37 -3 11 -13 -29 -11 22 -58 54 -50 6 2 18 -7 28 -19 26 -30 45 -28 45
6 0 16 -11 33 -24 38 -18 7 -22 3 -15 -14 5 -14 2 -20 -6 -14 -8 5 -15 20 -15
34 0 22 -2 22 -15 3 -14 -22 -17 -20 -21 19 -1 10 -16 21 -34 23 -17 3 -43 17
-57 33 -15 16 -36 24 -49 19 -15 -6 -20 -3 -14 7 6 10 -1 13 -21 8 -21 -5 -29
-1 -26 13 3 13 -8 20 -28 19 -22 0 -29 6 -23 22 5 15 2 18 -10 11 -11 -7 -29
0 -44 17 -14 15 -37 25 -52 22z"/>
<path d="M2148 3742 c-16 -18 -10 -25 37 -45 31 -13 62 -31 68 -41 9 -14 12
-14 12 1 0 13 10 17 30 11 17 -6 30 -3 30 6 0 16 -23 21 -82 18 -17 -1 -22 3
-12 7 27 12 24 56 -3 46 -12 -5 -26 -2 -31 6 -12 19 -26 17 -49 -9z"/>
<path d="M4169 6189 l516 -517 -25 -215 c-15 -118 -49 -420 -78 -672 -71 -636
-60 -578 -116 -596 -27 -9 -271 -111 -543 -226 l-495 -210 -5 -169 -4 -168
338 7 338 7 -29 -46 c-94 -153 -317 -538 -313 -541 2 -2 52 -31 110 -63 57
-33 118 -68 136 -79 28 -18 45 -9 195 106 90 70 304 233 475 363 l312 237 431
-188 c237 -103 539 -235 671 -292 l240 -103 108 -396 c60 -217 144 -532 188
-699 l79 -303 3 866 c3 476 1 873 -2 882 -4 10 -196 138 -427 285 -549 350
-552 352 -790 500 -111 70 -209 134 -216 143 -7 8 -23 309 -37 668 -14 359
-29 742 -34 852 l-10 200 -61 34 c-205 117 -873 507 -1138 664 -171 102 -316
185 -322 185 -6 0 221 -232 505 -516z m744 -1990 c7 -83 17 -134 28 -134 9 0
6 -7 -6 -15 -19 -12 -17 -15 8 -15 27 -1 27 -2 3 -16 -14 -9 -37 -36 -50 -62
-14 -27 -28 -40 -34 -30 -7 11 -21 8 -43 -9 -74 -57 -12 -64 72 -9 124 82 306
170 247 119 -89 -75 -108 -100 -104 -132 2 -19 4 -39 5 -45 0 -6 11 -11 23
-11 30 0 143 -103 143 -130 0 -12 -7 -17 -17 -11 -31 19 -283 22 -283 3 0 -9
-4 -13 -9 -8 -6 6 -29 0 -53 -12 -24 -13 -43 -18 -43 -11 0 6 -5 4 -11 -5 -7
-9 -39 -34 -73 -55 -34 -21 -71 -48 -82 -59 -132 -128 -254 -180 -254 -109 0
26 -10 39 -37 46 -21 5 -34 16 -29 23 5 9 17 7 30 -3 12 -10 26 -14 32 -8 6 6
1 17 -11 26 -17 11 -14 13 11 6 28 -8 32 -5 24 16 -8 20 -4 24 14 17 28 -11
106 44 92 66 -5 9 8 10 32 4 27 -7 38 -5 32 5 -5 9 1 20 15 25 14 6 31 1 37
-9 8 -13 13 -5 13 22 0 22 7 41 16 41 9 0 12 -13 6 -31 -9 -28 -7 -29 25 -11
68 38 74 52 35 70 -28 12 -36 12 -33 -2 2 -10 -7 -17 -20 -15 -13 2 -36 -9
-51 -26 -15 -17 -54 -37 -85 -46 -32 -8 -58 -22 -58 -30 0 -8 -9 -14 -21 -14
-11 0 -29 -10 -39 -22 -10 -12 -70 -47 -133 -78 -168 -83 -180 -86 -122 -36
29 24 60 45 68 45 9 1 29 11 45 24 22 16 23 20 5 14 -14 -5 -29 -3 -33 4 -4 7
13 13 40 12 31 0 47 7 47 21 0 11 11 24 23 27 20 6 20 5 0 -10 -12 -8 -15 -16
-6 -16 10 0 26 10 36 23 10 12 31 22 46 22 15 0 31 6 36 14 4 7 -5 10 -20 6
-16 -4 -33 -1 -38 7 -6 10 11 14 45 11 39 -3 58 4 71 24 9 15 26 28 37 28 41
0 84 32 61 46 -11 8 -27 14 -35 14 -9 0 -6 -6 5 -13 13 -9 15 -17 5 -23 -9 -5
-20 4 -25 21 -6 17 -16 27 -24 22 -8 -5 -14 -2 -14 7 0 16 10 28 143 183 82
95 187 279 187 327 0 20 7 27 21 22 16 -6 25 -47 32 -142z m52 -209 c0 -8 -12
-15 -26 -15 -23 0 -23 3 -4 15 28 18 30 18 30 0z m-30 -37 c0 -3 -8 -11 -17
-17 -11 -7 -14 -4 -7 7 11 17 24 23 24 10z m-82 -53 c-6 -8 -21 -15 -35 -15
-22 0 -22 2 -3 15 29 19 49 19 38 0z m-347 -87 c10 -17 -6 -36 -77 -87 -35
-26 -60 -50 -56 -54 5 -5 -6 -12 -22 -16 -17 -5 -31 -2 -31 6 0 8 -12 12 -26
10 -15 -3 -26 4 -26 14 0 11 3 17 8 15 5 -2 20 8 35 23 23 23 54 33 88 28 6
-1 11 5 11 14 0 9 7 12 15 7 8 -6 15 0 15 12 0 31 51 52 66 28z m34 -43 c-5
-5 -14 -5 -20 0 -5 6 -1 10 10 10 11 0 16 -4 10 -10z m-50 -42 c-4 -13 -14
-19 -22 -14 -16 9 -3 36 17 36 8 0 10 -10 5 -22z m230 -3 c-5 -5 -14 -5 -20 0
-5 6 -1 10 10 10 11 0 16 -4 10 -10z m-265 -132 c0 -3 -8 -11 -17 -17 -11 -7
-14 -4 -7 7 11 17 24 23 24 10z"/>
<path d="M5006 3941 c-18 -13 -21 -25 -12 -41 8 -12 20 -16 26 -9 7 7 4 16 -7
20 -15 5 -13 12 7 28 15 11 24 20 19 21 -4 0 -20 -8 -33 -19z"/>
<path d="M4914 3883 c-21 -16 -39 -25 -39 -18 -1 7 -8 1 -16 -14 -9 -14 -28
-26 -44 -26 -38 0 -50 -23 -22 -45 17 -15 22 -15 22 1 0 10 4 15 10 9 5 -5 28
4 51 20 22 17 52 30 65 30 13 0 24 7 24 16 0 9 -14 12 -34 7 -29 -8 -30 -7 -7
7 18 12 34 12 57 -1 44 -23 48 -12 7 19 -33 25 -37 25 -74 -5z m-16 -43 c-6
-8 -18 -15 -28 -15 -10 0 -9 6 5 15 29 19 34 19 23 0z"/>
<path d="M4710 3855 c0 -8 -13 -15 -30 -15 -16 0 -30 -8 -30 -19 0 -14 -3 -14
-12 -1 -7 11 -19 13 -32 6 -15 -10 -12 -17 15 -31 28 -16 37 -15 52 6 21 28
43 33 29 5 -5 -10 0 -8 11 5 11 13 33 31 50 41 28 16 27 17 -12 18 -22 0 -41
-7 -41 -15z"/>
<path d="M4727 3782 c-14 -10 -7 -17 27 -29 27 -10 43 -11 38 -2 -5 8 -19 14
-31 14 -13 0 -19 7 -13 15 11 18 6 19 -21 2z"/>
<path d="M3218 4859 c-66 -41 -301 -177 -521 -303 -220 -126 -396 -233 -390
-238 6 -5 68 -33 138 -62 70 -28 172 -70 227 -93 l100 -42 238 147 c130 80
261 161 289 179 l52 33 173 -108 c96 -59 226 -139 290 -178 l117 -71 206 86
c113 46 220 92 238 102 30 15 -1 36 -322 219 -195 111 -432 248 -526 304 -200
119 -162 116 -309 25z m141 -213 c-1 -66 -3 -73 -16 -42 -13 33 -5 121 11 121
3 0 6 -35 5 -79z"/>
<path d="M1710 2659 l0 -614 251 -144 c138 -79 373 -215 521 -302 148 -86 272
-155 275 -152 5 5 -34 327 -55 448 -9 57 -12 59 -302 218 l-292 160 5 345 5
345 -118 85 c-65 47 -156 117 -204 155 l-86 69 0 -613z m278 -454 c-6 -8 -24
-22 -43 -31 -31 -15 -31 -14 3 15 38 33 54 40 40 16z"/>
<path d="M4777 3115 l-196 -152 6 -345 6 -345 -302 -163 -301 -163 0 -55 c0
-30 -13 -142 -29 -249 -15 -108 -26 -197 -24 -200 3 -3 739 421 992 572 l62
37 2 609 c2 335 -2 608 -9 608 -6 -1 -100 -70 -207 -154z m32 -958 c6 -10 -15
-2 -48 18 -84 50 -99 69 -26 32 35 -17 68 -40 74 -50z"/>
<path d="M2873 2653 c-66 -40 -125 -75 -130 -77 -5 -2 7 -122 26 -266 64 -484
96 -742 106 -833 l9 -91 -261 -194 c-143 -106 -407 -303 -586 -436 l-326 -244
-252 67 c-626 167 -934 251 -1027 279 -138 41 -153 29 -39 -32 98 -52 786
-444 1130 -642 107 -63 221 -128 252 -146 l58 -33 422 220 c601 313 1026 537
1060 559 25 15 41 13 94 -15 35 -19 202 -107 371 -196 169 -90 446 -235 616
-322 169 -88 344 -179 389 -203 l81 -43 158 89 c87 50 354 203 594 340 239
138 511 293 604 345 93 52 167 97 163 101 -3 3 -191 -44 -417 -105 -226 -62
-505 -137 -620 -167 -116 -31 -243 -65 -283 -76 l-73 -21 -235 175 c-129 96
-393 293 -587 437 -194 143 -352 265 -352 270 2 46 29 280 46 407 32 232 96
736 96 758 0 21 -267 180 -281 166 -5 -5 -78 -132 -163 -282 -148 -264 -178
-306 -188 -264 -12 45 -307 552 -320 550 -9 -1 -69 -34 -135 -75z m487 -1157
c0 -405 -5 -611 -15 -596 -28 43 -19 1215 9 1215 3 0 6 -278 6 -619z m-109
-202 c-2 -114 -4 -21 -4 206 0 227 2 320 4 206 3 -113 3 -299 0 -412z m30 7
c-2 -109 -4 -20 -4 199 0 219 2 308 4 199 3 -110 3 -288 0 -398z m-71 -45 l0
-169 -94 -37 c-51 -21 -93 -35 -93 -31 0 3 -16 -2 -34 -12 -47 -25 -46 8 3 75
103 141 157 225 182 281 36 84 36 85 36 -107z m334 78 c23 -50 78 -140 124
-200 115 -153 108 -160 -94 -80 l-123 49 -1 132 c0 207 30 239 94 99z"/>
</g>
</svg>
