<?xml version="1.0" standalone="no"?>
<!DOCTYPE svg PUBLIC "-//W3C//DTD SVG 20010904//EN"
 "http://www.w3.org/TR/2001/REC-SVG-20010904/DTD/svg10.dtd">
<svg version="1.0" xmlns="http://www.w3.org/2000/svg"
 width="600.000000pt" height="393.000000pt" viewBox="0 0 600.000000 393.000000"
 preserveAspectRatio="xMidYMid meet">
<g transform="translate(0.000000,393.000000) scale(0.100000,-0.100000)"
fill="#ffffff" stroke="none">
<path d="M140 3860 l0 -71 68 3 67 3 3 68 3 67 -71 0 -70 0 0 -70z"/>
<path d="M420 3860 l0 -70 -70 0 -70 0 0 -70 0 -70 -70 0 -70 0 0 -70 0 -70
70 0 70 0 0 70 0 70 70 0 70 0 0 -70 0 -70 70 0 70 0 0 -70 0 -70 -70 0 -69 0
-3 68 -3 67 -65 0 -65 0 -3 -67 -3 -68 -69 0 -69 0 -3 68 -3 67 -67 3 -68 3 0
-71 0 -70 70 0 69 0 3 -67 3 -68 65 0 65 0 3 68 3 67 69 0 69 0 3 -67 c3 -76
-6 -69 96 -72 l42 -1 0 -70 0 -70 -70 0 -70 0 0 -65 c0 -45 4 -65 13 -66 6 -1
19 -2 27 -3 8 -2 34 -3 58 -4 l42 -2 0 -70 0 -70 -70 0 -70 0 0 70 0 70 -70 0
-70 0 0 -70 0 -70 -70 0 -70 0 0 70 0 70 -70 0 -70 0 0 -65 c0 -74 7 -79 91
-73 l44 3 5 -68 c3 -37 8 -67 13 -67 4 0 34 0 67 0 l60 0 0 64 c0 73 0 73 86
68 l54 -4 0 -64 0 -64 70 0 70 0 0 64 0 64 48 4 c89 6 91 5 94 -70 l3 -66 60
3 c70 3 75 8 75 79 0 34 4 52 13 53 6 0 35 0 63 -1 63 -2 68 5 59 81 l-7 59
-64 0 -64 0 0 -70 0 -70 -70 0 -70 0 0 70 0 70 -70 0 -70 0 0 70 0 70 55 1
c30 1 61 2 68 3 8 1 12 21 12 66 l0 65 -67 3 -68 3 0 69 0 70 70 0 69 0 3 -67
3 -68 68 -3 67 -3 0 -69 0 -70 -70 0 -71 0 3 -67 3 -68 55 -1 c72 -2 80 6 80
77 0 65 -3 63 77 59 l52 -2 6 46 c13 84 4 96 -69 96 -74 0 -75 2 -68 83 l4 57
69 0 69 0 0 -70 0 -70 70 0 70 0 0 -70 0 -70 -70 0 -70 0 0 -64 0 -65 70 -7
70 -7 0 -68 0 -69 -70 0 -70 0 0 -65 0 -65 68 0 67 0 3 62 c4 75 -5 67 70 69
l62 2 0 68 0 69 -64 0 -64 0 -4 61 c-4 78 -4 77 70 80 l62 2 0 69 0 68 -65 0
c-36 0 -66 4 -66 10 -1 6 -1 17 -1 25 0 8 0 35 1 60 l1 45 65 0 c51 0 65 3 66
15 1 8 1 39 2 68 l1 52 -66 3 -66 3 -4 65 c-4 79 -9 74 68 74 l62 0 4 66 c4
79 9 74 -69 74 -43 0 -63 4 -64 13 0 6 0 38 1 70 l1 57 -70 0 -71 0 0 -70 0
-70 70 0 70 0 0 -70 0 -70 -70 0 -70 0 0 -70 0 -70 70 0 70 0 0 -70 0 -70 -70
0 -70 0 -1 38 c-4 107 3 97 -72 100 l-67 3 0 -71 0 -70 -70 0 -70 0 -1 43 c-3
101 4 92 -71 95 l-68 3 0 69 0 70 70 0 70 0 0 -70 0 -70 64 0 c73 0 76 3 76
86 l0 54 64 0 65 0 6 43 c13 86 9 92 -67 95 l-68 3 0 69 0 70 -70 0 -70 0 0
-70 0 -70 70 0 70 0 0 -70 0 -70 -70 0 -69 0 -3 68 -3 67 -67 3 -68 3 0 69 0
70 -70 0 -70 0 0 -70z m50 -25 c0 -3 -2 -5 -5 -5 -3 0 -5 2 -5 5 0 3 2 5 5 5
3 0 5 -2 5 -5z m0 -20 c0 -3 -2 -5 -5 -5 -3 0 -5 2 -5 5 0 3 2 5 5 5 3 0 5 -2
5 -5z m90 -95 l0 -70 -70 0 -70 0 0 70 0 70 70 0 70 0 0 -70z m-443 -267 c-4
-3 -7 0 -7 7 0 7 3 10 7 7 3 -4 3 -10 0 -14z"/>
<path d="M1260 3860 l0 -70 65 0 65 0 0 70 0 70 -65 0 -65 0 0 -70z"/>
<path d="M1539 3878 c-1 -29 -2 -60 -3 -68 -1 -11 -17 -16 -68 -18 l-68 -3 0
-69 0 -70 65 0 65 0 0 70 0 70 70 0 70 0 0 70 0 70 -65 0 -65 0 -1 -52z"/>
<path d="M1818 3876 c-5 -87 -5 -87 65 -84 l62 3 3 68 3 67 -65 0 -64 0 -4
-54z m112 -61 c0 -3 -2 -5 -5 -5 -3 0 -5 2 -5 5 0 3 2 5 5 5 3 0 5 -2 5 -5z"/>
<path d="M2100 3886 c0 -34 4 -46 18 -49 16 -4 16 -5 0 -6 -10 0 -18 -5 -18
-10 0 -6 12 -6 30 -1 22 6 34 5 43 -5 10 -11 14 -9 24 9 7 11 12 15 13 9 0 -7
5 -13 10 -13 6 0 10 25 10 55 l0 55 -65 0 -65 0 0 -44z m77 -53 c-4 -3 -7 0
-7 7 0 7 3 10 7 7 3 -4 3 -10 0 -14z"/>
<path d="M2380 3885 c0 -49 19 -62 80 -53 25 4 28 2 17 -11 -9 -12 -9 -13 1
-7 7 4 12 2 12 -5 0 -38 13 10 17 61 l5 60 -66 0 -66 0 0 -45z"/>
<path d="M2650 3884 c0 -37 3 -45 15 -40 9 3 15 0 15 -9 0 -21 18 -19 23 3 4
15 5 14 6 -2 1 -20 1 -20 16 0 13 17 14 17 15 2 0 -21 16 -24 23 -5 3 6 6 1 6
-13 2 -46 18 -1 20 56 l2 54 -71 0 -70 0 0 -46z"/>
<path d="M2930 3878 c0 -29 5 -60 10 -68 7 -11 10 -11 10 -2 0 7 6 10 13 7 6
-4 4 0 -5 8 -10 8 -18 18 -18 23 0 4 5 3 12 -4 16 -16 80 -16 96 0 7 7 12 8
12 4 0 -5 -8 -15 -17 -23 -10 -8 -12 -12 -5 -8 6 3 12 0 12 -7 0 -9 3 -9 10 2
5 8 10 39 10 68 l0 52 -70 0 -70 0 0 -52z"/>
<path d="M3211 3876 c2 -56 18 -104 19 -56 0 20 2 22 10 10 9 -13 11 -13 20 0
8 13 11 13 19 1 7 -11 10 -10 14 5 4 16 5 17 6 2 1 -22 21 -24 21 -3 0 9 6 12
15 9 12 -5 15 3 15 40 l0 46 -70 0 -71 0 2 -54z"/>
<path d="M3493 3870 c2 -33 7 -63 11 -67 5 -5 10 10 8 28 -1 3 12 3 28 1 61
-9 80 4 80 53 l0 45 -66 0 -66 0 5 -60z"/>
<path d="M3770 3875 c0 -30 5 -55 10 -55 6 0 10 6 10 13 1 6 6 2 13 -9 10 -18
14 -20 24 -9 13 14 53 9 53 -6 0 -5 5 -9 10 -9 17 0 11 28 -7 33 -17 4 -17 5
0 6 13 1 17 10 17 46 l0 45 -65 0 -65 0 0 -55z m57 -42 c-4 -3 -7 0 -7 7 0 7
3 10 7 7 3 -4 3 -10 0 -14z"/>
<path d="M4052 3863 l3 -68 62 -3 c70 -3 70 -3 65 84 l-4 54 -64 0 -65 0 3
-67z"/>
<path d="M4330 3860 l0 -70 70 0 70 0 0 -70 0 -70 65 0 65 0 0 70 0 69 -67 3
c-52 2 -68 7 -69 18 -1 8 -2 39 -3 68 l-1 52 -65 0 -65 0 0 -70z"/>
<path d="M4610 3860 l0 -70 65 0 65 0 0 70 0 70 -65 0 -65 0 0 -70z"/>
<path d="M4880 3873 c1 -32 1 -64 1 -70 -1 -9 -21 -13 -64 -13 -78 0 -73 5
-69 -74 l4 -66 62 0 c77 0 72 5 68 -74 l-4 -65 -66 -3 -66 -3 1 -52 c1 -29 1
-60 2 -68 1 -12 15 -15 66 -15 l65 0 1 -45 c1 -25 2 -52 2 -60 0 -8 -1 -19 -2
-25 0 -6 -30 -10 -66 -10 l-65 0 0 -68 0 -69 62 -2 c74 -3 74 -2 70 -80 l-4
-61 -64 0 -64 0 0 -69 0 -68 62 -2 c75 -2 66 6 70 -69 l3 -62 68 0 67 0 0 65
0 65 -70 0 -70 0 0 69 0 68 70 7 70 7 0 65 0 64 -70 0 -70 0 0 70 0 70 70 0
70 0 0 70 0 70 69 0 69 0 4 -57 c7 -81 6 -83 -68 -83 -73 0 -82 -12 -69 -96
l6 -46 52 2 c80 4 77 6 77 -59 0 -71 8 -79 80 -77 l55 1 3 68 3 67 -71 0 -70
0 0 70 0 69 68 3 67 3 3 68 3 67 69 0 70 0 0 -70 0 -69 -67 -3 -68 -3 0 -65
c0 -45 4 -65 13 -66 6 -1 37 -2 67 -3 l55 -1 0 -70 0 -70 -70 0 -70 0 0 -70 0
-70 -70 0 -70 0 0 70 0 70 -64 0 -64 0 -7 -59 c-9 -77 -4 -83 59 -81 78 4 76
5 76 -52 0 -71 5 -76 75 -79 l60 -3 3 66 c3 75 5 76 95 70 l47 -4 0 -63 0 -63
66 -4 c79 -4 74 -9 74 68 l0 62 54 4 c85 5 85 5 88 -69 l3 -65 65 -1 65 -1 3
67 3 67 69 0 70 0 0 70 0 70 -70 0 -70 0 0 -70 0 -70 -70 0 -70 0 0 70 0 69
-67 3 -68 3 -3 67 -3 66 54 4 c86 5 86 5 89 -70 l3 -67 65 0 65 0 3 68 c3 74
-3 70 90 67 l52 -1 0 71 0 71 -67 -3 -68 -3 -3 -67 -3 -68 -69 0 -70 0 0 70 0
70 -70 0 -70 0 0 -70 0 -70 -70 0 -70 0 0 70 0 70 43 1 c101 3 92 -4 95 72 l3
67 69 0 69 0 3 -67 3 -68 65 0 65 0 3 68 3 67 69 0 70 0 0 70 0 70 -70 0 -70
0 0 70 0 70 70 0 70 0 0 70 0 70 -70 0 -70 0 0 70 0 70 -70 0 -70 0 0 -70 0
-70 -70 0 -70 0 0 70 0 70 -70 0 -70 0 0 -70 0 -69 -67 -3 -68 -3 -3 -67 -3
-68 -69 0 -70 0 0 70 0 70 70 0 70 0 0 70 0 70 -70 0 -70 0 0 -70 0 -69 -67
-3 c-77 -3 -81 -9 -68 -95 l6 -43 65 0 64 0 0 -54 c0 -83 3 -86 76 -86 l64 0
0 70 0 70 70 0 70 0 0 -70 0 -69 -67 -3 c-76 -3 -69 6 -72 -95 l-1 -43 -70 0
-70 0 0 70 0 71 -67 -3 c-75 -3 -68 7 -72 -100 l-1 -38 -70 0 -70 0 0 70 0 70
70 0 70 0 0 70 0 70 -70 0 -70 0 0 70 0 70 70 0 70 0 0 70 0 70 -71 0 -70 0 1
-57z m660 -38 c0 -3 -2 -5 -5 -5 -3 0 -5 2 -5 5 0 3 2 5 5 5 3 0 5 -2 5 -5z
m0 -20 c0 -3 -2 -5 -5 -5 -3 0 -5 2 -5 5 0 3 2 5 5 5 3 0 5 -2 5 -5z m40 -95
l0 -70 70 0 70 0 0 70 0 70 70 0 70 0 0 -70 0 -70 -70 0 -70 0 0 -70 0 -70 70
0 70 0 0 -70 0 -70 -70 0 -69 0 -3 68 -3 67 -65 0 -65 0 -3 -67 -3 -68 -69 0
-70 0 0 70 0 70 70 0 70 0 0 70 0 70 -70 0 -70 0 0 70 0 70 70 0 70 0 0 -70z
m310 -255 c0 -3 -2 -5 -5 -5 -3 0 -5 2 -5 5 0 3 2 5 5 5 3 0 5 -2 5 -5z m-310
-582 l0 -73 -70 0 -70 0 0 69 0 70 43 3 c23 2 54 4 70 4 l27 1 0 -74z"/>
<path d="M2390 3820 c8 -5 20 -10 25 -10 6 0 3 5 -5 10 -8 5 -19 10 -25 10 -5
0 -3 -5 5 -10z"/>
<path d="M2656 3815 c4 -8 8 -15 10 -15 2 0 4 7 4 15 0 8 -4 15 -10 15 -5 0
-7 -7 -4 -15z"/>
<path d="M3330 3815 c0 -8 2 -15 4 -15 2 0 6 7 10 15 3 8 1 15 -4 15 -6 0 -10
-7 -10 -15z"/>
<path d="M3595 3820 c-3 -6 1 -7 9 -4 18 7 21 14 7 14 -6 0 -13 -4 -16 -10z"/>
<path d="M3523 3813 c4 -3 10 -3 14 0 3 4 0 7 -7 7 -7 0 -10 -3 -7 -7z"/>
<path d="M2140 3805 c0 -3 2 -5 5 -5 3 0 5 2 5 5 0 3 -2 5 -5 5 -3 0 -5 -2 -5
-5z"/>
<path d="M2210 3805 c0 -3 2 -5 5 -5 3 0 5 2 5 5 0 3 -2 5 -5 5 -3 0 -5 -2 -5
-5z"/>
<path d="M2720 3805 c0 -3 2 -5 5 -5 3 0 5 2 5 5 0 3 -2 5 -5 5 -3 0 -5 -2 -5
-5z"/>
<path d="M2743 3803 c4 -3 10 -3 14 0 3 4 0 7 -7 7 -7 0 -10 -3 -7 -7z"/>
<path d="M3243 3803 c4 -3 10 -3 14 0 3 4 0 7 -7 7 -7 0 -10 -3 -7 -7z"/>
<path d="M3270 3805 c0 -3 2 -5 5 -5 3 0 5 2 5 5 0 3 -2 5 -5 5 -3 0 -5 -2 -5
-5z"/>
<path d="M3780 3805 c0 -3 2 -5 5 -5 3 0 5 2 5 5 0 3 -2 5 -5 5 -3 0 -5 -2 -5
-5z"/>
<path d="M3850 3805 c0 -3 2 -5 5 -5 3 0 5 2 5 5 0 3 -2 5 -5 5 -3 0 -5 -2 -5
-5z"/>
<path d="M0 3720 l0 -71 68 3 67 3 0 65 0 65 -67 3 -68 3 0 -71z"/>
<path d="M1680 3720 l0 -70 32 0 c22 0 39 8 54 26 13 14 26 25 31 25 4 -1 8
18 8 42 l0 42 -62 3 -63 3 0 -71z"/>
<path d="M4000 3785 c0 -3 2 -5 5 -5 3 0 5 2 5 5 0 3 -2 5 -5 5 -3 0 -5 -2 -5
-5z"/>
<path d="M4190 3731 c0 -69 2 -71 75 -78 l55 -6 0 72 0 71 -65 0 -65 0 0 -59z"/>
<path d="M4023 3773 c4 -3 10 -3 14 0 3 4 0 7 -7 7 -7 0 -10 -3 -7 -7z"/>
<path d="M1770 3665 c0 -3 2 -5 5 -5 3 0 5 2 5 5 0 3 -2 5 -5 5 -3 0 -5 -2 -5
-5z"/>
<path d="M1260 3580 l0 -70 65 0 65 0 0 70 0 70 -65 0 -65 0 0 -70z"/>
<path d="M1540 3579 l0 -72 57 7 c69 8 62 0 69 74 l7 62 -67 0 -66 0 0 -71z
m110 36 c0 -3 -2 -5 -5 -5 -3 0 -5 2 -5 5 0 3 2 5 5 5 3 0 5 -2 5 -5z m-3 -82
c-4 -3 -7 0 -7 7 0 7 3 10 7 7 3 -4 3 -10 0 -14z"/>
<path d="M4330 3590 c0 -68 13 -80 91 -80 l39 0 0 70 0 70 -65 0 -65 0 0 -60z"/>
<path d="M4610 3580 l0 -70 65 0 65 0 0 70 0 70 -65 0 -65 0 0 -70z"/>
<path d="M1991 3620 c-96 -35 -172 -106 -219 -207 l-27 -58 0 -960 0 -960 27
-57 c49 -105 136 -179 249 -212 50 -15 152 -16 985 -14 l929 3 66 32 c73 36
151 107 180 165 43 84 49 138 49 439 l0 286 -49 -5 c-43 -4 -53 -1 -75 21 -30
30 -31 43 -11 157 17 98 35 127 93 155 l42 20 -2 460 -3 460 -32 67 c-42 89
-101 151 -182 191 l-66 32 -950 2 c-919 2 -952 2 -1004 -17z m1029 -239 c0
-19 11 -20 428 -23 235 -2 429 0 430 5 8 16 23 5 62 -44 l40 -51 0 -114 c0
-102 -8 -138 -23 -101 -3 6 -6 0 -6 -15 -3 -86 -110 -83 -209 6 -120 108 -187
112 -310 18 -43 -33 -81 -32 -161 2 -58 25 -67 27 -110 16 -92 -23 -239 -165
-306 -295 -56 -110 -77 -131 -133 -140 -64 -9 -71 -14 -178 -115 -95 -89 -115
-100 -193 -100 -20 0 -63 -12 -96 -26 -33 -14 -68 -28 -78 -31 -20 -6 -97 16
-97 28 0 4 -18 14 -40 23 l-40 16 0 435 0 435 40 20 c22 11 40 27 40 35 0 8
12 17 28 21 15 3 32 7 37 9 6 2 205 4 443 4 422 1 432 1 432 -18z m660 -336
c0 -3 -2 -5 -5 -5 -3 0 -5 2 -5 5 0 3 2 5 5 5 3 0 5 -2 5 -5z m-22 -85 c34
-32 35 -59 9 -196 -14 -71 -28 -145 -32 -164 -14 -82 -115 -680 -115 -685 0
-2 -12 -16 -26 -30 -50 -50 -116 -59 -160 -22 -34 30 -35 53 -6 215 47 262 64
360 102 587 24 142 46 245 56 261 36 54 130 73 172 34z m-387 -126 c34 -36 35
-27 -90 -733 -105 -599 -111 -624 -137 -652 -56 -58 -134 -60 -170 -4 -20 31
-24 2 60 480 30 171 75 431 101 580 26 148 51 277 56 286 36 68 134 92 180 43z
m714 -99 c37 -36 37 -23 -17 -340 -46 -274 -58 -305 -128 -326 -93 -28 -140
25 -121 134 7 39 28 162 47 272 19 109 41 210 50 223 40 61 127 80 169 37z
m-1168 -331 c31 -19 38 -54 25 -127 -80 -471 -155 -888 -164 -910 -38 -96
-180 -106 -204 -13 -3 13 6 86 20 162 14 77 35 193 46 259 105 614 98 580 134
614 43 41 94 46 143 15z m-793 -208 c50 -21 59 -57 39 -164 -24 -132 -62 -182
-138 -182 -77 0 -101 50 -80 169 28 157 87 215 179 177z m395 -20 c15 -16 23
-35 23 -57 -1 -56 -81 -501 -97 -537 -40 -87 -181 -98 -199 -14 -8 34 78 531
98 570 36 70 123 89 175 38z m1542 -321 c26 8 30 -277 4 -311 -8 -10 -15 -31
-15 -46 0 -32 -37 -64 -89 -77 -51 -13 -339 -21 -451 -13 l-95 7 -3 40 c-7 82
28 205 59 205 43 0 126 53 201 127 87 86 84 86 228 69 43 -5 64 -2 95 12 39
18 40 18 43 0 3 -14 9 -17 23 -13z"/>
<path d="M1400 3440 l0 -70 65 0 65 0 0 70 0 70 -65 0 -65 0 0 -70z"/>
<path d="M4470 3440 l0 -70 65 0 65 0 0 70 0 70 -65 0 -65 0 0 -70z"/>
<path d="M1260 3300 l0 -70 65 0 65 0 0 70 0 70 -65 0 -65 0 0 -70z"/>
<path d="M1541 3305 c1 -36 5 -65 10 -65 10 0 12 22 9 82 -1 28 3 37 17 41 12
3 9 5 -10 6 -27 1 -27 1 -26 -64z"/>
<path d="M4394 3343 c3 -16 7 -45 8 -65 2 -34 5 -38 30 -38 28 0 28 1 28 65
l0 65 -36 0 c-34 0 -35 -2 -30 -27z m46 -88 c0 -3 -2 -5 -5 -5 -3 0 -5 2 -5 5
0 3 2 5 5 5 3 0 5 -2 5 -5z"/>
<path d="M4610 3300 l0 -70 65 0 65 0 0 70 0 70 -65 0 -65 0 0 -70z"/>
<path d="M4380 3245 c0 -3 2 -5 5 -5 3 0 5 2 5 5 0 3 -2 5 -5 5 -3 0 -5 -2 -5
-5z"/>
<path d="M0 3165 c0 -36 3 -65 8 -66 46 -6 72 -7 100 -2 l33 5 -3 62 -3 61
-67 3 -68 3 0 -66z"/>
<path d="M282 3163 l3 -68 65 0 65 0 3 68 3 67 -71 0 -71 0 3 -67z"/>
<path d="M1400 3159 c0 -69 1 -71 23 -65 12 3 41 6 65 6 l43 0 -3 63 -3 62
-62 3 -63 3 0 -72z"/>
<path d="M4477 3223 c-4 -3 -7 -33 -7 -65 0 -53 2 -58 23 -60 12 0 41 -2 65
-4 l42 -3 0 70 0 69 -58 0 c-32 0 -62 -3 -65 -7z"/>
<path d="M140 3025 c0 -74 12 -83 95 -71 l45 7 0 65 0 64 -70 0 -70 0 0 -65z"/>
<path d="M1260 3026 c0 -69 6 -76 58 -76 66 0 72 7 72 76 l0 64 -65 0 -65 0 0
-64z"/>
<path d="M4405 3081 c-3 -6 0 -11 7 -11 8 0 9 -3 3 -8 -5 -4 -10 -28 -10 -55
0 -45 1 -47 28 -47 28 0 28 0 25 63 -3 55 -5 62 -25 65 -11 2 -24 -2 -28 -7z"/>
<path d="M4610 3026 c0 -69 6 -76 72 -76 52 0 58 7 58 76 l0 64 -65 0 -65 0 0
-64z"/>
<path d="M1540 3020 c0 -43 4 -60 13 -60 10 0 12 12 7 50 -4 29 -2 54 4 60 7
7 5 10 -7 10 -14 0 -17 -10 -17 -60z"/>
<path d="M1400 2879 c0 -61 2 -70 16 -65 9 3 38 6 65 6 l49 0 0 65 0 65 -65 0
-65 0 0 -71z"/>
<path d="M4470 2883 l0 -68 65 -1 65 -1 0 68 0 69 -65 0 -65 0 0 -67z"/>
<path d="M1260 2745 l0 -65 65 0 65 0 0 65 0 65 -65 0 -65 0 0 -65z"/>
<path d="M1542 2748 c3 -54 6 -63 23 -65 11 -2 14 0 8 3 -8 4 -13 27 -13 65 0
34 -4 59 -10 59 -7 0 -10 -24 -8 -62z"/>
<path d="M4409 2768 c0 -24 -2 -53 -3 -65 -2 -19 2 -23 26 -23 28 0 28 0 28
65 0 63 -1 65 -25 65 -23 0 -25 -4 -26 -42z"/>
<path d="M4610 2745 l0 -65 65 0 65 0 0 65 0 65 -65 0 -65 0 0 -65z"/>
<path d="M0 2606 l0 -64 43 -3 c93 -8 97 -6 97 67 l0 64 -70 0 -70 0 0 -64z"/>
<path d="M280 2605 l0 -65 70 0 70 0 0 65 0 65 -70 0 -70 0 0 -65z"/>
<path d="M560 2605 l0 -65 70 0 70 0 0 65 0 65 -70 0 -70 0 0 -65z"/>
<path d="M840 2605 l0 -65 64 0 c69 0 76 6 76 72 0 52 -7 58 -76 58 l-64 0 0
-65z"/>
<path d="M1120 2606 l0 -64 65 -4 65 -3 0 68 0 67 -65 0 -65 0 0 -64z"/>
<path d="M1400 2605 l0 -65 65 0 66 0 -3 63 -3 62 -62 3 -63 3 0 -66z"/>
<path d="M4470 2605 l0 -65 65 0 65 0 0 65 0 65 -65 0 -65 0 0 -65z"/>
<path d="M4750 2603 l0 -68 65 3 65 4 0 64 0 64 -65 0 -65 0 0 -67z"/>
<path d="M5026 2654 c-8 -20 -8 -62 0 -91 6 -21 12 -23 70 -23 l64 0 0 65 0
65 -64 0 c-49 0 -65 -4 -70 -16z"/>
<path d="M5300 2605 l0 -65 70 0 70 0 0 65 0 65 -70 0 -70 0 0 -65z"/>
<path d="M5580 2600 l0 -70 -70 0 -70 0 0 -65 0 -65 70 0 70 0 0 -75 0 -75
-70 0 -70 0 0 -65 0 -65 70 0 69 0 3 68 3 67 65 0 65 0 0 -70 0 -70 -67 -3
-68 -3 0 -64 0 -65 70 0 70 0 0 70 0 69 68 3 67 3 5 65 5 65 68 3 67 3 0 64 0
65 -70 0 -70 0 0 -70 0 -70 -70 0 -70 0 0 70 0 69 -67 3 -68 3 0 70 0 70 68 3
67 3 0 64 0 65 -70 0 -70 0 0 -70z"/>
<path d="M5862 2603 c3 -75 -7 -68 96 -64 l42 1 0 65 0 65 -70 0 -71 0 3 -67z"/>
<path d="M140 2465 l0 -65 70 0 70 0 0 65 0 65 -70 0 -70 0 0 -65z"/>
<path d="M420 2465 l0 -65 70 0 70 0 0 65 0 65 -70 0 -70 0 0 -65z"/>
<path d="M700 2465 l0 -66 68 3 67 3 3 63 3 62 -71 0 -70 0 0 -65z"/>
<path d="M980 2465 l0 -65 70 0 71 0 -2 65 -2 65 -68 0 -69 0 0 -65z"/>
<path d="M1260 2465 l0 -65 65 0 65 0 0 65 0 65 -65 0 -65 0 0 -65z"/>
<path d="M4395 2520 c-3 -5 0 -10 7 -10 8 0 9 -3 3 -8 -5 -4 -12 -25 -14 -47
-1 -22 -8 -43 -15 -47 -6 -4 10 -8 37 -8 l47 0 0 65 0 65 -29 0 c-17 0 -33 -4
-36 -10z"/>
<path d="M4610 2465 l0 -65 65 0 65 0 0 65 0 65 -65 0 -65 0 0 -65z"/>
<path d="M4881 2465 l-2 -65 71 0 70 0 0 65 0 65 -69 0 -68 0 -2 -65z"/>
<path d="M5160 2471 c0 -70 -2 -69 75 -72 l60 -3 3 67 3 67 -71 0 -70 0 0 -59z"/>
<path d="M5720 2466 l0 -64 66 -4 c79 -4 74 -9 74 69 l0 63 -70 0 -70 0 0 -64z"/>
<path d="M1542 2463 c4 -77 23 -79 23 -3 0 43 -4 60 -13 60 -9 0 -12 -15 -10
-57z"/>
<path d="M4370 2515 c0 -3 2 -5 5 -5 3 0 5 2 5 5 0 3 -2 5 -5 5 -3 0 -5 -2 -5
-5z"/>
<path d="M4350 2405 c0 -3 2 -5 5 -5 3 0 5 2 5 5 0 3 -2 5 -5 5 -3 0 -5 -2 -5
-5z"/>
<path d="M0 2325 l0 -64 68 -3 67 -3 5 -65 5 -65 67 -3 67 -3 3 68 3 68 65 0
65 0 3 -67 3 -68 69 0 70 0 0 65 0 65 -70 0 -70 0 0 70 0 70 -70 0 -70 0 0
-70 0 -70 -70 0 -70 0 0 70 0 70 -70 0 -70 0 0 -65z"/>
<path d="M560 2325 l0 -65 54 0 c83 0 86 -3 86 -76 l0 -64 65 0 c72 0 72 0 77
90 l3 45 63 3 62 3 0 64 0 65 -65 0 -65 0 0 -70 0 -70 -70 0 -70 0 0 70 0 70
-70 0 -70 0 0 -65z"/>
<path d="M1118 2323 l-3 -68 -67 -3 -68 -3 0 -64 0 -65 70 0 70 0 0 71 0 71
65 -4 65 -3 0 68 0 67 -65 0 -64 0 -3 -67z"/>
<path d="M1400 2323 l0 -68 62 5 63 5 3 63 3 62 -66 0 -65 0 0 -67z"/>
<path d="M4470 2323 l0 -68 65 0 65 0 0 68 0 67 -65 0 -65 0 0 -67z"/>
<path d="M4750 2323 l0 -68 65 3 65 4 0 -71 0 -71 70 0 70 0 0 65 0 64 -67 3
-68 3 -3 68 -3 67 -64 0 -65 0 0 -67z"/>
<path d="M5030 2325 l0 -64 63 -3 62 -3 3 -45 c5 -90 5 -90 77 -90 l65 0 0 64
c0 73 3 76 86 76 l54 0 0 65 0 65 -70 0 -70 0 0 -70 0 -70 -70 0 -70 0 0 70 0
70 -65 0 -65 0 0 -65z"/>
<path d="M4310 2305 c0 -3 2 -5 5 -5 3 0 5 2 5 5 0 3 -2 5 -5 5 -3 0 -5 -2 -5
-5z"/>
<path d="M4303 2273 c4 -3 10 -3 14 0 3 4 0 7 -7 7 -7 0 -10 -3 -7 -7z"/>
<path d="M1260 2185 l0 -65 65 0 65 0 0 65 0 65 -65 0 -65 0 0 -65z"/>
<path d="M1540 2192 c0 -56 6 -76 19 -68 10 6 0 126 -10 126 -5 0 -9 -26 -9
-58z"/>
<path d="M4330 2223 c0 -16 3 -45 6 -65 l7 -38 58 0 59 0 0 65 0 65 -65 0
c-64 0 -65 0 -65 -27z"/>
<path d="M4610 2185 l0 -65 65 0 65 0 0 65 0 65 -65 0 -65 0 0 -65z"/>
<path d="M67 2113 l-67 -4 0 -64 0 -65 70 0 70 0 0 70 c0 39 -1 69 -2 68 -2
-1 -33 -3 -71 -5z"/>
<path d="M623 2112 l-63 -3 0 -64 0 -65 70 0 70 0 0 64 c0 75 4 72 -77 68z"/>
<path d="M1183 2113 l-63 -4 0 -64 0 -65 65 0 65 0 0 70 c0 39 -1 69 -2 68 -2
-1 -31 -3 -65 -5z"/>
<path d="M4750 2048 l0 -68 65 0 65 0 0 64 0 64 -65 4 -65 3 0 -67z"/>
<path d="M5304 2111 c-2 -2 -4 -33 -4 -68 l0 -63 70 0 70 0 0 64 0 64 -66 4
c-36 1 -68 1 -70 -1z"/>
<path d="M5860 2048 l0 -68 70 0 70 0 0 64 0 64 -70 4 -70 3 0 -67z"/>
<path d="M280 2045 l0 -65 70 0 70 0 0 65 0 65 -70 0 -70 0 0 -65z"/>
<path d="M840 2045 l0 -65 64 0 c69 0 76 6 76 72 0 52 -7 58 -76 58 l-64 0 0
-65z"/>
<path d="M1400 2045 l0 -65 65 0 65 0 0 65 0 65 -65 0 -65 0 0 -65z"/>
<path d="M4470 2045 l0 -65 65 0 65 0 0 65 0 65 -65 0 -65 0 0 -65z"/>
<path d="M5026 2094 c-8 -20 -8 -62 0 -91 6 -21 12 -23 70 -23 l64 0 0 65 0
65 -64 0 c-49 0 -65 -4 -70 -16z"/>
<path d="M5222 1972 l-63 -3 3 -62 3 -62 65 0 65 0 3 59 c4 71 3 72 -76 68z"/>
<path d="M5782 1972 l-63 -3 3 -62 3 -62 65 0 65 0 3 59 c4 71 3 72 -76 68z"/>
<path d="M142 1908 l3 -63 65 0 65 0 3 63 3 62 -71 0 -71 0 3 -62z"/>
<path d="M418 1903 l-3 -68 -68 0 -67 0 0 -71 0 -70 -67 0 -68 1 -5 -70 -5
-70 -67 -3 -68 -3 0 -64 0 -65 70 0 70 0 0 70 0 70 70 0 69 0 3 68 3 67 68 3
67 3 0 69 0 70 70 0 70 0 0 -70 c0 -48 -4 -70 -12 -72 -7 0 -29 -2 -48 -3 -87
-4 -80 2 -80 -70 l0 -65 70 0 70 0 0 70 0 70 70 0 70 0 0 65 0 64 -67 3 -68 3
-3 68 -3 67 -69 0 -69 0 -3 -67z"/>
<path d="M702 1908 l3 -63 65 0 65 0 3 63 3 62 -71 0 -71 0 3 -62z"/>
<path d="M980 1905 l0 -65 70 0 71 0 -3 -72 -3 -73 -65 0 -65 0 -3 -67 -3 -68
71 0 70 0 0 70 0 70 65 0 65 0 0 68 0 67 -56 -3 c-69 -5 -73 -1 -75 76 l-2 62
-68 0 -69 0 0 -65z"/>
<path d="M1260 1905 l0 -65 65 0 65 0 0 65 0 65 -65 0 -65 0 0 -65z"/>
<path d="M1542 1908 c4 -83 23 -86 23 -3 0 47 -4 65 -13 65 -10 0 -12 -16 -10
-62z"/>
<path d="M4410 1962 c-8 -4 -16 -13 -18 -20 -1 -8 2 -11 7 -7 6 3 11 -15 13
-42 3 -41 6 -48 26 -51 21 -3 22 0 22 62 0 69 -7 77 -50 58z"/>
<path d="M4610 1905 l0 -65 65 0 65 0 0 65 0 65 -65 0 -65 0 0 -65z"/>
<path d="M4881 1905 l-2 -65 71 0 70 0 0 65 0 65 -69 0 -68 0 -2 -65z"/>
<path d="M5440 1905 l0 -65 70 0 70 0 0 -70 0 -69 68 -3 67 -3 0 -70 0 -70
-65 0 -65 0 -3 68 c-3 74 4 68 -82 72 -19 1 -41 3 -47 3 -9 1 -13 23 -13 67
l0 65 -70 0 -70 0 0 -65 0 -65 70 0 70 0 0 -70 0 -70 70 0 70 0 0 -70 0 -70
70 0 70 0 0 70 0 70 70 0 70 0 0 -70 0 -70 70 0 70 0 0 65 0 64 -67 3 -68 3 0
70 0 70 68 3 67 3 0 69 0 70 -57 -4 c-32 -2 -64 -5 -70 -5 -9 -1 -13 -22 -13
-68 l0 -68 -70 0 -70 0 0 70 0 70 -68 0 -67 0 -3 68 -3 67 -69 0 -70 0 0 -65z"/>
<path d="M1570 1935 c0 -3 2 -5 5 -5 3 0 5 2 5 5 0 3 -2 5 -5 5 -3 0 -5 -2 -5
-5z"/>
<path d="M4750 1768 l0 -68 65 0 65 0 0 -70 0 -70 70 0 71 0 -3 68 -3 67 -65
0 -65 0 -3 68 c-2 37 -6 67 -10 68 -4 0 -33 1 -65 2 l-57 2 0 -67z"/>
<path d="M5040 1832 c-6 -2 -10 -33 -10 -68 l0 -64 65 0 65 0 0 64 0 64 -55 4
c-30 1 -60 2 -65 0z"/>
<path d="M0 1765 l0 -65 70 0 70 0 0 65 0 65 -70 0 -70 0 0 -65z"/>
<path d="M840 1765 l0 -65 65 0 65 0 0 65 0 65 -65 0 -65 0 0 -65z"/>
<path d="M1400 1765 l0 -65 65 0 65 0 0 65 0 65 -65 0 -65 0 0 -65z"/>
<path d="M4470 1765 l0 -65 65 0 65 0 0 65 0 65 -65 0 -65 0 0 -65z"/>
<path d="M713 1693 c-9 -3 -13 -27 -13 -68 0 -72 -3 -75 -86 -75 l-54 0 0 -65
c0 -45 -4 -65 -12 -66 -7 -1 -38 -2 -68 -3 l-55 -1 -5 -69 -5 -69 -67 1 -68 0
0 -69 0 -69 70 0 70 0 0 70 0 70 70 0 70 0 0 -70 c0 -38 -3 -70 -7 -71 -5 0
-35 -1 -68 -2 l-60 -2 -5 -69 -5 -68 -67 -1 -68 0 0 -69 0 -68 70 0 70 0 0 70
0 70 70 0 70 0 0 -70 0 -69 -67 -3 -68 -3 0 -65 0 -65 68 -3 67 -3 0 -69 0
-69 -67 -3 -68 -3 -5 -69 -5 -70 -67 3 -68 2 0 -71 0 -71 70 2 70 2 0 69 0 68
70 0 70 0 0 -70 0 -69 -67 -3 -68 -3 0 -65 0 -65 68 -3 67 -3 0 -69 0 -70 -64
0 c-36 0 -68 -4 -71 -10 -4 -6 20 -10 64 -10 41 0 71 4 71 10 0 6 28 10 65 10
74 0 79 7 73 91 l-3 44 -67 3 -68 3 0 69 0 69 68 3 67 3 0 65 0 65 -67 3 -68
3 0 69 0 70 70 0 71 0 -3 68 -3 67 -67 3 -68 3 0 69 0 70 70 0 70 0 0 70 c0
51 -4 70 -12 69 -7 -1 -39 -1 -70 0 l-58 1 0 70 0 69 68 3 67 3 0 65 c0 45 -4
65 -12 66 -7 1 -38 2 -68 3 l-55 1 0 70 0 70 70 0 70 0 0 70 0 70 64 0 c73 0
76 3 76 80 0 45 -1 48 -31 54 -36 7 -78 7 -96 -1z"/>
<path d="M1273 1693 c-9 -3 -13 -27 -13 -69 l0 -64 65 0 65 0 0 64 c0 58 -2
64 -22 70 -27 7 -78 7 -95 -1z"/>
<path d="M4628 1693 c-15 -4 -18 -16 -18 -69 l0 -64 65 0 65 0 0 64 c0 75 -26
92 -112 69z"/>
<path d="M5183 1693 c-20 -4 -23 -11 -23 -53 0 -77 3 -80 76 -80 l64 0 0 -70
0 -70 70 0 70 0 0 -70 0 -70 -55 -1 c-30 -1 -61 -2 -67 -3 -9 -1 -13 -21 -13
-66 l0 -65 68 -3 67 -3 0 -69 0 -70 -57 -1 c-32 -1 -64 -1 -70 0 -9 1 -13 -18
-13 -69 l0 -70 70 0 70 0 0 -70 0 -69 -67 -3 -68 -3 -3 -67 -3 -68 71 0 70 0
0 -70 0 -69 -67 -3 -68 -3 0 -65 0 -65 68 -3 67 -3 0 -69 0 -69 -67 -3 -68 -3
-3 -44 c-6 -84 -1 -91 73 -91 37 0 65 -4 65 -10 0 -6 30 -10 71 -10 44 0 68 4
64 10 -3 6 -35 10 -71 10 l-64 0 0 70 0 69 68 3 67 3 0 65 0 65 -67 3 -68 3 0
69 0 70 70 0 70 0 0 -68 0 -69 70 -2 70 -2 0 70 0 70 68 3 67 3 0 65 0 65 -65
0 -65 0 -3 -68 -3 -67 -59 0 c-33 0 -63 0 -67 0 -5 0 -10 30 -13 67 l-5 68
-67 3 -68 3 0 69 0 69 68 3 67 3 0 65 0 65 -67 3 -68 3 0 69 0 70 70 0 70 0 0
-70 0 -70 70 0 70 0 0 68 0 69 -67 0 -68 1 -5 68 -5 69 -60 2 c-33 1 -63 2
-67 2 -5 1 -8 33 -8 71 l0 70 70 0 70 0 0 -70 0 -69 68 -3 67 -3 5 -65 5 -65
65 0 65 0 0 65 0 65 -68 0 -67 0 0 72 0 71 -67 0 -68 -1 -5 69 -5 69 -55 1
c-30 1 -61 2 -67 3 -9 1 -13 21 -13 66 l0 65 -57 0 c-77 0 -81 5 -85 80 l-3
65 -45 1 c-25 1 -55 0 -67 -3z"/>
<path d="M1540 1630 c0 -43 4 -60 13 -60 8 0 13 9 11 23 -1 12 -3 39 -3 60 -2
62 -21 41 -21 -23z"/>
<path d="M4408 1641 c-4 -68 0 -81 28 -81 23 0 24 3 24 65 0 62 -1 65 -24 65
-22 0 -24 -5 -28 -49z"/>
<path d="M4390 1575 c0 -3 2 -5 5 -5 3 0 5 2 5 5 0 3 -2 5 -5 5 -3 0 -5 -2 -5
-5z"/>
<path d="M840 1488 l0 -68 64 0 c70 0 76 6 76 75 0 46 -10 53 -77 57 l-63 4 0
-68z"/>
<path d="M1183 1553 l-62 -4 -3 -67 -3 -67 -65 0 -65 0 -3 -67 -3 -68 71 0 70
0 0 -70 c0 -49 -4 -70 -12 -71 -7 0 -38 -1 -68 -2 l-55 -2 -3 -67 -3 -68 71 0
70 0 0 -70 0 -70 -70 0 -70 0 0 -70 0 -70 70 0 70 0 0 -70 0 -70 -70 0 -70 0
0 -70 0 -70 70 0 70 0 0 -70 0 -70 -70 0 -71 0 3 -68 3 -67 68 -3 67 -3 0 -69
0 -70 -70 0 c-40 0 -70 -4 -70 -10 0 -13 127 -13 135 0 3 5 28 10 55 10 77 0
80 3 80 76 l0 63 -67 3 c-77 3 -81 9 -68 95 l6 43 65 0 64 0 0 70 0 70 -65 0
-65 0 0 70 0 70 65 0 65 0 0 70 0 70 -65 0 -65 0 0 70 0 70 65 0 65 0 0 68 0
67 -61 3 c-79 3 -75 -1 -71 76 l4 66 64 0 64 0 0 69 c0 64 -1 68 -22 68 -13 1
-42 1 -65 2 l-43 1 0 70 0 70 65 0 65 0 0 70 c0 39 -1 69 -2 68 -2 -1 -31 -3
-65 -5z"/>
<path d="M4750 1488 l0 -68 65 0 65 0 0 -70 0 -70 -42 -1 c-24 -1 -53 -1 -65
-2 -22 0 -23 -4 -23 -68 l0 -69 64 0 64 0 4 -66 c4 -77 8 -73 -71 -76 l-61 -3
0 -67 0 -68 65 0 65 0 0 -70 0 -70 -65 0 -65 0 0 -70 0 -70 65 0 65 0 0 -70 0
-70 -65 0 -65 0 0 -70 0 -70 64 0 65 0 6 -43 c13 -86 9 -92 -67 -95 l-68 -3 0
-63 c0 -73 3 -76 80 -76 27 0 52 -5 55 -10 8 -13 135 -13 135 0 0 6 -30 10
-70 10 l-70 0 0 70 0 69 68 3 67 3 3 67 3 68 -71 0 -70 0 0 70 0 70 70 0 70 0
0 70 0 70 -70 0 -70 0 0 70 0 70 70 0 70 0 0 70 0 70 -70 0 -70 0 0 70 0 70
70 0 71 0 -3 68 -3 67 -55 2 c-30 1 -61 2 -67 2 -9 1 -13 22 -13 71 l0 70 70
0 71 0 -3 68 -3 67 -65 0 -65 0 -3 67 -3 66 -64 4 -65 3 0 -67z"/>
<path d="M5080 1552 c-50 -4 -60 -13 -60 -57 0 -69 6 -75 76 -75 l64 0 0 68
c0 75 6 70 -80 64z"/>
<path d="M280 1485 l0 -65 70 0 70 0 0 65 0 65 -70 0 -70 0 0 -65z"/>
<path d="M1400 1485 l0 -65 65 0 65 0 0 65 0 65 -65 0 -65 0 0 -65z"/>
<path d="M4470 1485 l0 -65 65 0 65 0 0 65 0 65 -65 0 -65 0 0 -65z"/>
<path d="M143 1404 c-2 -6 -3 -36 -1 -65 l3 -54 65 0 65 0 3 62 3 61 -67 4
c-43 2 -68 -1 -71 -8z"/>
<path d="M703 1404 c-2 -6 -3 -36 -1 -65 l3 -54 65 0 65 0 3 63 c2 45 -1 62
-10 63 -71 5 -121 2 -125 -7z"/>
<path d="M1264 1411 c-2 -2 -4 -33 -4 -68 l0 -63 65 0 65 0 0 64 0 64 -61 4
c-33 1 -63 1 -65 -1z"/>
<path d="M4610 1348 l0 -68 65 0 66 0 -3 67 -3 66 -63 1 -62 1 0 -67z"/>
<path d="M5168 1409 c-5 -3 -8 -32 -6 -65 l3 -59 65 0 65 0 0 64 0 64 -58 1
c-33 1 -63 -2 -69 -5z"/>
<path d="M5723 1404 c-2 -6 -3 -36 -1 -65 l3 -54 65 0 65 0 0 65 0 64 -64 1
c-39 0 -65 -4 -68 -11z"/>
<path d="M1540 1345 l0 -65 45 0 c25 0 45 5 45 10 0 6 -3 10 -8 10 -13 0 -34
81 -23 94 7 8 -1 12 -25 13 l-34 3 0 -65z m30 40 c0 -3 -2 -5 -5 -5 -3 0 -5 2
-5 5 0 3 2 5 5 5 3 0 5 -2 5 -5z"/>
<path d="M4373 1403 c9 -2 17 -12 16 -21 0 -11 -2 -12 -6 -4 -2 6 -8 12 -13
12 -4 0 -8 -6 -7 -12 0 -7 -1 -26 -3 -43 l-2 -30 -8 30 c-7 28 -8 27 -9 -12
l-1 -43 60 0 60 0 0 65 0 65 -52 -1 c-29 -1 -45 -3 -35 -6z m37 -28 c0 -3 -2
-5 -5 -5 -3 0 -5 2 -5 5 0 3 2 5 5 5 3 0 5 -2 5 -5z"/>
<path d="M0 1210 l0 -70 70 0 70 0 0 69 0 68 -70 2 -70 2 0 -71z"/>
<path d="M840 1208 l0 -68 65 0 65 0 0 71 0 70 -65 -3 -65 -3 0 -67z"/>
<path d="M1407 1274 c-4 -4 -7 -36 -7 -71 l0 -63 65 0 66 0 -3 68 -3 67 -55 3
c-31 2 -59 0 -63 -4z"/>
<path d="M4477 1274 c-4 -4 -7 -36 -7 -71 l0 -63 65 0 66 0 -3 68 -3 67 -55 3
c-31 2 -59 0 -63 -4z"/>
<path d="M5030 1211 l0 -71 65 0 65 0 0 68 0 67 -65 3 -65 3 0 -70z"/>
<path d="M5860 1209 l0 -69 70 0 70 0 0 70 0 71 -70 -2 -70 -2 0 -68z"/>
<path d="M4310 1265 c0 -3 2 -5 5 -5 3 0 5 2 5 5 0 3 -2 5 -5 5 -3 0 -5 -2 -5
-5z"/>
<path d="M4296 1241 c-4 -5 0 -12 6 -14 8 -3 6 -6 -5 -6 -10 -1 -15 -5 -12
-11 3 -5 -2 -10 -12 -10 -15 0 -16 -2 -3 -10 12 -8 11 -10 -7 -10 -13 0 -23
-4 -23 -10 0 -5 -8 -10 -17 -11 -34 -1 19 -18 60 -18 l37 -1 0 55 c0 50 -10
69 -24 46z"/>
<path d="M1680 1215 c0 -3 2 -5 5 -5 3 0 5 2 5 5 0 3 -2 5 -5 5 -3 0 -5 -2 -5
-5z"/>
<path d="M1680 1170 c0 -27 3 -30 30 -30 28 0 29 2 18 20 -7 11 -19 20 -26 20
-7 0 -10 5 -7 10 3 6 1 10 -4 10 -6 0 -11 -13 -11 -30z"/>
<path d="M144 1127 c-3 -8 -4 -39 -2 -68 l3 -54 65 0 65 0 0 65 0 65 -63 3
c-47 2 -64 -1 -68 -11z"/>
<path d="M704 1127 c-3 -8 -4 -39 -2 -68 l3 -54 62 -3 c71 -3 77 4 71 89 l-3
44 -63 3 c-47 2 -64 -1 -68 -11z"/>
<path d="M1267 1134 c-4 -4 -7 -36 -7 -71 l0 -63 65 0 66 0 -3 68 -3 67 -55 3
c-31 2 -59 0 -63 -4z"/>
<path d="M1547 1133 c-4 -3 -7 -35 -7 -70 l0 -63 65 0 65 0 0 64 c0 49 -4 65
-16 70 -21 8 -99 8 -107 -1z"/>
<path d="M4337 1134 c-4 -4 -7 -36 -7 -71 l0 -63 65 0 66 0 -3 68 -3 67 -55 3
c-31 2 -59 0 -63 -4z"/>
<path d="M4610 1070 l0 -70 65 0 66 0 -3 68 -3 67 -62 3 -63 3 0 -71z"/>
<path d="M5167 1134 c-10 -10 -9 -106 2 -122 5 -9 26 -12 67 -10 l59 3 0 65 0
65 -60 3 c-34 2 -64 0 -68 -4z"/>
<path d="M4158 1072 c-10 -17 -18 -37 -18 -45 0 -9 -11 -17 -27 -20 -20 -3
-15 -4 15 -6 48 -1 55 7 50 64 l-3 37 -17 -30z m9 -44 c-3 -8 -6 -5 -6 6 -1
11 2 17 5 13 3 -3 4 -12 1 -19z"/>
<path d="M1820 1040 c0 -7 3 -10 7 -7 3 4 3 10 0 14 -4 3 -7 0 -7 -7z"/>
<path d="M3518 1033 c-24 -6 -27 -446 -4 -492 18 -33 54 -51 106 -51 39 0 40
1 40 35 0 32 -3 35 -28 35 -51 0 -52 7 -52 247 0 129 -4 223 -9 223 -5 0 -15
2 -23 4 -7 2 -21 2 -30 -1z"/>
<path d="M2526 1022 c-11 -19 0 -456 12 -479 20 -36 53 -53 104 -53 l48 0 -4
33 c-3 28 -8 33 -37 37 l-34 5 -5 230 -5 230 -37 3 c-20 2 -39 -1 -42 -6z"/>
<path d="M0 931 l0 -71 70 0 70 0 0 68 0 67 -70 3 -70 3 0 -70z"/>
<path d="M840 928 l0 -68 65 0 64 0 7 35 c3 19 3 51 0 71 l-7 35 -65 -3 -64
-3 0 -67z"/>
<path d="M1418 993 c-15 -4 -18 -16 -18 -69 l0 -64 65 0 66 0 -3 68 -3 67 -45
2 c-25 0 -53 -1 -62 -4z"/>
<path d="M1680 968 c0 -31 0 -31 20 -13 14 13 17 21 9 26 -8 5 -6 9 7 12 13 3
11 5 -8 6 -25 1 -28 -3 -28 -31z"/>
<path d="M4218 993 c-16 -2 -28 -9 -28 -15 0 -6 3 -9 6 -5 10 10 60 -20 93
-55 l31 -33 0 58 0 57 -37 -1 c-21 -1 -50 -4 -65 -6z m32 -7 c0 -3 -5 -8 -12
-12 -7 -4 -8 -3 -4 4 7 12 16 16 16 8z"/>
<path d="M4477 993 c-4 -3 -7 -35 -7 -70 l0 -63 65 0 65 0 0 64 c0 58 -2 64
-22 70 -31 8 -93 8 -101 -1z"/>
<path d="M5024 966 c-3 -20 -3 -52 0 -71 l7 -35 64 0 65 0 0 68 0 67 -64 3
-65 3 -7 -35z"/>
<path d="M5860 930 l0 -70 70 0 70 0 0 70 0 70 -70 0 -70 0 0 -70z"/>
<path d="M1770 985 c0 -3 2 -5 5 -5 3 0 5 2 5 5 0 3 -2 5 -5 5 -3 0 -5 -2 -5
-5z"/>
<path d="M3727 983 c-4 -3 -7 -33 -7 -65 0 -51 -2 -58 -20 -58 -31 0 -29 -57
2 -62 22 -3 22 -6 19 -100 -4 -154 26 -208 115 -208 43 0 44 0 44 34 0 32 -3
35 -32 38 -41 4 -49 33 -45 148 l4 85 36 3 c34 3 37 6 37 33 0 27 -3 29 -35
29 l-35 0 0 49 c0 69 -7 81 -44 81 -18 0 -36 -3 -39 -7z"/>
<path d="M1763 863 c-10 -3 -13 -66 -13 -264 l0 -259 43 0 43 0 -4 90 c-4 92
-1 100 32 75 29 -22 114 -19 152 4 85 52 80 302 -7 346 -37 20 -119 19 -147
-1 -20 -14 -24 -14 -38 0 -15 16 -37 19 -61 9z m201 -76 c38 -28 40 -177 3
-215 -20 -20 -84 -18 -108 4 -37 33 -36 167 2 205 22 22 77 25 103 6z"/>
<path d="M2200 862 c-9 -4 -27 -15 -40 -25 l-25 -17 26 -25 25 -25 39 20 c75
38 145 9 145 -61 0 -17 -8 -19 -76 -19 -130 0 -189 -51 -163 -144 20 -71 129
-102 209 -61 27 14 30 14 30 0 0 -11 11 -15 40 -15 l40 0 0 138 c0 158 -12
195 -70 224 -35 18 -148 24 -180 10z m168 -234 c8 -64 -93 -104 -149 -59 -20
16 -22 23 -14 47 12 33 39 43 110 41 47 -2 50 -4 53 -29z"/>
<path d="M2805 861 c-119 -52 -129 -296 -15 -353 52 -26 138 -24 181 5 93 62
97 264 6 331 -30 22 -136 33 -172 17z m126 -80 c35 -28 41 -153 9 -193 -23
-30 -73 -38 -110 -18 -53 28 -52 202 2 223 29 12 77 6 99 -12z"/>
<path d="M3143 851 c-39 -24 -40 -28 -12 -57 20 -22 23 -22 46 -7 60 39 153
10 153 -48 l0 -27 -84 -3 c-100 -5 -135 -24 -151 -84 -11 -45 14 -102 55 -122
36 -18 131 -16 158 3 20 14 22 14 22 0 0 -12 10 -16 40 -16 l40 0 0 145 c0
205 -14 226 -155 233 -67 3 -85 0 -112 -17z m187 -226 c0 -66 -98 -106 -144
-59 -46 46 -2 94 86 94 l58 0 0 -35z"/>
<path d="M4010 852 c-52 -27 -80 -89 -80 -177 0 -124 56 -185 170 -185 106 0
160 63 160 187 0 126 -57 193 -165 193 -29 0 -65 -8 -85 -18z m140 -72 c41
-41 41 -169 0 -202 -29 -23 -82 -23 -111 1 -22 17 -24 27 -24 101 0 74 2 84
24 101 31 25 85 25 111 -1z"/>
<path d="M144 847 c-3 -8 -4 -39 -2 -68 l3 -54 65 0 65 0 0 65 0 65 -63 3
c-47 2 -64 -1 -68 -11z"/>
<path d="M704 847 c-3 -8 -4 -39 -2 -68 l3 -54 65 0 65 0 0 65 0 65 -63 3
c-47 2 -64 -1 -68 -11z"/>
<path d="M1260 790 l0 -70 65 0 65 0 0 70 0 70 -65 0 -65 0 0 -70z"/>
<path d="M1545 852 c-3 -3 -5 -34 -5 -69 0 -56 2 -63 19 -63 26 0 29 7 32 67
2 38 6 50 16 46 8 -3 11 0 8 8 -5 13 -59 22 -70 11z"/>
<path d="M4361 853 c12 -3 15 -12 11 -31 -4 -23 -3 -25 10 -15 12 11 13 6 8
-37 l-6 -50 38 0 38 0 0 69 0 68 -57 0 c-32 0 -51 -2 -42 -4z"/>
<path d="M4610 790 l0 -70 65 0 65 0 0 70 0 70 -65 0 -65 0 0 -70z"/>
<path d="M5164 847 c-3 -8 -4 -39 -2 -68 l3 -54 65 0 65 0 0 65 0 65 -63 3
c-47 2 -64 -1 -68 -11z"/>
<path d="M5724 847 c-3 -8 -4 -39 -2 -68 l3 -54 65 0 65 0 0 65 0 65 -63 3
c-47 2 -64 -1 -68 -11z"/>
<path d="M4340 829 c0 -5 5 -7 10 -4 6 3 10 8 10 11 0 2 -4 4 -10 4 -5 0 -10
-5 -10 -11z"/>
<path d="M0 651 l0 -71 70 0 71 0 -3 68 -3 67 -67 3 -68 4 0 -71z"/>
<path d="M280 649 l0 -69 70 0 70 0 0 69 0 69 -70 0 -70 0 0 -69z"/>
<path d="M840 647 l0 -68 67 3 c63 3 67 5 66 26 0 12 -1 43 -2 68 l-1 45 -65
-3 -65 -3 0 -68z"/>
<path d="M1407 714 c-4 -4 -7 -36 -7 -71 l0 -64 63 3 62 3 0 65 0 65 -55 3
c-31 2 -59 0 -63 -4z"/>
<path d="M4474 707 c-3 -8 -4 -39 -2 -68 l3 -54 63 -3 63 -3 -3 68 -3 68 -58
3 c-42 2 -59 -1 -63 -11z"/>
<path d="M5029 676 c-1 -25 -2 -56 -2 -68 -1 -21 3 -23 66 -26 l67 -3 0 68 0
68 -65 3 -65 3 -1 -45z"/>
<path d="M5580 649 l0 -69 70 0 70 0 0 69 0 69 -70 0 -70 0 0 -69z"/>
<path d="M5860 649 l0 -69 70 0 70 0 0 70 0 71 -70 -2 -70 -2 0 -68z"/>
<path d="M144 567 c-3 -8 -4 -39 -2 -68 l3 -54 65 0 65 0 0 65 0 65 -63 3
c-47 2 -64 -1 -68 -11z"/>
<path d="M704 567 c-3 -8 -4 -39 -2 -68 l3 -54 68 -3 67 -3 0 -69 0 -70 65 0
65 0 0 70 0 69 -66 3 -67 3 -1 65 -1 65 -63 3 c-47 2 -64 -1 -68 -11z"/>
<path d="M1258 526 c-5 -86 -5 -86 68 -86 l64 0 0 70 0 70 -64 0 -64 0 -4 -54z"/>
<path d="M1547 573 c-4 -3 -7 -35 -7 -70 l0 -63 38 0 c20 0 32 4 26 8 -6 4
-12 32 -13 62 -3 68 -18 89 -44 63z m20 -100 c-4 -3 -7 0 -7 7 0 7 3 10 7 7 3
-4 3 -10 0 -14z"/>
<path d="M4388 562 c3 -9 1 -13 -5 -9 -7 4 -14 -8 -18 -31 -8 -35 -8 -36 -15
-12 -8 24 -8 23 -9 -7 -2 -56 6 -63 65 -63 l54 0 0 70 0 70 -39 -2 c-30 -1
-38 -5 -33 -16z m-18 -87 c0 -3 -2 -5 -5 -5 -3 0 -5 2 -5 5 0 3 2 5 5 5 3 0 5
-2 5 -5z"/>
<path d="M4610 510 l0 -70 64 0 c73 0 73 0 68 86 l-4 54 -64 0 -64 0 0 -70z"/>
<path d="M5167 574 c-10 -10 -9 -106 2 -122 5 -9 26 -12 67 -10 l59 3 0 65 0
65 -60 3 c-34 2 -64 0 -68 -4z"/>
<path d="M0 370 l0 -70 70 0 70 0 0 70 0 70 -70 0 -70 0 0 -70z"/>
<path d="M1400 370 l0 -71 63 3 62 3 0 65 0 65 -62 3 -63 3 0 -71z"/>
<path d="M4474 426 c-3 -7 -4 -38 -2 -67 l3 -54 63 -3 62 -3 0 71 0 70 -60 0
c-42 0 -62 -4 -66 -14z"/>
<path d="M5030 370 l0 -70 65 0 65 0 0 70 0 70 -65 0 -65 0 0 -70z"/>
<path d="M5860 370 l0 -70 70 0 70 0 0 70 0 70 -70 0 -70 0 0 -70z"/>
<path d="M3750 412 c-70 -22 -65 -110 6 -128 69 -17 114 58 69 114 -6 8 -62
18 -75 14z m64 -44 c14 -23 -3 -52 -33 -56 -42 -6 -67 38 -39 66 17 17 58 11
72 -10z"/>
<path d="M4169 401 c-30 -25 -18 -51 29 -63 38 -10 42 -28 7 -28 -14 0 -25 5
-25 10 0 6 -7 10 -15 10 -22 0 -19 -27 4 -40 29 -15 56 -12 82 9 31 26 17 52
-35 64 -20 5 -36 13 -36 18 0 13 34 11 47 -2 7 -7 20 -8 30 -5 17 7 16 9 -6
27 -30 24 -53 24 -82 0z"/>
<path d="M3087 403 c-8 -15 -7 -98 2 -112 14 -22 31 -3 31 37 l0 37 31 -38
c47 -57 65 -51 61 23 -2 33 -8 60 -13 60 -9 0 -13 -15 -10 -34 7 -36 -12 -37
-40 -3 -29 35 -53 46 -62 30z"/>
<path d="M3242 348 l3 -63 49 0 c31 0 51 5 53 13 3 8 -8 12 -36 12 -30 0 -41
4 -41 15 0 11 11 15 40 15 22 0 40 5 40 10 0 6 -18 10 -40 10 -29 0 -40 4 -40
15 0 11 11 15 40 15 22 0 40 5 40 10 0 6 -25 10 -55 10 l-56 0 3 -62z"/>
<path d="M3370 400 c0 -5 9 -10 19 -10 17 0 20 -8 23 -50 4 -67 22 -68 26 -2
3 45 6 53 21 50 10 -2 19 2 20 7 0 6 -24 11 -54 13 -34 2 -55 -1 -55 -8z"/>
<path d="M3500 408 c2 -28 41 -123 51 -123 7 0 21 20 30 45 l17 45 12 -42 c9
-29 19 -43 31 -43 11 0 22 14 32 43 8 23 18 50 22 61 6 14 4 17 -10 15 -10 -2
-24 -20 -31 -39 l-12 -35 -16 38 c-21 49 -40 47 -56 -5 l-13 -43 -15 43 c-12
31 -43 61 -42 40z"/>
<path d="M3870 355 c0 -30 0 -58 0 -62 0 -5 6 -8 12 -8 7 0 13 10 13 22 0 13
3 23 8 23 38 1 45 -3 50 -20 3 -11 12 -20 20 -20 12 0 14 6 7 29 -4 15 -4 34
0 42 18 28 -8 49 -60 49 l-50 0 0 -55z m80 20 c0 -10 -10 -15 -30 -15 -29 0
-38 9 -23 23 13 13 53 7 53 -8z"/>
<path d="M4010 351 c0 -57 15 -90 25 -57 17 53 14 52 46 18 49 -52 66 -42 23
15 l-25 33 28 25 c25 21 26 24 9 25 -11 0 -33 -12 -48 -27 l-28 -27 0 27 c0
17 -5 27 -15 27 -12 0 -15 -13 -15 -59z"/>
<path d="M4310 395 c0 -3 2 -5 5 -5 3 0 5 2 5 5 0 3 -2 5 -5 5 -3 0 -5 -2 -5
-5z"/>
<path d="M2521 338 c-13 -33 -1 -39 65 -36 47 2 59 7 62 21 3 14 -4 17 -38 17
-23 0 -50 5 -61 10 -16 9 -21 7 -28 -12z m39 -23 c0 -3 -2 -5 -5 -5 -3 0 -5 2
-5 5 0 3 2 5 5 5 3 0 5 -2 5 -5z"/>
<path d="M2060 335 c-14 -8 -20 -15 -15 -16 6 -1 -10 -5 -35 -9 -44 -7 -43 -8
14 -6 53 1 59 3 62 24 2 12 3 22 1 22 -1 -1 -13 -7 -27 -15z"/>
<path d="M2320 330 c0 -7 3 -10 7 -7 3 4 3 10 0 14 -4 3 -7 0 -7 -7z"/>
<path d="M2340 323 c0 -9 -16 -14 -52 -15 l-53 -1 44 -4 c25 -3 55 -2 68 2 25
6 32 32 8 32 -8 0 -15 -6 -15 -14z"/>
<path d="M2248 323 c6 -2 18 -2 25 0 6 3 1 5 -13 5 -14 0 -19 -2 -12 -5z"/>
<path d="M2797 324 c-21 -22 89 -36 121 -15 7 4 -12 6 -43 3 -37 -3 -55 -1
-55 7 0 12 -13 15 -23 5z m13 -9 c0 -3 -2 -5 -5 -5 -3 0 -5 2 -5 5 0 3 2 5 5
5 3 0 5 -2 5 -5z"/>
<path d="M2880 325 c0 -3 2 -5 5 -5 3 0 5 2 5 5 0 3 -2 5 -5 5 -3 0 -5 -2 -5
-5z"/>
<path d="M144 287 c-3 -8 -4 -39 -2 -68 l3 -54 65 0 65 0 0 65 0 65 -63 3
c-47 2 -64 -1 -68 -11z"/>
<path d="M704 286 c-3 -7 -4 -38 -2 -67 l3 -54 62 -3 61 -3 4 53 c6 85 4 88
-63 88 -41 0 -61 -4 -65 -14z"/>
<path d="M1262 233 l3 -68 63 -3 62 -3 0 71 0 70 -65 0 -66 0 3 -67z"/>
<path d="M1540 230 l0 -70 65 0 65 0 0 48 c0 87 -4 92 -71 92 l-59 0 0 -70z"/>
<path d="M1923 293 c4 -3 10 -3 14 0 3 4 0 7 -7 7 -7 0 -10 -3 -7 -7z"/>
<path d="M2100 230 l0 -71 63 3 62 3 1 68 2 67 -64 0 -64 0 0 -70z m70 55 c0
-3 -2 -5 -5 -5 -3 0 -5 2 -5 5 0 3 2 5 5 5 3 0 5 -2 5 -5z"/>
<path d="M2378 283 c-3 -10 -4 -40 -4 -68 l1 -50 65 0 65 0 3 68 3 67 -64 0
c-53 0 -65 -3 -69 -17z"/>
<path d="M2655 277 c-4 -13 -5 -43 -3 -68 l3 -44 65 0 65 0 3 44 c6 83 0 91
-68 91 -54 0 -60 -2 -65 -23z"/>
<path d="M2935 277 c-4 -13 -5 -43 -3 -68 l3 -44 65 0 c63 0 65 1 68 27 2 19
-2 28 -17 33 -12 3 -21 11 -21 16 0 5 -5 9 -11 9 -6 0 -17 7 -26 16 -9 8 -22
13 -29 10 -8 -3 -14 -1 -14 3 0 5 6 12 13 14 7 3 5 6 -5 6 -10 1 -20 -9 -23
-22z"/>
<path d="M3050 295 c0 -3 2 -5 5 -5 3 0 5 2 5 5 0 3 -2 5 -5 5 -3 0 -5 -2 -5
-5z"/>
<path d="M4340 262 c-24 -78 -14 -97 58 -100 l62 -3 0 71 0 70 -55 0 c-54 0
-54 0 -65 -38z"/>
<path d="M4610 230 l0 -71 63 3 62 3 3 68 3 67 -66 0 -65 0 0 -70z"/>
<path d="M5168 283 c-2 -10 -2 -42 0 -71 l4 -53 61 3 62 3 0 65 0 65 -61 3
c-52 2 -62 0 -66 -15z"/>
<path d="M5724 287 c-3 -8 -4 -39 -2 -68 l3 -54 65 0 65 0 0 65 0 65 -63 3
c-47 2 -64 -1 -68 -11z"/>
<path d="M1930 270 c0 -5 -7 -7 -15 -4 -8 4 -15 2 -15 -3 0 -6 -18 -18 -40
-28 -34 -16 -41 -23 -38 -44 3 -24 7 -26 66 -29 l62 -3 0 61 c0 33 -4 60 -10
60 -5 0 -10 -4 -10 -10z"/>
<path d="M1820 265 c0 -3 2 -5 5 -5 3 0 5 2 5 5 0 3 -2 5 -5 5 -3 0 -5 -2 -5
-5z"/>
<path d="M3040 260 c0 -7 3 -10 7 -7 3 4 3 10 0 14 -4 3 -7 0 -7 -7z"/>
<path d="M3060 255 c0 -3 2 -5 5 -5 3 0 5 2 5 5 0 3 -2 5 -5 5 -3 0 -5 -2 -5
-5z"/>
<path d="M3491 188 c-1 -24 11 -29 45 -18 l29 8 -32 1 c-17 1 -34 7 -36 14 -3
7 -6 6 -6 -5z"/>
<path d="M3245 170 c3 -5 8 -10 11 -10 3 0 2 5 -1 10 -3 6 -8 10 -11 10 -3 0
-2 -4 1 -10z"/>
<path d="M3295 170 c3 -5 8 -10 11 -10 3 0 2 5 -1 10 -3 6 -8 10 -11 10 -3 0
-2 -4 1 -10z"/>
<path d="M3330 170 c0 -7 3 -10 7 -7 3 4 3 10 0 14 -4 3 -7 0 -7 -7z"/>
<path d="M3573 173 c4 -3 10 -3 14 0 3 4 0 7 -7 7 -7 0 -10 -3 -7 -7z"/>
<path d="M3604 168 c-4 -7 -3 -8 4 -4 7 4 12 9 12 12 0 8 -9 4 -16 -8z"/>
<path d="M3820 175 c0 -3 2 -5 5 -5 3 0 5 2 5 5 0 3 -2 5 -5 5 -3 0 -5 -2 -5
-5z"/>
<path d="M3875 170 c3 -5 8 -10 11 -10 3 0 2 5 -1 10 -3 6 -8 10 -11 10 -3 0
-2 -4 1 -10z"/>
<path d="M4164 168 c-4 -7 -3 -8 4 -4 7 4 12 9 12 12 0 8 -9 4 -16 -8z"/>
<path d="M3220 165 c0 -3 2 -5 5 -5 3 0 5 2 5 5 0 3 -2 5 -5 5 -3 0 -5 -2 -5
-5z"/>
<path d="M3790 165 c0 -3 2 -5 5 -5 3 0 5 2 5 5 0 3 -2 5 -5 5 -3 0 -5 -2 -5
-5z"/>
<path d="M4070 165 c0 -3 2 -5 5 -5 3 0 5 2 5 5 0 3 -2 5 -5 5 -3 0 -5 -2 -5
-5z"/>
<path d="M0 97 c0 -74 1 -75 80 -73 l55 1 0 65 0 65 -67 3 -68 3 0 -64z m120
38 c0 -3 -2 -5 -5 -5 -3 0 -5 2 -5 5 0 3 2 5 5 5 3 0 5 -2 5 -5z"/>
<path d="M280 92 l0 -68 70 -1 70 -1 0 69 0 69 -70 0 -70 0 0 -68z"/>
<path d="M840 97 c0 -73 4 -77 88 -77 l42 0 1 45 c1 25 2 55 2 68 1 20 -3 22
-66 25 l-67 3 0 -64z"/>
<path d="M1402 93 l3 -68 60 0 60 0 0 65 0 65 -63 3 -63 3 3 -68z"/>
<path d="M1680 90 l0 -70 -70 0 c-40 0 -70 -4 -70 -10 0 -6 28 -10 64 -10 36
0 68 5 71 10 3 6 28 10 55 10 76 0 80 4 80 70 0 66 -4 70 -81 70 l-49 0 0 -70z"/>
<path d="M1959 138 c-2 -13 -2 -43 1 -68 l5 -45 60 0 60 0 0 65 0 65 -61 3
c-57 3 -62 1 -65 -20z"/>
<path d="M2237 153 c-2 -5 -4 -35 -3 -68 l1 -60 55 -1 c79 -2 80 -1 80 72 l0
64 -64 0 c-36 0 -67 -3 -69 -7z"/>
<path d="M2515 148 c-3 -7 -3 -31 -1 -53 2 -22 4 -47 5 -56 1 -12 14 -15 64
-15 l62 1 0 65 0 65 -63 3 c-44 2 -64 -1 -67 -10z"/>
<path d="M2794 146 c-3 -7 -4 -38 -2 -67 l3 -54 68 -1 67 -2 0 69 0 69 -65 0
c-46 0 -67 -4 -71 -14z"/>
<path d="M3070 90 l0 -68 68 2 67 1 0 65 0 65 -67 1 -68 2 0 -68z"/>
<path d="M3354 146 c-3 -7 -4 -38 -2 -67 l3 -54 63 -1 c70 0 69 -2 63 119 -1
22 -118 26 -127 3z"/>
<path d="M3643 153 c-8 -3 -13 -26 -13 -63 0 -66 2 -68 80 -66 l55 1 -1 50
c-3 91 1 85 -56 84 -29 0 -59 -3 -65 -6z m37 -8 c0 -3 -2 -5 -5 -5 -3 0 -5 2
-5 5 0 3 2 5 5 5 3 0 5 -2 5 -5z"/>
<path d="M3914 146 c-3 -7 -4 -38 -2 -67 l3 -54 60 0 60 0 3 59 c2 41 -1 62
-10 67 -22 14 -108 11 -114 -5z m93 -13 c-4 -3 -7 0 -7 7 0 7 3 10 7 7 3 -4 3
-10 0 -14z"/>
<path d="M4208 153 c-15 -4 -18 -16 -18 -63 0 -65 1 -66 75 -69 28 -1 54 -6
60 -12 12 -12 135 -12 135 1 0 6 -30 10 -70 10 l-70 0 0 70 0 70 -47 -1 c-27
-1 -56 -3 -65 -6z m32 -8 c0 -3 -2 -5 -5 -5 -3 0 -5 2 -5 5 0 3 2 5 5 5 3 0 5
-2 5 -5z m0 -30 c0 -3 -2 -5 -5 -5 -3 0 -5 2 -5 5 0 3 2 5 5 5 3 0 5 -2 5 -5z"/>
<path d="M4474 146 c-3 -7 -4 -38 -2 -67 l3 -54 60 0 60 0 3 68 3 67 -61 0
c-42 0 -62 -4 -66 -14z"/>
<path d="M5029 155 c-1 -3 -1 -14 -1 -25 0 -11 0 -40 1 -65 l1 -45 43 0 c82 0
87 4 87 76 l0 64 -65 0 c-36 0 -65 -2 -66 -5z"/>
<path d="M5580 91 l0 -69 70 0 70 0 0 69 0 69 -70 0 -70 0 0 -69z"/>
<path d="M5862 93 l3 -68 68 -3 67 -4 0 71 0 71 -70 0 -71 0 3 -67z"/>
<path d="M145 10 c-4 -6 20 -10 65 -10 45 0 69 4 65 10 -8 13 -122 13 -130 0z"/>
<path d="M705 10 c-4 -6 18 -10 59 -10 37 0 66 4 66 10 0 6 -26 10 -59 10 -33
0 -63 -4 -66 -10z"/>
<path d="M1260 10 c0 -6 28 -10 65 -10 37 0 65 4 65 10 0 6 -28 10 -65 10 -37
0 -65 -4 -65 -10z"/>
<path d="M1820 10 c0 -6 28 -10 65 -10 37 0 65 4 65 10 0 6 -28 10 -65 10 -37
0 -65 -4 -65 -10z"/>
<path d="M2100 10 c0 -6 29 -10 66 -10 41 0 63 4 59 10 -8 13 -125 13 -125 0z"/>
<path d="M2375 10 c-4 -6 20 -10 64 -10 41 0 71 4 71 10 0 6 -28 10 -64 10
-36 0 -68 -4 -71 -10z"/>
<path d="M2655 10 c-4 -6 20 -10 65 -10 45 0 69 4 65 10 -8 13 -122 13 -130 0z"/>
<path d="M2935 10 c-4 -6 20 -10 65 -10 45 0 69 4 65 10 -8 13 -122 13 -130 0z"/>
<path d="M3215 10 c-4 -6 20 -10 65 -10 45 0 69 4 65 10 -8 13 -122 13 -130 0z"/>
<path d="M3495 10 c-4 -6 18 -10 59 -10 37 0 66 4 66 10 0 6 -26 10 -59 10
-33 0 -63 -4 -66 -10z"/>
<path d="M3775 10 c-4 -6 18 -10 59 -10 37 0 66 4 66 10 0 6 -26 10 -59 10
-33 0 -63 -4 -66 -10z"/>
<path d="M4050 10 c0 -6 28 -10 65 -10 37 0 65 4 65 10 0 6 -28 10 -65 10 -37
0 -65 -4 -65 -10z"/>
<path d="M4610 10 c0 -6 28 -10 65 -10 37 0 65 4 65 10 0 6 -28 10 -65 10 -37
0 -65 -4 -65 -10z"/>
<path d="M5170 10 c0 -6 29 -10 66 -10 41 0 63 4 59 10 -3 6 -33 10 -66 10
-33 0 -59 -4 -59 -10z"/>
<path d="M5725 10 c-4 -6 20 -10 65 -10 45 0 69 4 65 10 -3 6 -33 10 -65 10
-32 0 -62 -4 -65 -10z"/>
</g>
</svg>
