<?xml version="1.0" standalone="no"?>
<!DOCTYPE svg PUBLIC "-//W3C//DTD SVG 20010904//EN"
 "http://www.w3.org/TR/2001/REC-SVG-20010904/DTD/svg10.dtd">
<svg version="1.0" xmlns="http://www.w3.org/2000/svg"
 width="300.000000pt" height="249.000000pt" viewBox="0 0 300.000000 249.000000"
 preserveAspectRatio="xMidYMid meet">
<g transform="translate(0.000000,249.000000) scale(0.100000,-0.100000)"
fill="#ffffff" stroke="none">
<path d="M854 1959 l-349 -349 139 -140 139 -140 344 342 c188 189 346 344
351 346 4 1 37 -27 72 -63 l65 -65 -348 -348 -347 -347 140 -140 140 -140 138
138 137 137 138 -138 138 -138 350 350 350 350 -140 140 -140 140 -347 -347
-346 -346 -69 61 c-38 33 -69 64 -69 67 0 3 156 162 347 353 l348 348 -140
140 -140 140 -140 -141 -140 -141 -136 140 -137 139 -348 -348z"/>
<path d="M1080 510 l0 -200 45 0 45 0 0 200 0 200 -45 0 -45 0 0 -200z"/>
<path d="M1839 701 c-2 -6 -3 -96 -1 -201 l3 -190 42 0 42 0 0 198 0 197 -41
3 c-23 2 -44 -2 -45 -7z"/>
<path d="M2005 661 l-30 -6 0 -141 c0 -103 4 -148 14 -168 35 -64 197 -50 173
15 -8 20 -16 24 -53 24 l-44 0 -3 73 -3 72 51 0 50 0 0 35 0 35 -50 0 -50 0 0
35 c0 37 -2 38 -55 26z"/>
<path d="M2511 624 c-38 -27 -18 -94 29 -94 26 0 50 27 50 54 0 40 -46 63 -79
40z m49 -19 c6 -8 10 -22 7 -32 -4 -14 -5 -14 -6 4 0 12 -9 27 -18 32 -10 6
-13 11 -7 11 6 0 17 -7 24 -15z m-40 -27 c-1 -26 -3 -30 -10 -16 -6 9 -7 23
-4 32 9 25 14 19 14 -16z m25 -18 c3 -5 1 -10 -4 -10 -6 0 -11 5 -11 10 0 6 2
10 4 10 3 0 8 -4 11 -10z"/>
<path d="M568 592 c-30 -16 -38 -17 -38 -6 0 10 -12 14 -40 14 l-40 0 0 -195
0 -195 45 0 45 0 0 67 c0 62 1 65 18 51 60 -53 153 -15 182 75 40 126 -67 244
-172 189z m76 -84 c50 -72 -24 -167 -86 -111 -23 21 -24 89 -1 115 23 25 68
23 87 -4z"/>
<path d="M834 596 c-63 -20 -66 -23 -49 -57 18 -34 13 -33 75 -13 38 12 53 13
70 4 28 -15 9 -40 -31 -40 -40 0 -108 -29 -119 -51 -44 -82 46 -164 133 -120
29 15 37 16 37 5 0 -10 12 -14 40 -14 l40 0 0 108 c0 128 -15 164 -77 181 -48
14 -67 13 -119 -3z m116 -169 c0 -44 -63 -74 -90 -42 -16 20 1 42 38 48 49 7
52 7 52 -6z"/>
<path d="M1295 596 c-62 -28 -80 -60 -80 -143 0 -73 1 -75 36 -107 132 -122
323 41 231 197 -33 55 -124 81 -187 53z m110 -96 c35 -68 -8 -136 -74 -115
-31 10 -45 66 -27 109 21 49 77 53 101 6z"/>
<path d="M1599 601 c-60 -20 -69 -29 -57 -61 12 -35 9 -34 70 -16 54 17 90 11
86 -13 -2 -11 -19 -18 -57 -23 -62 -7 -102 -33 -112 -72 -22 -83 79 -142 156
-92 22 14 25 15 25 1 0 -11 11 -15 40 -15 l40 0 0 101 c0 108 -13 154 -51 177
-26 17 -106 24 -140 13z m101 -186 c0 -29 -32 -49 -66 -41 -37 10 -31 43 9 55
50 14 57 13 57 -14z"/>
<path d="M2276 600 c-116 -37 -133 -220 -24 -276 74 -39 179 -9 212 60 60 126
-55 258 -188 216z m95 -87 c22 -25 18 -102 -5 -119 -48 -35 -96 -4 -96 62 0
66 64 103 101 57z"/>
<path d="M2128 239 c-26 -15 -23 -58 5 -68 48 -18 86 30 48 61 -26 21 -30 21
-53 7z m42 -34 c0 -8 -7 -15 -15 -15 -8 0 -15 7 -15 15 0 8 7 15 15 15 8 0 15
-7 15 -15z"/>
<path d="M2420 240 c-22 -14 -22 -68 1 -75 32 -10 71 19 52 39 -4 4 -8 15 -8
24 0 20 -24 26 -45 12z"/>
<path d="M1700 205 c0 -24 5 -35 15 -35 8 0 15 8 15 17 0 14 3 13 16 -5 8 -12
20 -20 25 -17 12 8 12 75 -1 75 -5 0 -10 -8 -10 -17 -1 -17 -1 -17 -11 0 -19
32 -49 21 -49 -18z"/>
<path d="M1800 206 c0 -37 11 -45 47 -38 30 6 30 22 1 23 -16 0 -18 2 -8 6 16
6 30 23 30 36 0 4 -16 7 -35 7 -33 0 -35 -2 -35 -34z"/>
<path d="M1890 230 c0 -5 5 -10 10 -10 6 0 10 -11 10 -25 0 -16 6 -25 15 -25
9 0 15 9 15 25 0 14 5 25 10 25 6 0 10 5 10 10 0 6 -16 10 -35 10 -19 0 -35
-4 -35 -10z"/>
<path d="M1980 228 c0 -33 14 -58 31 -58 11 0 19 5 19 10 0 6 8 5 20 -2 23
-15 34 -6 44 35 5 20 3 27 -9 27 -8 0 -15 -8 -15 -17 -1 -17 -1 -17 -11 0 -5
9 -17 17 -24 17 -8 0 -15 -8 -15 -17 -1 -17 -1 -17 -11 0 -12 20 -29 23 -29 5z"/>
<path d="M2210 206 c0 -25 4 -36 15 -36 8 0 15 5 15 12 0 9 3 9 12 0 21 -21
34 -13 33 21 0 30 -3 32 -37 35 -37 3 -38 3 -38 -32z m47 7 c-4 -3 -10 -3 -14
0 -3 4 0 7 7 7 7 0 10 -3 7 -7z"/>
<path d="M2310 205 c0 -24 5 -35 15 -35 8 0 15 5 15 12 0 9 3 9 12 0 19 -19
44 -16 27 4 -10 12 -10 20 -1 35 14 22 -5 28 -26 7 -9 -9 -12 -9 -12 0 0 7 -7
12 -15 12 -10 0 -15 -11 -15 -35z"/>
</g>
</svg>
