<?xml version="1.0" standalone="no"?>
<!DOCTYPE svg PUBLIC "-//W3C//DTD SVG 20010904//EN"
 "http://www.w3.org/TR/2001/REC-SVG-20010904/DTD/svg10.dtd">
<svg version="1.0" xmlns="http://www.w3.org/2000/svg"
 width="554.000000pt" height="554.000000pt" viewBox="0 0 554.000000 554.000000"
 preserveAspectRatio="xMidYMid meet">
<g transform="translate(0.000000,554.000000) scale(0.100000,-0.100000)"
fill="#ffffff" stroke="none">
<path d="M2125 5314 c-565 -91 -821 -741 -462 -1174 221 -267 624 -339 915
-163 549 333 435 1157 -183 1318 -62 16 -218 27 -270 19z m267 -348 c82 -29
158 -83 198 -141 l30 -44 0 -178 0 -178 -30 -51 c-152 -265 -633 -254 -769 17
-30 61 -31 65 -31 206 0 159 7 186 60 247 122 139 347 189 542 122z"/>
<path d="M3890 4855 c-193 -53 -357 -206 -421 -391 -32 -92 -35 -297 -5 -384
146 -434 686 -563 1007 -241 316 316 196 853 -224 1001 -82 29 -275 37 -357
15z m285 -326 c51 -15 78 -31 116 -68 l49 -47 0 -138 c0 -160 -11 -193 -85
-249 -151 -116 -427 -70 -505 84 -31 60 -29 262 3 310 74 110 260 158 422 108z"/>
<path d="M1552 3520 c-180 -48 -357 -180 -449 -338 -22 -36 -83 -176 -83 -188
0 -2 262 -5 583 -6 l582 -3 83 -34 c190 -76 331 -238 377 -432 26 -111 22
-1398 -5 -1503 -55 -217 -234 -394 -450 -447 -40 -10 -136 -14 -357 -14 -350
0 -341 5 -148 -90 106 -52 225 -92 344 -116 38 -8 322 -13 886 -16 l830 -4
-42 38 c-140 128 -238 325 -263 533 -6 52 -10 453 -10 1046 0 923 -1 964 -20
1038 -60 236 -249 441 -481 522 l-84 29 -610 2 c-574 2 -614 1 -683 -17z
m1288 -315 c143 -44 236 -123 286 -242 l29 -68 6 -1010 c4 -666 10 -1027 17
-1060 12 -56 15 -155 6 -179 -7 -19 -360 -24 -395 -6 -28 15 -24 37 25 136 93
190 87 113 84 1015 l-3 794 -40 95 c-69 162 -215 349 -359 460 -47 36 -62 61
-50 81 11 18 325 5 394 -16z"/>
<path d="M3504 3321 c-2 -2 6 -17 17 -32 35 -49 88 -174 111 -261 22 -82 22
-93 27 -1128 l6 -1045 28 -73 c150 -389 553 -553 917 -374 111 54 233 178 289
292 74 151 72 122 69 1123 l-3 892 -23 70 c-91 269 -301 463 -562 519 -69 15
-862 30 -876 17z m855 -335 c86 -24 159 -65 215 -120 94 -92 86 2 86 -1068 0
-1060 6 -972 -74 -1056 -92 -97 -313 -132 -447 -70 -100 46 -189 151 -189 221
0 14 -7 41 -15 60 -16 39 -24 2035 -7 2051 13 14 372 -1 431 -18z"/>
<path d="M718 2751 c-114 -37 -208 -124 -249 -233 l-24 -63 0 -685 0 -685 23
-57 c47 -117 155 -214 265 -238 36 -8 258 -10 737 -8 l685 3 57 27 c69 32 147
107 181 175 47 91 48 125 45 823 l-3 655 -23 57 c-45 111 -157 208 -271 234
-98 24 -1348 19 -1423 -5z m73 -379 c-6 -2 -11 -10 -11 -18 0 -8 -4 -14 -10
-14 -6 0 -10 -42 -10 -105 0 -63 4 -105 10 -105 6 0 10 -9 10 -20 0 -11 4 -20
8 -20 4 0 21 -20 36 -44 30 -48 157 -175 194 -195 22 -12 22 -12 22 -286 0
-188 3 -274 11 -277 6 -2 15 -26 20 -53 5 -27 13 -51 18 -54 37 -25 40 -88 4
-102 -47 -18 -261 -7 -308 16 l-40 20 -3 652 -2 651 27 10 c26 8 28 7 31 -22
2 -17 -1 -32 -7 -34z m1327 10 c2 -25 -1 -42 -7 -42 -6 0 -11 7 -11 15 0 8 -4
15 -10 15 -5 0 -10 14 -10 31 0 51 34 35 38 -19z m-258 -157 l0 -105 -147 0
-148 0 3 -450 3 -450 -131 0 -132 0 4 450 3 450 -147 0 -148 0 0 105 0 105
420 0 420 0 0 -105z m258 -607 l-3 -513 -30 -14 c-51 -25 -284 -28 -314 -4
l-23 19 23 49 c13 28 27 52 31 53 4 2 8 21 8 43 0 21 5 39 10 39 6 0 10 98 10
274 0 271 0 275 21 281 31 10 171 147 204 200 16 25 33 45 37 45 4 0 8 9 8 20
0 11 5 20 10 20 7 0 9 -173 8 -512z"/>
</g>
</svg>
